<svg id="グループ_47" data-name="グループ 47" xmlns="http://www.w3.org/2000/svg" xmlns:xlink="http://www.w3.org/1999/xlink" width="162.83" height="28.537" viewBox="0 0 162.83 28.537">
  <defs>
    <clipPath id="clip-path">
      <rect id="長方形_54" data-name="長方形 54" width="162.83" height="28.537" fill="#fff"/>
    </clipPath>
  </defs>
  <rect id="長方形_53" data-name="長方形 53" width="3.163" height="27.545" transform="translate(136.158 0.215)" fill="#fff"/>
  <path id="パス_7" data-name="パス 7" d="M463.324,1.152V6.839H450V1.152H446.84V28.7H450V10h13.321V28.7h3.163V1.152Z" transform="translate(-363.54 -0.937)" fill="#fff"/>
  <path id="パス_8" data-name="パス 8" d="M0,1.07V4.233H5.907v24.4H9.064V4.233h6V1.07Z" transform="translate(0 -0.87)" fill="#fff"/>
  <g id="グループ_10" data-name="グループ 10">
    <g id="グループ_9" data-name="グループ 9" clip-path="url(#clip-path)">
      <path id="パス_9" data-name="パス 9" d="M282.783,1.069H273.05v.884h-.062V28.722h3.163V12.412h6.632c4.169,0,7.588-2.555,7.588-5.671s-3.418-5.672-7.588-5.672m.961,8.18h-7.654V4.293h7.654c1.86,0,3.372,1.114,3.372,2.478s-1.512,2.478-3.372,2.478" transform="translate(-222.097 -0.87)" fill="#fff"/>
      <path id="パス_10" data-name="パス 10" d="M107.7,0a14.268,14.268,0,1,0,14.266,14.271A14.27,14.27,0,0,0,107.7,0m0,25.548a11.279,11.279,0,1,1,11.277-11.277A11.279,11.279,0,0,1,107.7,25.548" transform="translate(-76.017)" fill="#fff"/>
      <path id="パス_11" data-name="パス 11" d="M597.638,28.584,584.9,1.069h-.481L583.3,3.42l-.005-.005L571.248,28.584h3.505l9.861-20.607,9.54,20.607Z" transform="translate(-464.755 -0.87)" fill="#fff"/>
      <path id="パス_12" data-name="パス 12" d="M796.255,28.585,783.548,12.413h4.813c4.175,0,7.588-2.555,7.588-5.671s-3.413-5.671-7.588-5.671h-9.734v.884h-.061V28.723h3.163V15.213l10.5,13.372ZM781.667,4.294h7.654c1.855,0,3.373,1.114,3.373,2.478s-1.518,2.478-3.373,2.478h-7.654Z" transform="translate(-633.425 -0.871)" fill="#fff"/>
    </g>
  </g>
</svg>
