<svg xmlns="http://www.w3.org/2000/svg" xmlns:xlink="http://www.w3.org/1999/xlink" width="10.269" height="12" viewBox="0 0 10.269 12">
  <defs>
    <clipPath id="clip-path">
      <rect id="長方形_106" data-name="長方形 106" width="10.269" height="12" transform="translate(0 0)" fill="#fff"/>
    </clipPath>
  </defs>
  <g id="tiktok-icon-white" transform="translate(0 -0.005)">
    <g id="グループ_43" data-name="グループ 43" transform="translate(0 0.005)" clip-path="url(#clip-path)">
      <path id="パス_35" data-name="パス 35" d="M10.267,4.86q-.147.014-.3.015a3.2,3.2,0,0,1-2.68-1.449V8.359A3.646,3.646,0,1,1,3.646,4.713c.076,0,.151.007.225.012v1.8A1.87,1.87,0,0,0,3.646,6.5a1.861,1.861,0,0,0,0,3.722A1.906,1.906,0,0,0,5.581,8.383L5.6,0H7.318a3.2,3.2,0,0,0,2.951,2.858v2" transform="translate(0 -0.005)" fill="#fff"/>
    </g>
  </g>
</svg>
