<svg height="25.266" viewBox="0 0 17.261 25.266" width="17.261" xmlns="http://www.w3.org/2000/svg"><path d="m31.56 98.417h-7.6l-1.217 4.095c.369-.037.775-.072 1.144-.072a8.128 8.128 0 0 1 5.683 2.176 8.392 8.392 0 0 1 2.4 6.308 8.837 8.837 0 0 1 -2.51 6.531 9.217 9.217 0 0 1 -6.824 2.51 9.207 9.207 0 0 1 -4.722-1.107 8.968 8.968 0 0 1 -2.914-2.842l2.84-2.361a5.3 5.3 0 0 0 5.091 2.988 5.222 5.222 0 0 0 3.763-1.365 5.71 5.71 0 0 0 1.588-4.17 5.212 5.212 0 0 0 -1.476-3.984 5.79 5.79 0 0 0 -4.023-1.365 7.644 7.644 0 0 0 -2.877.516 10.137 10.137 0 0 0 -2.178 1.107l3.654-12.433h10.178z" fill="#fff" stroke="#1a1311" stroke-miterlimit="10" stroke-width=".25" transform="translate(-14.83 -94.824)"/></svg>