<svg height="25.266" viewBox="0 0 16.92 25.266" width="16.92" xmlns="http://www.w3.org/2000/svg"><path d="m31.643 49.283h-16.53l8.523-10.331c.85-1.033 2.14-2.658 2.953-3.838a6.084 6.084 0 0 0 1.291-3.541 3.841 3.841 0 0 0 -4.1-3.986c-2.767 0-4.205 2.141-4.353 4.465h-3.611a8.87 8.87 0 0 1 2.066-5.388 7.383 7.383 0 0 1 5.755-2.4c5.24 0 7.933 3.578 7.933 7.416a9.073 9.073 0 0 1 -1.77 5.17 49.664 49.664 0 0 1 -3.5 4.427l-3.836 4.539h9.185z" fill="#fff" stroke="#1a1311" stroke-miterlimit="10" stroke-width=".25" transform="translate(-14.848 -24.142)"/></svg>