<svg height="25.672" viewBox="0 0 15.981 25.672" width="15.981" xmlns="http://www.w3.org/2000/svg"><path d="m16.132 54.433a7.252 7.252 0 0 1 2.1-4.8 7.435 7.435 0 0 1 5.386-1.881 6.808 6.808 0 0 1 5.312 2.029 6.381 6.381 0 0 1 1.77 4.689 5.947 5.947 0 0 1 -.848 3.246 5.716 5.716 0 0 1 -2.213 2.066 5.078 5.078 0 0 1 2.436 1.955 6.848 6.848 0 0 1 1.033 3.8 7.673 7.673 0 0 1 -2.1 5.5 8.2 8.2 0 0 1 -6.013 2.141 7.1 7.1 0 0 1 -5.5-2.066 9 9 0 0 1 -2.1-5.019h3.617a4.773 4.773 0 0 0 1.326 2.656 4.207 4.207 0 0 0 2.988 1.107 4.452 4.452 0 0 0 2.874-1.035 4.651 4.651 0 0 0 1.3-3.467 3.9 3.9 0 0 0 -1.1-2.914 4.381 4.381 0 0 0 -3.174-1.107h-.74v-3.175h.518a4.3 4.3 0 0 0 3.136-1.07 3.662 3.662 0 0 0 .959-2.619 3.36 3.36 0 0 0 -.969-2.469 3.625 3.625 0 0 0 -2.619-.924 3.562 3.562 0 0 0 -2.73 1 4.31 4.31 0 0 0 -1.035 2.361z" fill="#fff" stroke="#1a1311" stroke-miterlimit="10" stroke-width=".25" transform="translate(-15.256 -47.629)"/></svg>