<svg height="48.237" viewBox="0 0 288.986 48.237" width="288.986" xmlns="http://www.w3.org/2000/svg" xmlns:xlink="http://www.w3.org/1999/xlink"><clipPath id="a"><path d="m0 0h288.986v48.237h-288.986z"/></clipPath><g clip-path="url(#a)"><path d="m.175 35.551v-18.083a.3.3 0 0 1 .33-.33h11.411a.309.309 0 0 1 .33.33v2.594a.322.322 0 0 1 -.33.33h-8.3v4.832h7.144a.31.31 0 0 1 .33.332v2.594a.3.3 0 0 1 -.33.33h-7.143v7.072a.309.309 0 0 1 -.33.33h-2.787a.3.3 0 0 1 -.33-.33" fill="#fff" transform="translate(.12 11.707)"/><path d="m.175 35.551v-18.083a.3.3 0 0 1 .33-.33h11.411a.309.309 0 0 1 .33.33v2.594a.322.322 0 0 1 -.33.33h-8.3v4.832h7.144a.31.31 0 0 1 .33.332v2.594a.3.3 0 0 1 -.33.33h-7.143v7.072a.309.309 0 0 1 -.33.33h-2.787a.3.3 0 0 1 -.325-.331z" fill="none" stroke="#1a1311" stroke-miterlimit="10" stroke-width=".35" transform="translate(.12 11.707)"/><path d="m10.128 35.551v-18.083a.3.3 0 0 1 .33-.33h2.782a.309.309 0 0 1 .33.33v15.112h9.03a.309.309 0 0 1 .33.33v2.641a.3.3 0 0 1 -.33.33h-12.142a.3.3 0 0 1 -.33-.33" fill="#fff" transform="translate(6.918 11.707)"/><path d="m10.128 35.551v-18.083a.3.3 0 0 1 .33-.33h2.782a.309.309 0 0 1 .33.33v15.112h9.03a.309.309 0 0 1 .33.33v2.641a.3.3 0 0 1 -.33.33h-12.142a.3.3 0 0 1 -.33-.33z" fill="none" stroke="#1a1311" stroke-miterlimit="10" stroke-width=".35" transform="translate(6.918 11.707)"/><path d="m20.1 26.665c0-5.894 3.986-9.737 9.43-9.737 5.47 0 9.454 3.842 9.454 9.737 0 5.872-3.984 9.715-9.454 9.715-5.445 0-9.43-3.842-9.43-9.715m9.43 6.344c3.609 0 5.871-2.641 5.871-6.344s-2.267-6.365-5.876-6.365c-3.583 0-5.869 2.664-5.869 6.365s2.286 6.344 5.869 6.344" fill="#fff" transform="translate(13.727 11.564)"/><path d="m20.1 26.665c0-5.894 3.986-9.737 9.43-9.737 5.47 0 9.454 3.842 9.454 9.737 0 5.872-3.984 9.715-9.454 9.715-5.449-.001-9.43-3.843-9.43-9.715zm9.43 6.344c3.609 0 5.871-2.641 5.871-6.344s-2.267-6.365-5.876-6.365c-3.583 0-5.869 2.664-5.869 6.365s2.286 6.343 5.869 6.343z" fill="none" stroke="#1a1311" stroke-miterlimit="10" stroke-width=".35" transform="translate(13.727 11.564)"/><path d="m40.076 35.622-6.53-18.107a.253.253 0 0 1 -.024-.118c0-.165.118-.259.306-.259h3.23a.316.316 0 0 1 .353.284l4.125 12.635 4.151-12.635a.329.329 0 0 1 .353-.284h2.311a.329.329 0 0 1 .353.284l4.172 12.659 4.124-12.659a.329.329 0 0 1 .353-.284h3.159c.236 0 .377.165.283.377l-6.53 18.107a.357.357 0 0 1 -.377.259h-2.354a.329.329 0 0 1 -.353-.283l-4.007-12.212-4.01 12.214a.329.329 0 0 1 -.353.283h-2.356a.356.356 0 0 1 -.379-.259" fill="#fff" transform="translate(22.898 11.707)"/><path d="m40.076 35.622-6.53-18.107a.253.253 0 0 1 -.024-.118c0-.165.118-.259.306-.259h3.23a.316.316 0 0 1 .353.284l4.125 12.635 4.151-12.635a.329.329 0 0 1 .353-.284h2.311a.329.329 0 0 1 .353.284l4.172 12.659 4.124-12.659a.329.329 0 0 1 .353-.284h3.159c.236 0 .377.165.283.377l-6.53 18.107a.357.357 0 0 1 -.377.259h-2.354a.329.329 0 0 1 -.353-.283l-4.007-12.212-4.01 12.214a.329.329 0 0 1 -.353.283h-2.356a.356.356 0 0 1 -.379-.261z" fill="none" stroke="#1a1311" stroke-miterlimit="10" stroke-width=".35" transform="translate(22.898 11.707)"/><path d="m58.107 28.243v-10.773a.31.31 0 0 1 .33-.332h2.782a.3.3 0 0 1 .33.332v10.16c0 3.678 1.791 5.234 4.15 5.234 2.309 0 4.149-1.557 4.149-5.234v-10.16a.31.31 0 0 1 .33-.332h2.806a.311.311 0 0 1 .33.332v10.773c0 5.965-3.938 7.993-7.614 7.993s-7.592-2.028-7.592-7.993" fill="#fff" transform="translate(39.692 11.707)"/><path d="m58.107 28.243v-10.773a.31.31 0 0 1 .33-.332h2.782a.3.3 0 0 1 .33.332v10.16c0 3.678 1.791 5.234 4.15 5.234 2.309 0 4.149-1.557 4.149-5.234v-10.16a.31.31 0 0 1 .33-.332h2.806a.311.311 0 0 1 .33.332v10.773c0 5.965-3.938 7.993-7.614 7.993s-7.593-2.028-7.593-7.993z" fill="none" stroke="#1a1311" stroke-miterlimit="10" stroke-width=".35" transform="translate(39.692 11.707)"/><path d="m70.538 35.551v-18.083a.3.3 0 0 1 .33-.33h2.924a.477.477 0 0 1 .426.236l8.368 12.945v-12.851a.3.3 0 0 1 .33-.33h2.664a.309.309 0 0 1 .33.33v18.083a.309.309 0 0 1 -.33.33h-2.924a.415.415 0 0 1 -.4-.236l-8.417-12.966v12.872a.3.3 0 0 1 -.33.33h-2.641a.3.3 0 0 1 -.33-.33" fill="#fff" transform="translate(48.184 11.707)"/><path d="m70.538 35.551v-18.083a.3.3 0 0 1 .33-.33h2.924a.477.477 0 0 1 .426.236l8.368 12.945v-12.851a.3.3 0 0 1 .33-.33h2.664a.309.309 0 0 1 .33.33v18.083a.309.309 0 0 1 -.33.33h-2.924a.415.415 0 0 1 -.4-.236l-8.417-12.966v12.872a.3.3 0 0 1 -.33.33h-2.641a.3.3 0 0 1 -.33-.33z" fill="none" stroke="#1a1311" stroke-miterlimit="10" stroke-width=".35" transform="translate(48.184 11.707)"/><path d="m88.473 35.551v-15.16h-5.8a.3.3 0 0 1 -.306-.33v-2.593a.292.292 0 0 1 .306-.33h15.019a.3.3 0 0 1 .33.33v2.594a.308.308 0 0 1 -.33.33h-5.752v15.16a.317.317 0 0 1 -.355.33h-2.785a.309.309 0 0 1 -.33-.33" fill="#fff" transform="translate(56.264 11.707)"/><path d="m88.473 35.551v-15.16h-5.8a.3.3 0 0 1 -.306-.33v-2.593a.292.292 0 0 1 .306-.33h15.019a.3.3 0 0 1 .33.33v2.594a.308.308 0 0 1 -.33.33h-5.752v15.16a.317.317 0 0 1 -.355.33h-2.785a.309.309 0 0 1 -.327-.331z" fill="none" stroke="#1a1311" stroke-miterlimit="10" stroke-width=".35" transform="translate(56.264 11.707)"/><path d="m94.4 35.551v-18.083a.3.3 0 0 1 .33-.33h2.782a.309.309 0 0 1 .33.33v18.083a.309.309 0 0 1 -.33.33h-2.787a.3.3 0 0 1 -.33-.33" fill="#fff" transform="translate(64.48 11.707)"/><path d="m94.4 35.551v-18.083a.3.3 0 0 1 .33-.33h2.782a.309.309 0 0 1 .33.33v18.083a.309.309 0 0 1 -.33.33h-2.787a.3.3 0 0 1 -.325-.33z" fill="none" stroke="#1a1311" stroke-miterlimit="10" stroke-width=".35" transform="translate(64.48 11.707)"/><path d="m99.91 35.551v-18.083a.3.3 0 0 1 .33-.33h2.782a.309.309 0 0 1 .33.33v15.112h9.03a.309.309 0 0 1 .33.33v2.641a.3.3 0 0 1 -.33.33h-12.142a.3.3 0 0 1 -.33-.33" fill="#fff" transform="translate(68.247 11.707)"/><path d="m99.91 35.551v-18.083a.3.3 0 0 1 .33-.33h2.782a.309.309 0 0 1 .33.33v15.112h9.03a.309.309 0 0 1 .33.33v2.641a.3.3 0 0 1 -.33.33h-12.142a.3.3 0 0 1 -.33-.33z" fill="none" stroke="#1a1311" stroke-miterlimit="10" stroke-width=".35" transform="translate(68.247 11.707)"/><path d="m116.122 35.551v-18.083a.3.3 0 0 1 .332-.33h6.222c6.224 0 9.479 3.465 9.479 9.383 0 5.871-3.255 9.361-9.479 9.361h-6.222a.3.3 0 0 1 -.332-.332m12.448-9.03c0-3.937-2.122-6.13-6.271-6.13h-2.735v12.237h2.736c4.149 0 6.271-2.193 6.271-6.106" fill="#fff" transform="translate(79.322 11.707)"/><path d="m116.122 35.551v-18.083a.3.3 0 0 1 .332-.33h6.222c6.224 0 9.479 3.465 9.479 9.383 0 5.871-3.255 9.361-9.479 9.361h-6.222a.3.3 0 0 1 -.332-.331zm12.448-9.03c0-3.937-2.122-6.13-6.271-6.13h-2.735v12.236h2.736c4.148 0 6.27-2.193 6.27-6.106z" fill="none" stroke="#1a1311" stroke-miterlimit="10" stroke-width=".35" transform="translate(79.322 11.707)"/><path d="m128.75 35.551v-18.083a.3.3 0 0 1 .33-.33h11.835a.3.3 0 0 1 .33.33v2.594a.309.309 0 0 1 -.33.33h-8.723v4.245h7.875a.334.334 0 0 1 .353.353v2.523a.329.329 0 0 1 -.353.33h-7.875v4.785h9.03a.316.316 0 0 1 .33.353v2.57a.3.3 0 0 1 -.33.33h-12.142a.3.3 0 0 1 -.33-.33" fill="#fff" transform="translate(87.948 11.707)"/><path d="m128.75 35.551v-18.083a.3.3 0 0 1 .33-.33h11.835a.3.3 0 0 1 .33.33v2.594a.309.309 0 0 1 -.33.33h-8.723v4.245h7.875a.334.334 0 0 1 .353.353v2.523a.329.329 0 0 1 -.353.33h-7.875v4.785h9.03a.316.316 0 0 1 .33.353v2.57a.3.3 0 0 1 -.33.33h-12.142a.3.3 0 0 1 -.33-.33z" fill="none" stroke="#1a1311" stroke-miterlimit="10" stroke-width=".35" transform="translate(87.948 11.707)"/><path d="m139.2 35.551v-18.083a.3.3 0 0 1 .33-.33h6.436c4.479 0 6.505 2.05 6.505 4.834a4.18 4.18 0 0 1 -2.592 4.078 4.415 4.415 0 0 1 3.536 4.48c0 3.275-2.146 5.351-7.214 5.351h-6.672a.3.3 0 0 1 -.33-.33m9.737-13.014c0-1.414-1.133-2.168-3.112-2.168h-3.183v4.337h3.183c1.979 0 3.112-.756 3.112-2.17m.9 7.685c0-1.555-1.227-2.405-3.513-2.405h-3.678v4.857h3.678c2.286 0 3.513-.874 3.513-2.452" fill="#fff" transform="translate(95.083 11.707)"/><path d="m139.2 35.551v-18.083a.3.3 0 0 1 .33-.33h6.436c4.479 0 6.505 2.05 6.505 4.834a4.18 4.18 0 0 1 -2.592 4.078 4.415 4.415 0 0 1 3.536 4.48c0 3.275-2.146 5.351-7.214 5.351h-6.672a.3.3 0 0 1 -.329-.33zm9.737-13.014c0-1.414-1.133-2.168-3.112-2.168h-3.183v4.337h3.183c1.975.001 3.107-.755 3.107-2.169zm.9 7.685c0-1.555-1.227-2.405-3.513-2.405h-3.678v4.857h3.678c2.276.001 3.503-.874 3.503-2.452z" fill="none" stroke="#1a1311" stroke-miterlimit="10" stroke-width=".35" transform="translate(95.083 11.707)"/><path d="m150.563 28.243v-10.773a.31.31 0 0 1 .33-.332h2.782a.3.3 0 0 1 .33.332v10.16c0 3.678 1.791 5.234 4.15 5.234 2.309 0 4.149-1.557 4.149-5.234v-10.16a.31.31 0 0 1 .33-.332h2.806a.31.31 0 0 1 .33.332v10.773c0 5.965-3.938 7.993-7.614 7.993s-7.592-2.028-7.592-7.993" fill="#fff" transform="translate(102.848 11.707)"/><path d="m150.563 28.243v-10.773a.31.31 0 0 1 .33-.332h2.782a.3.3 0 0 1 .33.332v10.16c0 3.678 1.791 5.234 4.15 5.234 2.309 0 4.149-1.557 4.149-5.234v-10.16a.31.31 0 0 1 .33-.332h2.806a.31.31 0 0 1 .33.332v10.773c0 5.965-3.938 7.993-7.614 7.993s-7.593-2.028-7.593-7.993z" fill="none" stroke="#1a1311" stroke-miterlimit="10" stroke-width=".35" transform="translate(102.848 11.707)"/><path d="m168.33 35.551v-15.16h-5.8a.3.3 0 0 1 -.306-.33v-2.593a.292.292 0 0 1 .306-.33h15.018a.3.3 0 0 1 .33.33v2.594a.308.308 0 0 1 -.33.33h-5.748v15.16a.317.317 0 0 1 -.355.33h-2.785a.309.309 0 0 1 -.33-.33" fill="#fff" transform="translate(110.813 11.707)"/><path d="m168.33 35.551v-15.16h-5.8a.3.3 0 0 1 -.306-.33v-2.593a.292.292 0 0 1 .306-.33h15.018a.3.3 0 0 1 .33.33v2.594a.308.308 0 0 1 -.33.33h-5.748v15.16a.317.317 0 0 1 -.355.33h-2.785a.309.309 0 0 1 -.33-.331z" fill="none" stroke="#1a1311" stroke-miterlimit="10" stroke-width=".35" transform="translate(110.813 11.707)"/><g fill="#1a1311"><path d="m66.063 6.571a4.206 4.206 0 0 1 .172 2.05 3.559 3.559 0 0 1 -.86 1.784c-.076.088-.13.14-.219.1a1.512 1.512 0 0 0 -.493-.091 3.236 3.236 0 0 0 1-1.8 3.742 3.742 0 0 0 -.182-1.85q-.775.255-1.547.523c-.375.131-.761.293-1.074.428-.076.037-.1.012-.141-.069a3.442 3.442 0 0 1 -.192-.4c.449-.128.828-.256 1.256-.4q1.644-.571 3.3-1.091c.527-.165.916-.291 1.383-.465.069-.02.093.005.12.091l.091.3c.02.072 0 .1-.072.123-.448.12-.884.237-1.375.39-.392.123-.781.249-1.171.375m-1.753-1.169c-.333.114-.717.254-1.084.406-.077.034-.1.012-.135-.057-.056-.108-.128-.266-.182-.4.461-.131.905-.276 1.254-.394.448-.151.9-.3 1.352-.448.411-.133.9-.289 1.3-.438.071-.03.094-.007.116.066a2.249 2.249 0 0 1 .089.288c.027.086.015.1-.062.13-.422.116-.9.268-1.3.4-.451.146-.9.3-1.35.448m2.767-2.117c.02-.022.045-.022.084-.01a3.712 3.712 0 0 1 1.05.714.058.058 0 0 1 0 .086l-.2.222a.065.065 0 0 1 -.1.008 3.753 3.753 0 0 0 -1.084-.754c.086-.088.167-.177.251-.266m.582-.594a.067.067 0 0 1 .088-.025 3.553 3.553 0 0 1 1.045.687c.037.029.022.049-.008.089l-.18.226c-.03.039-.054.039-.089 0a3.734 3.734 0 0 0 -1.072-.741l.217-.239" transform="translate(42.715 1.816)"/><path d="m69.291 5.275a17.326 17.326 0 0 0 2.067-1.315 2.07 2.07 0 0 0 .642-.66 3.167 3.167 0 0 1 .545.3c.079.066.077.167-.02.2a4.625 4.625 0 0 0 -.653.434 25.384 25.384 0 0 1 -2.456 1.53c.106.417.214.836.321 1.254.1.387.237.483.539.468a6.3 6.3 0 0 0 1.153-.2 13.623 13.623 0 0 0 1.887-.611c.079-.032.1-.015.123.05.042.114.086.251.116.343s-.01.1-.1.131a15.483 15.483 0 0 1 -2.013.6 5.669 5.669 0 0 1 -1.365.2c-.433-.007-.693-.232-.828-.751q-.356-1.353-.709-2.706a6.137 6.137 0 0 0 -.411-1.269 4.468 4.468 0 0 1 .672-.066c.126 0 .118.1.1.192a2.359 2.359 0 0 0 .138.9c.082.323.167.645.249.968m2.817-3.007c.035-.032.051-.035.088-.02a3.63 3.63 0 0 1 1.086.693.055.055 0 0 1 0 .084c-.064.074-.126.15-.19.226a.068.068 0 0 1 -.106.008 3.2 3.2 0 0 0 -1.121-.736c.081-.086.16-.172.241-.256m.559-.633c.027-.029.049-.042.086-.027a4.305 4.305 0 0 1 1.087.668c.03.032.029.054-.007.093-.059.074-.118.148-.175.222-.024.035-.056.042-.1 0a3.635 3.635 0 0 0 -1.107-.72c.071-.079.141-.16.214-.239" transform="translate(46.541 1.09)"/><path d="m77.6 4.8c.337-.05.643-.1.973-.146.091-.02.114-.01.135.079s.025.178.037.269-.008.1-.093.111c-.362.042-.675.081-1.033.135q-1.333.2-2.661.428c-.306.052-.643.119-.968.209-.081.024-.1 0-.126-.091a2.052 2.052 0 0 1 -.1-.379c.433-.049.746-.1 1.1-.167q.911-.157 1.828-.3-.015-1.05-.027-2.1-.659.1-1.318.21c-.295.049-.653.116-.907.177-.077.02-.111.012-.131-.069s-.081-.269-.109-.4c.443-.039.771-.088 1.1-.143.38-.062.761-.125 1.143-.183a.545.545 0 0 0 .3-.106.146.146 0 0 1 .165-.019 1.332 1.332 0 0 1 .332.226c.064.066.066.119.012.18s-.077.133-.067.3q-.005.924-.007 1.85c.141-.022.281-.044.422-.064" transform="translate(50.383 1.566)"/><path d="m79.918 2.729a6.211 6.211 0 0 0 -1.047.182.127.127 0 0 1 -.145-.091 4.44 4.44 0 0 1 -.14-.56 17.285 17.285 0 0 0 1.744-.106q1.2-.111 2.412-.2c.544-.039 1.126-.082 1.723-.13.093-.013.119 0 .123.081a3.7 3.7 0 0 1 .022.392c.005.082-.019.1-.113.1-.589.019-1.17.054-1.693.091q-1.444.1-2.887.241" transform="translate(53.682 1.247)"/><path d="m86.561 3.3a17.926 17.926 0 0 1 -1.806 0c-.066 0-.081-.02-.089-.088a2.585 2.585 0 0 1 -.03-.382 14.07 14.07 0 0 0 1.907.029c0-.369-.01-.761-.01-1.121a18.618 18.618 0 0 1 -2.111-.01c-.049-.007-.064-.022-.076-.074a2.692 2.692 0 0 1 -.04-.39 16.494 16.494 0 0 0 2.225.03c0-.308-.012-.518-.012-.8a1.68 1.68 0 0 0 -.074-.5 3.561 3.561 0 0 1 .638.1.116.116 0 0 1 .072.175.661.661 0 0 0 -.1.345c-.015.241-.015.407-.025.661.729-.052 1.385-.141 1.956-.231.064-.013.079 0 .088.056a2.382 2.382 0 0 1 .017.332c0 .059-.034.074-.057.072-.624.088-1.271.157-2 .2 0 .37 0 .761.008 1.114a15.569 15.569 0 0 0 1.747-.2c.057-.013.076 0 .086.039 0 .091.005.234 0 .362 0 .045-.025.067-.079.072a16.788 16.788 0 0 1 -1.74.19c0 .466.022.858.052 1.309a5.961 5.961 0 0 1 2.055.991.1.1 0 0 1 .029.13.975.975 0 0 1 -.2.32c-.039.044-.067.05-.114.02a5.439 5.439 0 0 0 -1.747-.973c0 .845-.444 1.171-1.372 1.18-.894.01-1.362-.315-1.375-.87-.012-.49.508-.932 1.409-.943a4.814 4.814 0 0 1 .818.056c-.025-.429-.042-.761-.05-1.2m-.761 1.558c-.651.007-.971.217-.966.488.005.316.31.459.868.453a1.073 1.073 0 0 0 .783-.239.858.858 0 0 0 .138-.611 3.76 3.76 0 0 0 -.823-.091" transform="translate(57.588 .001)"/><path d="m93.518 1.225c-1.212.077-2.257.165-3.269.3a1.851 1.851 0 0 0 -.485.1.459.459 0 0 1 -.153.045.138.138 0 0 1 -.111-.07 4.44 4.44 0 0 1 -.2-.544 7.279 7.279 0 0 0 .995-.037c1.205-.112 2.845-.228 5.014-.262.081 0 .12.027.13.074a1.91 1.91 0 0 1 .012.379c-.007.067-.032.079-.114.079a3.4 3.4 0 0 0 -1.183.113 2.778 2.778 0 0 0 -2.229 2.198c-.089 1.245 1 1.695 2.112 1.892.1.015.12.032.114.093a2.194 2.194 0 0 1 -.081.355c-.024.081-.049.109-.133.094-1.277-.236-2.632-.87-2.535-2.387a2.9 2.9 0 0 1 2.122-2.4l-.007-.015m.872 1.145a.069.069 0 0 1 .079.013 3.625 3.625 0 0 1 .8.995.052.052 0 0 1 -.024.081l-.244.147a.062.062 0 0 1 -.1-.024 3.246 3.246 0 0 0 -.818-1.047l.31-.173m.7-.424c.037-.02.061-.024.089 0a4.323 4.323 0 0 1 .808.971c.017.04.01.062-.034.088l-.232.157c-.034.025-.066.022-.093-.025a3.493 3.493 0 0 0 -.81-1.027l.271-.163" transform="translate(61.006 .518)"/><path d="m98.349 1.8a8.485 8.485 0 0 1 -1.533 3.09 1.31 1.31 0 0 1 -1.242.6c-.574-.081-1.038-.762-.9-1.845a2.638 2.638 0 0 1 1.17-1.811 3.46 3.46 0 0 1 2.5-.471c1.786.284 2.659 1.459 2.4 2.868-.226 1.21-1.178 2.026-2.892 2.166a.156.156 0 0 1 -.185-.113.836.836 0 0 0 -.252-.323c1.552-.05 2.57-.68 2.8-1.919a1.922 1.922 0 0 0 -1.7-2.22zm-2.2.4a2.265 2.265 0 0 0 -.976 1.5c-.108.813.19 1.21.468 1.249s.515-.094.8-.441a8.045 8.045 0 0 0 1.349-2.768 2.681 2.681 0 0 0 -1.643.456" transform="translate(64.653 .893)"/><path d="m100.384 3.257c.066-.047.081-.035.125 0a5.423 5.423 0 0 1 .919 1c.029.047.029.052-.059.119l-.2.157c-.081.067-.1.071-.135.017a5.027 5.027 0 0 0 -.88-1.025c-.04-.039-.03-.05.04-.114l.185-.146m-.232 4.22a1.7 1.7 0 0 0 -.226.284c-.027.047-.056.064-.093.056a.191.191 0 0 1 -.094-.066 3.7 3.7 0 0 1 -.286-.328 3.188 3.188 0 0 0 .552-.501c.256-.3.655-.808 1.118-1.476.047.079.118.187.18.269.1.125.1.125.027.246-.4.56-.791 1.065-1.171 1.508m1-5.956c.069-.047.093-.049.143-.008a6.286 6.286 0 0 1 .875 1.038c.037.054.029.061-.061.125l-.192.158c-.081.067-.1.064-.13.019a6.53 6.53 0 0 0 -.874-1.081c-.047-.049-.037-.056.05-.114.062-.045.123-.091.187-.136m1.725 4.026a1.509 1.509 0 0 0 -.114.343 2.673 2.673 0 0 1 -1.835 2.166c-.069.024-.1.039-.133.032s-.054-.042-.1-.1a.9.9 0 0 0 -.234-.261 2.27 2.27 0 0 0 1.855-1.936 3.99 3.99 0 0 0 .1-.618 3.3 3.3 0 0 1 .422.136c.074.034.125.061.114.1s-.061.088-.081.138m4.327-1.453c-.015.05-.025.056-.077.04s-.3-.1-1.089-.3c-.5-.131-1.012-.259-1.516-.382a12.412 12.412 0 0 1 -.9 1.1c.773.123 1.518.234 2.151.311-.114-.194-.234-.379-.372-.577-.039-.056-.019-.066.066-.1l.21-.077c.066-.03.089-.017.125.032a7.561 7.561 0 0 1 .919 1.628c.024.061.015.066-.069.106l-.239.1c-.093.037-.125.029-.148-.032a6.188 6.188 0 0 0 -.284-.675c-1.086-.13-2.282-.3-3.415-.47a.867.867 0 0 0 -.347-.01.254.254 0 0 1 -.108.008c-.032-.008-.047-.044-.059-.1a3.985 3.985 0 0 1 -.005-.449 7.312 7.312 0 0 0 .778.17l.293.054a10.486 10.486 0 0 0 .894-1.141l-.438-.1c-.793-.187-1.054-.229-1.1-.239s-.061-.024-.047-.074c.022-.1.044-.2.067-.3.012-.052.018-.057.074-.045s.306.082 1.1.269c.283.067.567.135.85.205.019-.081.039-.162.059-.242a2.917 2.917 0 0 0 .106-.68c.2.057.352.111.518.177.062.024.084.059.079.089a.335.335 0 0 1 -.081.126.989.989 0 0 0 -.141.4c-.02.082-.042.165-.062.247.382.094.764.192 1.145.289.791.207 1.06.266 1.1.276.056.015.061.025.047.076l-.081.3m-3.678 2.358a5.162 5.162 0 0 0 .177-.973 4.539 4.539 0 0 1 .466.162c.054.02.086.052.074.1a.8.8 0 0 1 -.072.13 3.211 3.211 0 0 0 -.217.682c-.077.316-.157.635-.234.951-.155.635-.2.857-.207.9s-.02.056-.076.042l-.328-.081c-.052-.012-.059-.02-.047-.072s.081-.259.236-.9c.076-.313.153-.628.229-.943m1.439 1.882c-.032.125-.03.172.022.226a.706.706 0 0 0 .279.118c.2.054.338.061.433-.024.113-.1.187-.279.328-.746a.972.972 0 0 0 .219.207c.108.076.113.093.069.22-.153.449-.276.628-.419.714a.955.955 0 0 1 -.769.012 1.282 1.282 0 0 1 -.527-.215c-.111-.089-.165-.22-.1-.49q.225-.884.451-1.764a4.3 4.3 0 0 0 .16-.815 4.678 4.678 0 0 1 .458.157c.067.027.089.064.082.091a.356.356 0 0 1 -.082.135c-.051.066-.071.114-.2.587-.136.528-.274 1.059-.412 1.587" transform="translate(67.935 1.014)"/><path d="m108.405 3.4c.076.057.1.1.088.155a.219.219 0 0 1 -.069.081.607.607 0 0 0 -.148.261c-.136.32-.234.581-.365.941a1.222 1.222 0 0 1 .215.252c.037.049.029.094-.035.145a6.607 6.607 0 0 0 -.5.451c-.034.091-.062.17-.1.268a10.052 10.052 0 0 1 1.129-.564 2.263 2.263 0 0 1 1.591-.261.815.815 0 0 1 .515 1.168c-.108.313-.293.776-.522 1.3s-.4.914-.478 1.148c-.153.448-.064.6.178.683a.964.964 0 0 0 .709-.056 2.23 2.23 0 0 0 .692-.513.951.951 0 0 0 .04.422c.029.089.024.145-.081.227a1.62 1.62 0 0 1 -1.553.362c-.522-.182-.72-.549-.5-1.212.108-.321.269-.72.473-1.2.21-.5.358-.855.476-1.2.133-.392.1-.65-.145-.732a1.8 1.8 0 0 0 -1.192.192 15.47 15.47 0 0 0 -1.51.766c-.234.749-.513 1.708-.82 2.717-.015.044-.035.061-.1.049s-.241-.059-.357-.1c-.039-.012-.056-.039-.035-.1.327-1.057.549-1.806.761-2.41-.515.375-1.025.779-1.58 1.227-.062.05-.089.052-.138 0a1.637 1.637 0 0 1 -.2-.328c-.032-.049 0-.086.054-.125.83-.579 1.456-1.033 2.107-1.55.093-.246.153-.441.217-.618a10.618 10.618 0 0 0 -1.151.02c-.093 0-.182.047-.227.034a.151.151 0 0 1 -.094-.106 1.922 1.922 0 0 1 -.1-.485 3.374 3.374 0 0 0 .56.089c.3.01.655.022 1.168.024.111-.328.215-.643.323-.964a3.291 3.291 0 0 0 .165-.727 2.646 2.646 0 0 1 .534.268" transform="translate(71.613 2.142)"/></g></g></svg>