<svg height="49.815" viewBox="0 0 240.935 49.815" width="240.935" xmlns="http://www.w3.org/2000/svg" xmlns:xlink="http://www.w3.org/1999/xlink"><clipPath id="a"><path d="m0 0h240.935v49.815h-240.935z"/></clipPath><g clip-path="url(#a)" fill="#1a1311"><path d="m.413 6.857a.093.093 0 0 1 -.1-.1v-6.593c0-.062.035-.1.1-.1h.62a.1.1 0 0 1 .107.07l2.669 4.49 2.641-4.487a.113.113 0 0 1 .115-.07h.595c.07 0 .1.035.1.1v6.585a.091.091 0 0 1 -.1.1h-.55a.094.094 0 0 1 -.1-.1v-5.352l-2.421 4.1a.116.116 0 0 1 -.1.06h-.4a.114.114 0 0 1 -.1-.06l-2.429-4.1v5.352c0 .07-.035.1-.1.1z" transform="translate(.291 .063)"/><path d="m7.862 6.857c-.062 0-.1-.035-.1-.1v-2.567l-2.5-4c-.042-.063-.018-.123.061-.123h.665a.107.107 0 0 1 .112.07l2.058 3.363 2.048-3.363c.017-.052.052-.07.115-.07h.647a.078.078 0 0 1 .07.122l-2.501 3.981v2.582a.1.1 0 0 1 -.1.1z" transform="translate(4.947 .063)"/><path d="m11.588 5.58a.087.087 0 0 1 .068-.122l.544-.158c.062-.017.1.008.115.078a1.1 1.1 0 0 0 1.087.849c.943 0 1.153-.647 1.153-1.637v-3.79h-1.97a.1.1 0 0 1 -.1-.1v-.536a.091.091 0 0 1 .1-.1h2.642a.09.09 0 0 1 .1.1v4.566c0 1.534-.639 2.259-1.924 2.259a1.768 1.768 0 0 1 -1.815-1.409" transform="translate(10.931 .063)"/><path d="m14.974 3.526a3.3 3.3 0 1 1 6.587 0 3.3 3.3 0 1 1 -6.587 0m5.792 0a2.507 2.507 0 1 0 -4.988 0 2.507 2.507 0 1 0 4.988 0" transform="translate(14.132)"/><path d="m19.833 4.092v-3.929a.088.088 0 0 1 .1-.1h.577a.086.086 0 0 1 .1.1v3.816c0 1.592.814 2.249 1.849 2.249 1.013 0 1.845-.657 1.845-2.249v-3.816c0-.06.035-.1.107-.1h.568c.07 0 .1.035.1.1v3.929a2.549 2.549 0 0 1 -2.622 2.9c-1.287 0-2.618-.744-2.618-2.9" transform="translate(18.718 .064)"/><path d="m24.258 6.857c-.07 0-.1-.033-.1-.1v-6.593a.09.09 0 0 1 .1-.1h1.969c1.786 0 2.548.832 2.548 2.224a2 2 0 0 1 -1.217 1.994l1.417 2.449c.035.07.008.122-.07.122h-.667a.116.116 0 0 1 -.1-.06l-1.332-2.316a3.015 3.015 0 0 1 -.579.043h-1.294v2.232a.092.092 0 0 1 -.1.1zm.675-6.063v3h1.252c1.25 0 1.784-.517 1.784-1.5s-.535-1.5-1.784-1.5z" transform="translate(22.797 .063)"/><path d="m28.232 6.857a.093.093 0 0 1 -.1-.1v-6.593c0-.062.035-.1.1-.1h.62a.12.12 0 0 1 .115.07l3.668 5.47v-5.44c0-.062.033-.1.1-.1h.552a.091.091 0 0 1 .1.1v6.588a.094.094 0 0 1 -.1.1h-.622a.15.15 0 0 1 -.12-.06l-3.666-5.492v5.45c0 .07-.035.1-.1.1z" transform="translate(26.545 .063)"/><path d="m32.6 6.857a.093.093 0 0 1 -.1-.1v-6.593c0-.062.035-.1.1-.1h4.09a.093.093 0 0 1 .1.1v.536a.1.1 0 0 1 -.1.1h-3.414v2.181h3.114a.093.093 0 0 1 .1.1v.529a.1.1 0 0 1 -.1.1h-3.114v2.412h3.524a.091.091 0 0 1 .087.1v.531c0 .07-.035.1-.087.1z" transform="translate(30.67 .063)"/><path d="m38.49 6.857c-.062 0-.1-.035-.1-.1v-2.567l-2.5-4c-.043-.062-.019-.122.06-.122h.665a.107.107 0 0 1 .115.07l2.056 3.362 2.048-3.363c.017-.052.052-.07.115-.07h.651a.078.078 0 0 1 .07.122l-2.5 3.981v2.582a.1.1 0 0 1 -.1.1z" transform="translate(33.853 .063)"/><path d="m42.357 6.857c-.07 0-.1-.043-.07-.115l2.686-6.6a.12.12 0 0 1 .127-.075h.542a.1.1 0 0 1 .115.08l2.7 6.6c.027.072-.008.115-.078.115h-.669a.11.11 0 0 1 -.111-.07l-.639-1.632h-3.2l-.638 1.627a.132.132 0 0 1 -.122.07zm4.331-2.424-1.337-3.4-1.322 3.4z" transform="translate(39.896 .063)"/><path d="m46.58 5.268a.088.088 0 0 1 .07-.122l.55-.14c.054-.019.1 0 .124.068a1.571 1.571 0 0 0 1.662 1.216c.875 0 1.462-.385 1.462-1.092 0-.727-.525-1.059-1.392-1.357l-.515-.175c-1.129-.385-1.786-.98-1.786-1.882a1.919 1.919 0 0 1 2.134-1.784 2.119 2.119 0 0 1 2.224 1.627c.017.07-.01.115-.06.122l-.587.15a.085.085 0 0 1 -.115-.062 1.387 1.387 0 0 0 -1.462-1.075c-.787 0-1.337.412-1.337 1 0 .544.445.929 1.392 1.234l.453.148c1.254.412 1.847.972 1.847 2.049 0 1.092-.927 1.854-2.257 1.854a2.325 2.325 0 0 1 -2.407-1.779" transform="translate(43.956)"/><path d="m52.563 6.857c-.07 0-.1-.043-.07-.115l2.686-6.6a.12.12 0 0 1 .121-.075h.542a.1.1 0 0 1 .115.08l2.7 6.6c.027.072-.008.115-.078.115h-.667a.11.11 0 0 1 -.111-.07l-.635-1.632h-3.2l-.637 1.627a.132.132 0 0 1 -.122.07zm4.331-2.424-1.337-3.4-1.322 3.4z" transform="translate(49.528 .063)"/><path d="m59.486 6.857a.093.093 0 0 1 -.1-.1v-6.593c0-.062.035-.1.1-.1h.57c.07 0 .1.035.1.1v2.826h3.771v-2.826a.087.087 0 0 1 .1-.1h.579a.088.088 0 0 1 .1.1v6.588c0 .07-.035.1-.1.1h-.579c-.06 0-.1-.035-.1-.1v-3.027h-3.767v3.027a.093.093 0 0 1 -.1.1z" transform="translate(56.042 .063)"/><path d="m63.561 6.857c-.07 0-.1-.043-.07-.115l2.686-6.6a.12.12 0 0 1 .123-.075h.542a.1.1 0 0 1 .115.08l2.7 6.6c.027.072-.008.115-.078.115h-.667a.11.11 0 0 1 -.111-.07l-.64-1.627h-3.2l-.638 1.627a.132.132 0 0 1 -.122.07zm4.331-2.424-1.337-3.4-1.322 3.4z" transform="translate(59.908 .063)"/><path d="m68.122 6.857a.093.093 0 0 1 -.1-.1v-6.593c0-.062.035-.1.1-.1h.57c.07 0 .105.035.105.1v6.588a.093.093 0 0 1 -.105.1z" transform="translate(64.193 .063)"/><path d="m70.186 6.857c-.07 0-.1-.033-.1-.1v-6.593a.09.09 0 0 1 .1-.1h1.969c1.786.003 2.545.836 2.545 2.227a2 2 0 0 1 -1.217 1.994l1.417 2.449c.035.07.008.122-.07.122h-.667a.116.116 0 0 1 -.1-.06l-1.329-2.319a3.015 3.015 0 0 1 -.579.043h-1.295v2.232a.092.092 0 0 1 -.1.1zm.674-6.063v3h1.252c1.25 0 1.784-.517 1.784-1.5s-.535-1.5-1.784-1.5z" transform="translate(66.142 .063)"/><path d="m73.825 5.268a.088.088 0 0 1 .07-.122l.55-.14c.054-.019.1 0 .124.068a1.571 1.571 0 0 0 1.662 1.216c.875 0 1.462-.385 1.462-1.092 0-.727-.525-1.059-1.392-1.357l-.515-.175c-1.13-.385-1.786-.98-1.786-1.882a1.919 1.919 0 0 1 2.134-1.784 2.119 2.119 0 0 1 2.224 1.627c.018.07-.01.115-.06.122l-.587.15a.085.085 0 0 1 -.115-.062 1.387 1.387 0 0 0 -1.462-1.075c-.787 0-1.337.412-1.337 1 0 .544.445.929 1.392 1.234l.453.148c1.254.412 1.847.972 1.847 2.049 0 1.092-.927 1.854-2.257 1.854a2.325 2.325 0 0 1 -2.406-1.784" transform="translate(69.669)"/><path d="m79.818 6.857a.093.093 0 0 1 -.105-.1v-5.957h-2.232c-.06 0-.088-.045-.088-.1v-.536c0-.062.027-.1.088-.1h5.24a.087.087 0 0 1 .089.1v.536a.1.1 0 0 1 -.089.1h-2.229v5.95a.093.093 0 0 1 -.1.1z" transform="translate(73.042 .063)"/><path d="m83.888 6.857a.092.092 0 0 1 -.1-.1v-2.567l-2.5-4c-.043-.062-.02-.122.06-.122h.665a.109.109 0 0 1 .115.07l2.055 3.362 2.049-3.363c.015-.052.052-.07.115-.07h.647a.078.078 0 0 1 .07.122l-2.5 3.981v2.582a.1.1 0 0 1 -.1.1z" transform="translate(76.699 .063)"/><path d="m85.716 6.857a.093.093 0 0 1 -.105-.1v-6.593c0-.062.035-.1.105-.1h.569c.07 0 .1.035.1.1v5.948h3.553a.092.092 0 0 1 .1.1v.542c0 .07-.035.1-.1.1z" transform="translate(80.797 .063)"/><path d="m89.384 6.857a.093.093 0 0 1 -.1-.1v-6.593c0-.062.035-.1.1-.1h.57c.07 0 .1.035.1.1v6.588a.093.093 0 0 1 -.1.1z" transform="translate(84.259 .063)"/><path d="m91.114 5.268a.088.088 0 0 1 .07-.122l.55-.14c.054-.019.1 0 .124.068a1.571 1.571 0 0 0 1.662 1.216c.875 0 1.462-.385 1.462-1.092 0-.727-.525-1.059-1.392-1.357l-.515-.175c-1.129-.385-1.786-.98-1.786-1.882a1.919 1.919 0 0 1 2.134-1.784 2.119 2.119 0 0 1 2.224 1.627c.017.07-.01.115-.06.122l-.587.151a.085.085 0 0 1 -.115-.062 1.387 1.387 0 0 0 -1.462-1.076c-.787 0-1.337.412-1.337 1 0 .544.445.929 1.392 1.234l.453.148c1.254.412 1.847.972 1.847 2.049 0 1.092-.927 1.854-2.257 1.854a2.325 2.325 0 0 1 -2.406-1.784" transform="translate(85.985)"/><path d="m97.107 6.857a.093.093 0 0 1 -.1-.1v-5.957h-2.237c-.06 0-.087-.045-.087-.1v-.536c0-.062.027-.1.087-.1h5.24a.087.087 0 0 1 .089.1v.536a.1.1 0 0 1 -.089.1h-2.23v5.95a.093.093 0 0 1 -.1.1z" transform="translate(89.359 .063)"/><path d="m101.33 6.857c-.07 0-.1-.033-.1-.1v-6.593a.09.09 0 0 1 .1-.1h2.206c1.549 0 2.239.754 2.239 1.724a1.493 1.493 0 0 1 -1.024 1.514 1.586 1.586 0 0 1 1.349 1.657c0 1.12-.717 1.9-2.439 1.9zm.67-6.063v2.2h1.539c1.007 0 1.444-.412 1.444-1.1 0-.673-.49-1.092-1.495-1.092zm0 2.914v2.414h1.654c1.12 0 1.644-.437 1.644-1.217s-.525-1.2-1.644-1.2z" transform="translate(95.535 .063)"/><path d="m105.333 6.857a.092.092 0 0 1 -.1-.1v-6.593c0-.062.033-.1.1-.1h4.086a.094.094 0 0 1 .105.1v.536a.1.1 0 0 1 -.105.1h-3.411v2.181h3.112a.094.094 0 0 1 .1.1v.529a.1.1 0 0 1 -.1.1h-3.112v2.412h3.526a.091.091 0 0 1 .087.1v.531c0 .07-.035.1-.087.1z" transform="translate(99.311 .063)"/><path d="m108.755 3.526a3.222 3.222 0 0 1 3.264-3.526 2.825 2.825 0 0 1 2.818 1.784.088.088 0 0 1 -.062.13l-.568.167a.108.108 0 0 1 -.124-.054 2.079 2.079 0 0 0 -2.055-1.267 2.458 2.458 0 0 0 -2.469 2.766 2.458 2.458 0 0 0 2.469 2.764 2.06 2.06 0 0 0 2.249-2.179h-2.077a.093.093 0 0 1 -.1-.1v-.522a.09.09 0 0 1 .1-.1h2.75a.091.091 0 0 1 .1.1v.57a2.814 2.814 0 0 1 -3.044 2.991 3.2 3.2 0 0 1 -3.256-3.524" transform="translate(102.64)"/><path d="m113.613 6.857a.093.093 0 0 1 -.1-.1v-6.593c0-.062.035-.1.1-.1h.57c.07 0 .1.035.1.1v6.588a.093.093 0 0 1 -.1.1z" transform="translate(107.126 .063)"/><path d="m115.678 6.857a.093.093 0 0 1 -.1-.1v-6.593c0-.062.035-.1.1-.1h.62a.12.12 0 0 1 .115.07l3.668 5.47v-5.44c0-.062.033-.1.1-.1h.552a.091.091 0 0 1 .1.1v6.588a.094.094 0 0 1 -.1.1h-.622a.152.152 0 0 1 -.12-.06l-3.668-5.5v5.45c0 .07-.035.1-.1.1z" transform="translate(109.074 .063)"/><path d="m119.712 5.268a.088.088 0 0 1 .07-.122l.55-.14c.054-.019.1 0 .124.068a1.571 1.571 0 0 0 1.662 1.217c.875 0 1.462-.385 1.462-1.092 0-.727-.525-1.059-1.392-1.357l-.515-.175c-1.129-.385-1.786-.98-1.786-1.882a1.919 1.919 0 0 1 2.134-1.785 2.119 2.119 0 0 1 2.224 1.627c.018.07-.01.115-.06.122l-.587.15a.084.084 0 0 1 -.115-.062 1.387 1.387 0 0 0 -1.462-1.075c-.787 0-1.337.412-1.337 1 0 .544.445.929 1.392 1.234l.453.148c1.254.412 1.847.972 1.847 2.049 0 1.092-.927 1.854-2.257 1.854a2.325 2.325 0 0 1 -2.406-1.784" transform="translate(112.975)"/><path d="m123.4 3.592a.538.538 0 1 1 .542.533.527.527 0 0 1 -.542-.533" transform="translate(116.46 2.893)"/><path d="m2.462 17.857a.093.093 0 0 1 -.107-.1v-5.957h-2.228c-.064 0-.089-.045-.089-.107v-.533c0-.062.025-.1.089-.1h5.239a.087.087 0 0 1 .089.1v.54a.1.1 0 0 1 -.089.107h-2.23v5.948a.094.094 0 0 1 -.107.1z" transform="translate(.036 10.445)"/><path d="m4.065 14.526a3.239 3.239 0 0 1 3.299-3.526 3.227 3.227 0 0 1 3.289 3.526 3.229 3.229 0 0 1 -3.289 3.524 3.241 3.241 0 0 1 -3.3-3.524m5.792 0a2.507 2.507 0 1 0 -4.988 0 2.507 2.507 0 1 0 4.988 0" transform="translate(3.836 10.382)"/><path d="m9.068 17.857c-.07 0-.1-.033-.1-.1v-6.593a.088.088 0 0 1 .1-.1h1.971c1.742 0 2.548.847 2.548 2.249 0 1.419-.8 2.249-2.548 2.249h-1.3v2.187c0 .072-.033.1-.1.1zm.674-6.063v3.044h1.252c1.227 0 1.786-.505 1.786-1.539 0-.987-.56-1.5-1.786-1.5z" transform="translate(8.463 10.445)"/><path d="m12.9 17.857a.093.093 0 0 1 -.1-.1v-6.593c0-.062.035-.1.1-.1h.57c.07 0 .1.035.1.1v2.826h3.78v-2.826a.088.088 0 0 1 .1-.1h.579a.088.088 0 0 1 .1.1v6.587c0 .07-.035.1-.1.1h-.579c-.06 0-.1-.035-.1-.1v-3.026h-3.771v3.026a.093.093 0 0 1 -.1.1z" transform="translate(12.08 10.445)"/><path d="m16.981 17.857c-.07 0-.105-.043-.07-.115l2.686-6.6a.122.122 0 0 1 .122-.08h.542a.107.107 0 0 1 .115.08l2.7 6.6c.027.072-.008.115-.078.115h-.667a.11.11 0 0 1 -.111-.07l-.639-1.627h-3.2l-.638 1.627a.132.132 0 0 1 -.122.07zm4.331-2.424-1.337-3.4-1.322 3.4z" transform="translate(15.947 10.445)"/><path d="m21.542 17.857a.094.094 0 0 1 -.107-.1v-6.593c0-.062.037-.1.107-.1h.568c.072 0 .107.035.107.1v6.587a.093.093 0 0 1 -.107.1z" transform="translate(20.23 10.445)"/><path d="m23.606 17.857c-.07 0-.1-.033-.1-.1v-6.593a.09.09 0 0 1 .1-.1h1.969c1.786 0 2.548.832 2.548 2.224a2 2 0 0 1 -1.217 1.994l1.417 2.451c.035.07.008.121-.07.121h-.667a.116.116 0 0 1 -.1-.06l-1.328-2.319a3.008 3.008 0 0 1 -.579.045h-1.298v2.23a.092.092 0 0 1 -.1.1zm.674-6.063v3h1.252c1.25 0 1.784-.517 1.784-1.5s-.535-1.5-1.784-1.5z" transform="translate(22.182 10.445)"/><path d="m29.943 17.857a.093.093 0 0 1 -.1-.1v-6.593c0-.062.035-.1.1-.1h.57c.07 0 .1.035.1.1v6.587a.093.093 0 0 1 -.1.1z" transform="translate(28.16 10.445)"/><path d="m31.672 16.268a.086.086 0 0 1 .07-.121l.55-.142c.054-.017.1 0 .124.07a1.571 1.571 0 0 0 1.662 1.215c.875 0 1.462-.383 1.462-1.092 0-.725-.525-1.059-1.392-1.355l-.515-.175c-1.129-.385-1.786-.982-1.786-1.882a1.919 1.919 0 0 1 2.134-1.786 2.118 2.118 0 0 1 2.219 1.629c.018.068-.01.113-.06.121l-.587.15a.084.084 0 0 1 -.115-.062 1.387 1.387 0 0 0 -1.462-1.075c-.787 0-1.337.412-1.337 1 0 .544.445.929 1.392 1.234l.453.15c1.254.41 1.847.97 1.847 2.047 0 1.092-.927 1.854-2.257 1.854a2.325 2.325 0 0 1 -2.406-1.784" transform="translate(29.886 10.382)"/><path d="m40.029 17.857a.093.093 0 0 1 -.1-.1v-5.957h-2.237c-.06 0-.087-.045-.087-.107v-.533c0-.062.027-.1.087-.1h5.24a.087.087 0 0 1 .089.1v.54a.1.1 0 0 1 -.089.107h-2.232v5.948a.093.093 0 0 1 -.1.1z" transform="translate(35.491 10.445)"/><path d="m41.89 17.857a.093.093 0 0 1 -.1-.1v-6.593c0-.062.035-.1.1-.1h.57c.07 0 .1.035.1.1v2.826h3.771v-2.826a.088.088 0 0 1 .1-.1h.579a.088.088 0 0 1 .1.1v6.587c0 .07-.035.1-.1.1h-.579c-.06 0-.1-.035-.1-.1v-3.026h-3.767v3.026a.093.093 0 0 1 -.1.1z" transform="translate(39.435 10.445)"/><path d="m46.292 17.857a.093.093 0 0 1 -.1-.1v-6.593c0-.062.035-.1.1-.1h4.088a.092.092 0 0 1 .1.1v.536a.1.1 0 0 1 -.1.107h-3.414v2.177h3.114a.1.1 0 0 1 .1.107v.523a.1.1 0 0 1 -.1.1h-3.114v2.414h3.526a.091.091 0 0 1 .087.1v.533c0 .07-.035.1-.087.1z" transform="translate(43.59 10.445)"/><path d="m52.334 17.857c-.07 0-.1-.033-.1-.1v-6.593a.09.09 0 0 1 .1-.1h1.966c1.742 0 2.548.847 2.548 2.249 0 1.419-.8 2.249-2.548 2.249h-1.291v2.187a.092.092 0 0 1 -.1.1zm.675-6.063v3.044h1.251c1.225 0 1.784-.505 1.784-1.539 0-.987-.56-1.5-1.784-1.5z" transform="translate(49.294 10.445)"/><path d="m56.169 17.857a.094.094 0 0 1 -.1-.1v-6.593c0-.062.037-.1.1-.1h.57c.07 0 .1.035.1.1v5.948h3.561a.091.091 0 0 1 .1.1v.542c0 .07-.033.1-.1.1z" transform="translate(52.912 10.445)"/><path d="m59.512 17.857c-.07 0-.1-.043-.07-.115l2.686-6.6a.122.122 0 0 1 .122-.08h.542a.108.108 0 0 1 .115.08l2.7 6.6c.027.072-.008.115-.078.115h-.667a.11.11 0 0 1 -.111-.07l-.639-1.627h-3.2l-.638 1.627a.134.134 0 0 1 -.122.07zm4.331-2.424-1.337-3.4-1.322 3.4z" transform="translate(56.086 10.445)"/><path d="m63.814 14.526a3.192 3.192 0 0 1 3.229-3.526 2.835 2.835 0 0 1 2.826 1.784.1.1 0 0 1 -.07.132l-.56.165a.093.093 0 0 1 -.122-.052 2.1 2.1 0 0 0 -2.064-1.269c-1.567 0-2.434 1.147-2.434 2.766s.875 2.764 2.434 2.764a2.176 2.176 0 0 0 2.2-1.539.091.091 0 0 1 .122-.07l.56.167a.084.084 0 0 1 .062.1 2.912 2.912 0 0 1 -2.968 2.1c-1.932 0-3.219-1.372-3.219-3.524" transform="translate(60.226 10.382)"/><path d="m68.586 17.857a.093.093 0 0 1 -.107-.1v-6.593c0-.062.035-.1.107-.1h4.086a.093.093 0 0 1 .1.1v.536a.1.1 0 0 1 -.1.107h-3.412v2.177h3.112a.1.1 0 0 1 .1.107v.523a.1.1 0 0 1 -.1.1h-3.112v2.414h3.526a.091.091 0 0 1 .088.1v.533c0 .07-.035.1-.088.1z" transform="translate(64.629 10.445)"/><path d="m76.677 17.857a.093.093 0 0 1 -.105-.1v-5.957h-2.232c-.06 0-.087-.045-.087-.107v-.533c0-.062.027-.1.087-.1h5.24a.087.087 0 0 1 .089.1v.54a.1.1 0 0 1 -.089.107h-2.23v5.948a.093.093 0 0 1 -.1.1z" transform="translate(70.078 10.445)"/><path d="m78.54 17.857a.093.093 0 0 1 -.1-.1v-6.593c0-.062.035-.1.1-.1h.569c.07 0 .1.035.1.1v2.826h3.771v-2.826a.088.088 0 0 1 .1-.1h.579a.088.088 0 0 1 .1.1v6.587c0 .07-.035.1-.1.1h-.579c-.06 0-.1-.035-.1-.1v-3.026h-3.766v3.026a.093.093 0 0 1 -.1.1z" transform="translate(74.025 10.445)"/><path d="m82.615 17.857c-.07 0-.1-.043-.07-.115l2.686-6.6a.122.122 0 0 1 .122-.08h.547a.107.107 0 0 1 .115.08l2.7 6.6c.027.072-.008.115-.078.115h-.667a.11.11 0 0 1 -.111-.07l-.64-1.627h-3.2l-.638 1.627a.132.132 0 0 1 -.122.07zm4.331-2.424-1.337-3.4-1.322 3.4z" transform="translate(77.89 10.445)"/><path d="m89.224 17.857a.093.093 0 0 1 -.1-.1v-5.957h-2.236c-.06 0-.088-.045-.088-.107v-.533c0-.062.027-.1.088-.1h5.24a.087.087 0 0 1 .089.1v.54a.1.1 0 0 1 -.089.107h-2.228v5.948a.093.093 0 0 1 -.1.1z" transform="translate(81.919 10.445)"/><path d="m2.48 28.857a.107.107 0 0 1 -.115-.07l-2.36-6.607a.083.083 0 0 1 .086-.113h.665a.105.105 0 0 1 .115.08l1.854 5.453 1.74-5.45a.1.1 0 0 1 .107-.087h.507a.1.1 0 0 1 .1.087l1.74 5.45 1.864-5.458a.1.1 0 0 1 .107-.08h.647a.082.082 0 0 1 .087.113l-2.359 6.612a.1.1 0 0 1 -.1.07h-.547a.1.1 0 0 1 -.1-.087l-1.7-5.318-1.691 5.317a.112.112 0 0 1 -.115.087z" transform="translate(.001 20.826)"/><path d="m6.416 28.857a.093.093 0 0 1 -.1-.1v-6.593c0-.062.035-.1.1-.1h.57c.07 0 .1.035.1.1v6.587a.093.093 0 0 1 -.1.1z" transform="translate(5.956 20.826)"/><path d="m8.482 28.857a.093.093 0 0 1 -.1-.1v-6.593c0-.062.035-.1.1-.1h.57c.07 0 .1.035.1.1v5.948h3.558a.092.092 0 0 1 .1.1v.542c0 .07-.035.1-.1.1z" transform="translate(7.906 20.826)"/><path d="m12.149 28.857a.093.093 0 0 1 -.1-.1v-6.593c0-.062.035-.1.1-.1h.57c.07 0 .1.035.1.1v5.948h3.553a.092.092 0 0 1 .1.1v.542c0 .07-.035.1-.1.1z" transform="translate(11.367 20.826)"/><path d="m17.922 25.526a3.3 3.3 0 1 1 6.587 0 3.3 3.3 0 1 1 -6.587 0m5.792 0a2.507 2.507 0 1 0 -4.988 0 2.507 2.507 0 1 0 4.988 0" transform="translate(16.914 20.763)"/><path d="m22.926 28.857c-.07 0-.1-.033-.1-.1v-6.593a.09.09 0 0 1 .1-.1h1.974c1.742 0 2.548.847 2.548 2.249 0 1.419-.8 2.249-2.548 2.249h-1.3v2.187a.092.092 0 0 1 -.1.1zm.674-6.063v3.044h1.252c1.225 0 1.784-.505 1.784-1.539 0-.987-.56-1.5-1.784-1.5z" transform="translate(21.54 20.826)"/><path d="m26.761 28.857a.093.093 0 0 1 -.1-.1v-6.593c0-.062.035-.1.1-.1h4.088a.093.093 0 0 1 .1.1v.536a.1.1 0 0 1 -.1.107h-3.414v2.177h3.114a.1.1 0 0 1 .1.107v.523a.1.1 0 0 1 -.1.1h-3.114v2.414h3.526a.091.091 0 0 1 .087.1v.533c0 .07-.035.1-.087.1z" transform="translate(25.157 20.826)"/><path d="m30.443 28.857a.093.093 0 0 1 -.1-.1v-6.593c0-.062.035-.1.1-.1h.62a.123.123 0 0 1 .115.07l3.668 5.466v-5.436c0-.062.033-.1.1-.1h.554a.091.091 0 0 1 .1.1v6.587a.094.094 0 0 1 -.1.1h-.622a.15.15 0 0 1 -.121-.06l-3.667-5.491v5.45c0 .07-.035.1-.1.1z" transform="translate(28.632 20.826)"/><path d="m39.223 28.857a.093.093 0 0 1 -.1-.1v-5.957h-2.237c-.06 0-.087-.045-.087-.107v-.533c0-.062.027-.1.087-.1h5.24a.087.087 0 0 1 .089.1v.54a.1.1 0 0 1 -.089.107h-2.226v5.948a.093.093 0 0 1 -.1.1z" transform="translate(34.73 20.826)"/><path d="m41.087 28.857a.094.094 0 0 1 -.107-.1v-6.593c0-.062.037-.1.107-.1h.568c.07 0 .107.035.107.1v2.826h3.768v-2.826a.088.088 0 0 1 .1-.1h.57a.087.087 0 0 1 .1.1v6.587c0 .07-.033.1-.1.1h-.579c-.058 0-.1-.035-.1-.1v-3.026h-3.76v3.026a.094.094 0 0 1 -.107.1z" transform="translate(38.676 20.826)"/><path d="m45.486 28.857a.093.093 0 0 1 -.1-.1v-6.593c0-.062.035-.1.1-.1h4.088a.093.093 0 0 1 .1.1v.536a.1.1 0 0 1 -.1.107h-3.414v2.177h3.114a.1.1 0 0 1 .1.107v.523a.1.1 0 0 1 -.1.1h-3.114v2.414h3.526a.091.091 0 0 1 .087.1v.533c0 .07-.035.1-.087.1z" transform="translate(42.829 20.826)"/><path d="m51.53 28.857a.091.091 0 0 1 -.1-.1v-6.593a.091.091 0 0 1 .1-.1h2.022a3.077 3.077 0 0 1 3.419 3.4 3.079 3.079 0 0 1 -3.419 3.394zm.67-6.057v5.318h1.258a2.409 2.409 0 0 0 2.706-2.659 2.4 2.4 0 0 0 -2.702-2.659z" transform="translate(48.534 20.826)"/><path d="m55.642 25.526a3.3 3.3 0 1 1 6.587 0 3.3 3.3 0 1 1 -6.587 0m5.792 0a2.507 2.507 0 1 0 -4.988 0 2.507 2.507 0 1 0 4.988 0" transform="translate(52.513 20.763)"/><path d="m60.389 25.526a3.3 3.3 0 1 1 6.587 0 3.3 3.3 0 1 1 -6.587 0m5.792 0a2.507 2.507 0 1 0 -4.988 0 2.507 2.507 0 1 0 4.988 0" transform="translate(56.993 20.763)"/><path d="m65.393 28.857c-.07 0-.1-.033-.1-.1v-6.593a.09.09 0 0 1 .1-.1h1.969c1.786 0 2.548.832 2.548 2.224a2 2 0 0 1 -1.217 1.994l1.417 2.451c.035.07.008.121-.07.121h-.667a.116.116 0 0 1 -.105-.06l-1.328-2.319a3.008 3.008 0 0 1 -.579.045h-1.294v2.229a.092.092 0 0 1 -.1.1zm.674-6.063v3h1.252c1.25 0 1.784-.517 1.784-1.5s-.535-1.5-1.784-1.5z" transform="translate(61.619 20.826)"/><path d="m73.779 28.857a.093.093 0 0 1 -.105-.1v-5.957h-2.232c-.06 0-.087-.045-.087-.107v-.533c0-.062.027-.1.087-.1h5.24a.087.087 0 0 1 .089.1v.54a.1.1 0 0 1 -.089.107h-2.23v5.948a.093.093 0 0 1 -.1.1z" transform="translate(67.343 20.826)"/><path d="m75.384 25.526a3.3 3.3 0 1 1 6.587 0 3.3 3.3 0 1 1 -6.587 0m5.792 0a2.507 2.507 0 1 0 -4.988 0 2.507 2.507 0 1 0 4.988 0" transform="translate(71.145 20.763)"/><path d="m82.753 28.857a.093.093 0 0 1 -.107-.1v-6.593c0-.062.035-.1.107-.1h.62a.1.1 0 0 1 .107.07l2.669 4.49 2.642-4.49a.117.117 0 0 1 .115-.07h.594c.07 0 .1.035.1.1v6.587a.091.091 0 0 1 -.1.1h-.55a.094.094 0 0 1 -.1-.1v-5.351l-2.423 4.1a.114.114 0 0 1 -.1.06h-.393a.112.112 0 0 1 -.105-.06l-2.429-4.1v5.355c0 .07-.035.1-.1.1z" transform="translate(77.999 20.826)"/><path d="m90.2 28.857c-.062 0-.1-.035-.1-.1v-2.569l-2.5-4c-.043-.06-.019-.122.06-.122h.665a.109.109 0 0 1 .115.07l2.06 3.364 2.049-3.359c.017-.051.052-.07.115-.07h.647a.078.078 0 0 1 .07.122l-2.5 3.981v2.581a.1.1 0 0 1 -.1.1z" transform="translate(82.657 20.826)"/><path d="m94.393 28.857a.093.093 0 0 1 -.105-.1v-6.593c0-.062.035-.1.105-.1h3.956c.07 0 .105.035.105.1v.536a.1.1 0 0 1 -.105.107h-3.282v2.334h2.887a.089.089 0 0 1 .1.1v.533a.1.1 0 0 1 -.1.1h-2.887v2.879a.093.093 0 0 1 -.1.1z" transform="translate(88.986 20.826)"/><path d="m97.8 26.094v-3.929a.089.089 0 0 1 .1-.1h.577a.087.087 0 0 1 .1.1v3.814c0 1.594.814 2.249 1.849 2.249 1.013 0 1.845-.655 1.845-2.249v-3.814c0-.062.035-.1.105-.1h.569c.07 0 .1.035.1.1v3.928a2.547 2.547 0 0 1 -2.622 2.894c-1.287 0-2.618-.743-2.618-2.894" transform="translate(92.298 20.827)"/><path d="m104.272 28.857a.093.093 0 0 1 -.1-.1v-5.957h-2.232c-.06 0-.087-.045-.087-.107v-.533c0-.062.027-.1.087-.1h5.24a.087.087 0 0 1 .089.1v.54a.1.1 0 0 1 -.089.107h-2.23v5.948a.093.093 0 0 1 -.1.1z" transform="translate(96.121 20.826)"/><path d="m105.988 26.094v-3.929a.089.089 0 0 1 .1-.1h.577a.087.087 0 0 1 .1.1v3.814c0 1.594.814 2.249 1.848 2.249 1.013 0 1.845-.655 1.845-2.249v-3.814c0-.062.035-.1.107-.1h.568c.07 0 .1.035.1.1v3.928a2.547 2.547 0 0 1 -2.622 2.894c-1.287 0-2.618-.743-2.618-2.894" transform="translate(100.029 20.827)"/><path d="m110.412 28.857c-.07 0-.1-.033-.1-.1v-6.593a.09.09 0 0 1 .1-.1h1.969c1.786 0 2.548.832 2.548 2.224a2 2 0 0 1 -1.217 1.994l1.417 2.451c.035.07.008.121-.07.121h-.667a.116.116 0 0 1 -.1-.06l-1.328-2.319a3.009 3.009 0 0 1 -.579.045h-1.295v2.229a.092.092 0 0 1 -.1.1zm.674-6.063v3h1.252c1.25 0 1.784-.517 1.784-1.5s-.535-1.5-1.784-1.5z" transform="translate(104.106 20.826)"/><path d="m114.386 28.857a.093.093 0 0 1 -.105-.1v-6.593c0-.062.035-.1.105-.1h4.088a.093.093 0 0 1 .1.1v.536a.1.1 0 0 1 -.1.107h-3.414v2.177h3.114a.1.1 0 0 1 .1.107v.523a.1.1 0 0 1 -.1.1h-3.114v2.414h3.526a.091.091 0 0 1 .087.1v.533c0 .07-.035.1-.087.1z" transform="translate(107.855 20.826)"/><path d="m117.81 25.592a.538.538 0 1 1 .542.533.527.527 0 0 1 -.542-.533" transform="translate(111.186 23.656)"/></g></svg>