<svg id="グループ_5617" data-name="グループ 5617" xmlns="http://www.w3.org/2000/svg" xmlns:xlink="http://www.w3.org/1999/xlink" width="240.935" height="49.815" viewBox="0 0 240.935 49.815">
  <defs>
    <clipPath id="clip-path">
      <rect id="長方形_2841" data-name="長方形 2841" width="240.935" height="49.815" fill="none"/>
    </clipPath>
  </defs>
  <g id="グループ_5503" data-name="グループ 5503" clip-path="url(#clip-path)">
    <path id="パス_11509" data-name="パス 11509" d="M.413,6.857a.093.093,0,0,1-.1-.1V.164c0-.062.035-.1.1-.1h.62a.1.1,0,0,1,.107.07l2.669,4.49L6.45.137a.113.113,0,0,1,.115-.07H7.16c.07,0,.1.035.1.1V6.752a.091.091,0,0,1-.1.1H6.61a.094.094,0,0,1-.1-.1V1.4L4.089,5.5a.116.116,0,0,1-.1.06H3.589a.114.114,0,0,1-.1-.06L1.06,1.4V6.752c0,.07-.035.1-.1.1Z" transform="translate(0.291 0.063)" fill="#1a1311"/>
    <path id="パス_11510" data-name="パス 11510" d="M7.862,6.857c-.062,0-.1-.035-.1-.1V4.19l-2.5-4C5.22.127,5.244.067,5.323.067h.665A.107.107,0,0,1,6.1.137L8.158,3.5,10.206.137c.017-.052.052-.07.115-.07h.647a.078.078,0,0,1,.07.122L8.537,4.17V6.752a.1.1,0,0,1-.1.1Z" transform="translate(4.947 0.063)" fill="#1a1311"/>
    <path id="パス_11511" data-name="パス 11511" d="M11.588,5.58a.087.087,0,0,1,.068-.122L12.2,5.3c.062-.017.1.008.115.078a1.1,1.1,0,0,0,1.087.849c.943,0,1.153-.647,1.153-1.637V.8H12.585a.1.1,0,0,1-.1-.1V.164a.091.091,0,0,1,.1-.1h2.642a.09.09,0,0,1,.1.1V4.73c0,1.534-.639,2.259-1.924,2.259A1.768,1.768,0,0,1,11.588,5.58" transform="translate(10.931 0.063)" fill="#1a1311"/>
    <path id="パス_11512" data-name="パス 11512" d="M14.974,3.526a3.3,3.3,0,1,1,6.587,0,3.3,3.3,0,1,1-6.587,0m5.792,0a2.507,2.507,0,1,0-4.988,0,2.507,2.507,0,1,0,4.988,0" transform="translate(14.132 0)" fill="#1a1311"/>
    <path id="パス_11513" data-name="パス 11513" d="M19.833,4.092V.163a.088.088,0,0,1,.1-.1h.577a.086.086,0,0,1,.1.1V3.979c0,1.592.814,2.249,1.849,2.249,1.013,0,1.845-.657,1.845-2.249V.163c0-.06.035-.1.107-.1h.568c.07,0,.1.035.1.1V4.092a2.549,2.549,0,0,1-2.622,2.9c-1.287,0-2.618-.744-2.618-2.9" transform="translate(18.718 0.064)" fill="#1a1311"/>
    <path id="パス_11514" data-name="パス 11514" d="M24.258,6.857c-.07,0-.1-.033-.1-.1V.164a.09.09,0,0,1,.1-.1h1.969c1.786,0,2.548.832,2.548,2.224a2,2,0,0,1-1.217,1.994l1.417,2.449c.035.07.008.122-.07.122h-.667a.116.116,0,0,1-.1-.06L26.806,4.477a3.015,3.015,0,0,1-.579.043H24.933V6.752a.092.092,0,0,1-.1.1ZM24.933.794v3h1.252c1.25,0,1.784-.517,1.784-1.5s-.535-1.5-1.784-1.5Z" transform="translate(22.797 0.063)" fill="#1a1311"/>
    <path id="パス_11515" data-name="パス 11515" d="M28.232,6.857a.093.093,0,0,1-.1-.1V.164c0-.062.035-.1.1-.1h.62a.12.12,0,0,1,.115.07l3.668,5.47V.164c0-.062.033-.1.1-.1h.552a.091.091,0,0,1,.1.1V6.752a.094.094,0,0,1-.1.1h-.622a.15.15,0,0,1-.12-.06L28.879,1.3v5.45c0,.07-.035.1-.1.1Z" transform="translate(26.545 0.063)" fill="#1a1311"/>
    <path id="パス_11516" data-name="パス 11516" d="M32.6,6.857a.093.093,0,0,1-.1-.1V.164c0-.062.035-.1.1-.1H36.69a.093.093,0,0,1,.1.1V.7a.1.1,0,0,1-.1.1H33.276V2.981H36.39a.093.093,0,0,1,.1.1V3.61a.1.1,0,0,1-.1.1H33.276V6.122H36.8a.091.091,0,0,1,.087.1v.531c0,.07-.035.1-.087.1Z" transform="translate(30.67 0.063)" fill="#1a1311"/>
    <path id="パス_11517" data-name="パス 11517" d="M38.49,6.857c-.062,0-.1-.035-.1-.1V4.19l-2.5-4c-.043-.062-.019-.122.06-.122h.665a.107.107,0,0,1,.115.07L38.786,3.5,40.834.137c.017-.052.052-.07.115-.07H41.6a.078.078,0,0,1,.07.122l-2.5,3.981V6.752a.1.1,0,0,1-.1.1Z" transform="translate(33.853 0.063)" fill="#1a1311"/>
    <path id="パス_11518" data-name="パス 11518" d="M42.357,6.857c-.07,0-.1-.043-.07-.115l2.686-6.6A.12.12,0,0,1,45.1.067h.542a.1.1,0,0,1,.115.08l2.7,6.6c.027.072-.008.115-.078.115H47.71a.11.11,0,0,1-.111-.07L46.96,5.16h-3.2l-.638,1.627a.132.132,0,0,1-.122.07Zm4.331-2.424-1.337-3.4-1.322,3.4Z" transform="translate(39.896 0.063)" fill="#1a1311"/>
    <path id="パス_11519" data-name="パス 11519" d="M46.58,5.268a.088.088,0,0,1,.07-.122l.55-.14c.054-.019.1,0,.124.068A1.571,1.571,0,0,0,48.986,6.29c.875,0,1.462-.385,1.462-1.092,0-.727-.525-1.059-1.392-1.357l-.515-.175c-1.129-.385-1.786-.98-1.786-1.882A1.919,1.919,0,0,1,48.889,0a2.119,2.119,0,0,1,2.224,1.627c.017.07-.01.115-.06.122l-.587.15a.085.085,0,0,1-.115-.062A1.387,1.387,0,0,0,48.889.762c-.787,0-1.337.412-1.337,1,0,.544.445.929,1.392,1.234l.453.148c1.254.412,1.847.972,1.847,2.049,0,1.092-.927,1.854-2.257,1.854A2.325,2.325,0,0,1,46.58,5.268" transform="translate(43.956 0)" fill="#1a1311"/>
    <path id="パス_11520" data-name="パス 11520" d="M52.563,6.857c-.07,0-.1-.043-.07-.115l2.686-6.6A.12.12,0,0,1,55.3.067h.542a.1.1,0,0,1,.115.08l2.7,6.6c.027.072-.008.115-.078.115h-.667a.11.11,0,0,1-.111-.07L57.166,5.16h-3.2l-.637,1.627a.132.132,0,0,1-.122.07Zm4.331-2.424-1.337-3.4-1.322,3.4Z" transform="translate(49.528 0.063)" fill="#1a1311"/>
    <path id="パス_11521" data-name="パス 11521" d="M59.486,6.857a.093.093,0,0,1-.1-.1V.164c0-.062.035-.1.1-.1h.57c.07,0,.1.035.1.1V2.99h3.771V.164a.087.087,0,0,1,.1-.1h.579a.088.088,0,0,1,.1.1V6.752c0,.07-.035.1-.1.1h-.579c-.06,0-.1-.035-.1-.1V3.725H60.16V6.752a.093.093,0,0,1-.1.1Z" transform="translate(56.042 0.063)" fill="#1a1311"/>
    <path id="パス_11522" data-name="パス 11522" d="M63.561,6.857c-.07,0-.1-.043-.07-.115l2.686-6.6A.12.12,0,0,1,66.3.067h.542a.1.1,0,0,1,.115.08l2.7,6.6c.027.072-.008.115-.078.115h-.667a.11.11,0,0,1-.111-.07l-.64-1.627h-3.2l-.638,1.627a.132.132,0,0,1-.122.07Zm4.331-2.424-1.337-3.4-1.322,3.4Z" transform="translate(59.908 0.063)" fill="#1a1311"/>
    <path id="パス_11523" data-name="パス 11523" d="M68.122,6.857a.093.093,0,0,1-.1-.1V.164c0-.062.035-.1.1-.1h.57c.07,0,.105.035.105.1V6.752a.093.093,0,0,1-.105.1Z" transform="translate(64.193 0.063)" fill="#1a1311"/>
    <path id="パス_11524" data-name="パス 11524" d="M70.186,6.857c-.07,0-.1-.033-.1-.1V.164a.09.09,0,0,1,.1-.1h1.969C73.941.067,74.7.9,74.7,2.291a2,2,0,0,1-1.217,1.994L74.9,6.734c.035.07.008.122-.07.122h-.667a.116.116,0,0,1-.1-.06L72.734,4.477a3.015,3.015,0,0,1-.579.043H70.86V6.752a.092.092,0,0,1-.1.1ZM70.86.794v3h1.252c1.25,0,1.784-.517,1.784-1.5s-.535-1.5-1.784-1.5Z" transform="translate(66.142 0.063)" fill="#1a1311"/>
    <path id="パス_11525" data-name="パス 11525" d="M73.825,5.268a.088.088,0,0,1,.07-.122l.55-.14c.054-.019.1,0,.124.068A1.571,1.571,0,0,0,76.231,6.29c.875,0,1.462-.385,1.462-1.092,0-.727-.525-1.059-1.392-1.357l-.515-.175C74.656,3.281,74,2.686,74,1.784A1.919,1.919,0,0,1,76.134,0a2.119,2.119,0,0,1,2.224,1.627c.018.07-.01.115-.06.122l-.587.15a.085.085,0,0,1-.115-.062A1.387,1.387,0,0,0,76.134.762c-.787,0-1.337.412-1.337,1,0,.544.445.929,1.392,1.234l.453.148c1.254.412,1.847.972,1.847,2.049,0,1.092-.927,1.854-2.257,1.854a2.325,2.325,0,0,1-2.406-1.784" transform="translate(69.669 0)" fill="#1a1311"/>
    <path id="パス_11526" data-name="パス 11526" d="M79.818,6.857a.093.093,0,0,1-.105-.1V.8H77.481c-.06,0-.088-.045-.088-.1V.164c0-.062.027-.1.088-.1h5.24a.087.087,0,0,1,.089.1V.7a.1.1,0,0,1-.089.1H80.492v5.95a.093.093,0,0,1-.1.1Z" transform="translate(73.042 0.063)" fill="#1a1311"/>
    <path id="パス_11527" data-name="パス 11527" d="M83.888,6.857a.092.092,0,0,1-.1-.1V4.19l-2.5-4c-.043-.062-.02-.122.06-.122h.665a.109.109,0,0,1,.115.07L84.183,3.5,86.232.137c.015-.052.052-.07.115-.07h.647a.078.078,0,0,1,.07.122l-2.5,3.981V6.752a.1.1,0,0,1-.1.1Z" transform="translate(76.699 0.063)" fill="#1a1311"/>
    <path id="パス_11528" data-name="パス 11528" d="M85.716,6.857a.093.093,0,0,1-.105-.1V.164c0-.062.035-.1.105-.1h.569c.07,0,.1.035.1.1V6.112h3.553a.092.092,0,0,1,.1.1v.542c0,.07-.035.1-.1.1Z" transform="translate(80.797 0.063)" fill="#1a1311"/>
    <path id="パス_11529" data-name="パス 11529" d="M89.384,6.857a.093.093,0,0,1-.1-.1V.164c0-.062.035-.1.1-.1h.57c.07,0,.1.035.1.1V6.752a.093.093,0,0,1-.1.1Z" transform="translate(84.259 0.063)" fill="#1a1311"/>
    <path id="パス_11530" data-name="パス 11530" d="M91.114,5.268a.088.088,0,0,1,.07-.122l.55-.14c.054-.019.1,0,.124.068A1.571,1.571,0,0,0,93.52,6.29c.875,0,1.462-.385,1.462-1.092,0-.727-.525-1.059-1.392-1.357l-.515-.175c-1.129-.385-1.786-.98-1.786-1.882A1.919,1.919,0,0,1,93.423,0a2.119,2.119,0,0,1,2.224,1.627c.017.07-.01.115-.06.122L95,1.9a.085.085,0,0,1-.115-.062A1.387,1.387,0,0,0,93.423.762c-.787,0-1.337.412-1.337,1,0,.544.445.929,1.392,1.234l.453.148c1.254.412,1.847.972,1.847,2.049,0,1.092-.927,1.854-2.257,1.854a2.325,2.325,0,0,1-2.406-1.784" transform="translate(85.985 0)" fill="#1a1311"/>
    <path id="パス_11531" data-name="パス 11531" d="M97.107,6.857a.093.093,0,0,1-.1-.1V.8H94.77c-.06,0-.087-.045-.087-.1V.164c0-.062.027-.1.087-.1h5.24a.087.087,0,0,1,.089.1V.7a.1.1,0,0,1-.089.1h-2.23v5.95a.093.093,0,0,1-.1.1Z" transform="translate(89.359 0.063)" fill="#1a1311"/>
    <path id="パス_11532" data-name="パス 11532" d="M101.33,6.857c-.07,0-.1-.033-.1-.1V.164a.09.09,0,0,1,.1-.1h2.206c1.549,0,2.239.754,2.239,1.724a1.493,1.493,0,0,1-1.024,1.514A1.586,1.586,0,0,1,106.1,4.959c0,1.12-.717,1.9-2.439,1.9ZM102,.794v2.2h1.539c1.007,0,1.444-.412,1.444-1.1,0-.673-.49-1.092-1.495-1.092Zm0,2.914V6.122h1.654c1.12,0,1.644-.437,1.644-1.217s-.525-1.2-1.644-1.2Z" transform="translate(95.535 0.063)" fill="#1a1311"/>
    <path id="パス_11533" data-name="パス 11533" d="M105.333,6.857a.092.092,0,0,1-.1-.1V.164c0-.062.033-.1.1-.1h4.086a.094.094,0,0,1,.105.1V.7a.1.1,0,0,1-.105.1h-3.411V2.981h3.112a.094.094,0,0,1,.1.1V3.61a.1.1,0,0,1-.1.1h-3.112V6.122h3.526a.091.091,0,0,1,.087.1v.531c0,.07-.035.1-.087.1Z" transform="translate(99.311 0.063)" fill="#1a1311"/>
    <path id="パス_11534" data-name="パス 11534" d="M108.755,3.526A3.222,3.222,0,0,1,112.019,0a2.825,2.825,0,0,1,2.818,1.784.088.088,0,0,1-.062.13l-.568.167a.108.108,0,0,1-.124-.054A2.079,2.079,0,0,0,112.028.76a2.458,2.458,0,0,0-2.469,2.766,2.458,2.458,0,0,0,2.469,2.764,2.06,2.06,0,0,0,2.249-2.179H112.2a.093.093,0,0,1-.1-.1V3.489a.09.09,0,0,1,.1-.1h2.75a.091.091,0,0,1,.1.1v.57a2.814,2.814,0,0,1-3.044,2.991,3.2,3.2,0,0,1-3.256-3.524" transform="translate(102.64 0)" fill="#1a1311"/>
    <path id="パス_11535" data-name="パス 11535" d="M113.613,6.857a.093.093,0,0,1-.1-.1V.164c0-.062.035-.1.1-.1h.57c.07,0,.1.035.1.1V6.752a.093.093,0,0,1-.1.1Z" transform="translate(107.126 0.063)" fill="#1a1311"/>
    <path id="パス_11536" data-name="パス 11536" d="M115.678,6.857a.093.093,0,0,1-.1-.1V.164c0-.062.035-.1.1-.1h.62a.12.12,0,0,1,.115.07l3.668,5.47V.164c0-.062.033-.1.1-.1h.552a.091.091,0,0,1,.1.1V6.752a.094.094,0,0,1-.1.1h-.622a.152.152,0,0,1-.12-.06l-3.668-5.5v5.45c0,.07-.035.1-.1.1Z" transform="translate(109.074 0.063)" fill="#1a1311"/>
    <path id="パス_11537" data-name="パス 11537" d="M119.712,5.268a.088.088,0,0,1,.07-.122l.55-.14c.054-.019.1,0,.124.068a1.571,1.571,0,0,0,1.662,1.217c.875,0,1.462-.385,1.462-1.092,0-.727-.525-1.059-1.392-1.357l-.515-.175c-1.129-.385-1.786-.98-1.786-1.882A1.919,1.919,0,0,1,122.021,0a2.119,2.119,0,0,1,2.224,1.627c.018.07-.01.115-.06.122l-.587.15a.084.084,0,0,1-.115-.062A1.387,1.387,0,0,0,122.021.762c-.787,0-1.337.412-1.337,1,0,.544.445.929,1.392,1.234l.453.148c1.254.412,1.847.972,1.847,2.049,0,1.092-.927,1.854-2.257,1.854a2.325,2.325,0,0,1-2.406-1.784" transform="translate(112.975 0)" fill="#1a1311"/>
    <path id="パス_11538" data-name="パス 11538" d="M123.4,3.592a.538.538,0,1,1,.542.533.527.527,0,0,1-.542-.533" transform="translate(116.46 2.893)" fill="#1a1311"/>
    <path id="パス_11539" data-name="パス 11539" d="M2.462,17.857a.093.093,0,0,1-.107-.1V11.8H.127c-.064,0-.089-.045-.089-.107v-.533c0-.062.025-.1.089-.1H5.366a.087.087,0,0,1,.089.1V11.7a.1.1,0,0,1-.089.107H3.136v5.948a.094.094,0,0,1-.107.1Z" transform="translate(0.036 10.445)" fill="#1a1311"/>
    <path id="パス_11540" data-name="パス 11540" d="M4.065,14.526A3.239,3.239,0,0,1,7.364,11a3.227,3.227,0,0,1,3.289,3.526A3.229,3.229,0,0,1,7.364,18.05a3.241,3.241,0,0,1-3.3-3.524m5.792,0a2.507,2.507,0,1,0-4.988,0,2.507,2.507,0,1,0,4.988,0" transform="translate(3.836 10.382)" fill="#1a1311"/>
    <path id="パス_11541" data-name="パス 11541" d="M9.068,17.857c-.07,0-.1-.033-.1-.1V11.164a.088.088,0,0,1,.1-.1h1.971c1.742,0,2.548.847,2.548,2.249,0,1.419-.8,2.249-2.548,2.249h-1.3v2.187c0,.072-.033.1-.1.1Zm.674-6.063v3.044h1.252c1.227,0,1.786-.505,1.786-1.539,0-.987-.56-1.5-1.786-1.5Z" transform="translate(8.463 10.445)" fill="#1a1311"/>
    <path id="パス_11542" data-name="パス 11542" d="M12.9,17.857a.093.093,0,0,1-.1-.1V11.164c0-.062.035-.1.1-.1h.57c.07,0,.1.035.1.1V13.99H17.35V11.164a.088.088,0,0,1,.1-.1h.579a.088.088,0,0,1,.1.1v6.587c0,.07-.035.1-.1.1h-.579c-.06,0-.1-.035-.1-.1V14.725H13.579v3.026a.093.093,0,0,1-.1.1Z" transform="translate(12.08 10.445)" fill="#1a1311"/>
    <path id="パス_11543" data-name="パス 11543" d="M16.981,17.857c-.07,0-.105-.043-.07-.115l2.686-6.6a.122.122,0,0,1,.122-.08h.542a.107.107,0,0,1,.115.08l2.7,6.6c.027.072-.008.115-.078.115h-.667a.11.11,0,0,1-.111-.07l-.639-1.627h-3.2l-.638,1.627a.132.132,0,0,1-.122.07Zm4.331-2.424-1.337-3.4-1.322,3.4Z" transform="translate(15.947 10.445)" fill="#1a1311"/>
    <path id="パス_11544" data-name="パス 11544" d="M21.542,17.857a.094.094,0,0,1-.107-.1V11.164c0-.062.037-.1.107-.1h.568c.072,0,.107.035.107.1v6.587a.093.093,0,0,1-.107.1Z" transform="translate(20.23 10.445)" fill="#1a1311"/>
    <path id="パス_11545" data-name="パス 11545" d="M23.606,17.857c-.07,0-.1-.033-.1-.1V11.164a.09.09,0,0,1,.1-.1h1.969c1.786,0,2.548.832,2.548,2.224a2,2,0,0,1-1.217,1.994l1.417,2.451c.035.07.008.121-.07.121h-.667a.116.116,0,0,1-.1-.06l-1.328-2.319a3.008,3.008,0,0,1-.579.045H24.281v2.23a.092.092,0,0,1-.1.1Zm.674-6.063v3h1.252c1.25,0,1.784-.517,1.784-1.5s-.535-1.5-1.784-1.5Z" transform="translate(22.182 10.445)" fill="#1a1311"/>
    <path id="パス_11546" data-name="パス 11546" d="M29.943,17.857a.093.093,0,0,1-.1-.1V11.164c0-.062.035-.1.1-.1h.57c.07,0,.1.035.1.1v6.587a.093.093,0,0,1-.1.1Z" transform="translate(28.16 10.445)" fill="#1a1311"/>
    <path id="パス_11547" data-name="パス 11547" d="M31.672,16.268a.086.086,0,0,1,.07-.121l.55-.142c.054-.017.1,0,.124.07a1.571,1.571,0,0,0,1.662,1.215c.875,0,1.462-.383,1.462-1.092,0-.725-.525-1.059-1.392-1.355l-.515-.175c-1.129-.385-1.786-.982-1.786-1.882A1.919,1.919,0,0,1,33.981,11,2.118,2.118,0,0,1,36.2,12.629c.018.068-.01.113-.06.121l-.587.15a.084.084,0,0,1-.115-.062,1.387,1.387,0,0,0-1.462-1.075c-.787,0-1.337.412-1.337,1,0,.544.445.929,1.392,1.234l.453.15c1.254.41,1.847.97,1.847,2.047,0,1.092-.927,1.854-2.257,1.854a2.325,2.325,0,0,1-2.406-1.784" transform="translate(29.886 10.382)" fill="#1a1311"/>
    <path id="パス_11548" data-name="パス 11548" d="M40.029,17.857a.093.093,0,0,1-.1-.1V11.8H37.692c-.06,0-.087-.045-.087-.107v-.533c0-.062.027-.1.087-.1h5.24a.087.087,0,0,1,.089.1V11.7a.1.1,0,0,1-.089.107H40.7v5.948a.093.093,0,0,1-.1.1Z" transform="translate(35.491 10.445)" fill="#1a1311"/>
    <path id="パス_11549" data-name="パス 11549" d="M41.89,17.857a.093.093,0,0,1-.1-.1V11.164c0-.062.035-.1.1-.1h.57c.07,0,.1.035.1.1V13.99h3.771V11.164a.088.088,0,0,1,.1-.1h.579a.088.088,0,0,1,.1.1v6.587c0,.07-.035.1-.1.1h-.579c-.06,0-.1-.035-.1-.1V14.725H42.564v3.026a.093.093,0,0,1-.1.1Z" transform="translate(39.435 10.445)" fill="#1a1311"/>
    <path id="パス_11550" data-name="パス 11550" d="M46.292,17.857a.093.093,0,0,1-.1-.1V11.164c0-.062.035-.1.1-.1H50.38a.092.092,0,0,1,.1.1V11.7a.1.1,0,0,1-.1.107H46.966v2.177H50.08a.1.1,0,0,1,.1.107v.523a.1.1,0,0,1-.1.1H46.966v2.414h3.526a.091.091,0,0,1,.087.1v.533c0,.07-.035.1-.087.1Z" transform="translate(43.59 10.445)" fill="#1a1311"/>
    <path id="パス_11551" data-name="パス 11551" d="M52.334,17.857c-.07,0-.1-.033-.1-.1V11.164a.09.09,0,0,1,.1-.1H54.3c1.742,0,2.548.847,2.548,2.249,0,1.419-.8,2.249-2.548,2.249H53.009v2.187a.092.092,0,0,1-.1.1Zm.675-6.063v3.044H54.26c1.225,0,1.784-.505,1.784-1.539,0-.987-.56-1.5-1.784-1.5Z" transform="translate(49.294 10.445)" fill="#1a1311"/>
    <path id="パス_11552" data-name="パス 11552" d="M56.169,17.857a.094.094,0,0,1-.1-.1V11.164c0-.062.037-.1.1-.1h.57c.07,0,.1.035.1.1v5.948H60.4a.091.091,0,0,1,.1.1v.542c0,.07-.033.1-.1.1Z" transform="translate(52.912 10.445)" fill="#1a1311"/>
    <path id="パス_11553" data-name="パス 11553" d="M59.512,17.857c-.07,0-.1-.043-.07-.115l2.686-6.6a.122.122,0,0,1,.122-.08h.542a.108.108,0,0,1,.115.08l2.7,6.6c.027.072-.008.115-.078.115h-.667a.11.11,0,0,1-.111-.07l-.639-1.627h-3.2l-.638,1.627a.134.134,0,0,1-.122.07Zm4.331-2.424-1.337-3.4-1.322,3.4Z" transform="translate(56.086 10.445)" fill="#1a1311"/>
    <path id="パス_11554" data-name="パス 11554" d="M63.814,14.526A3.192,3.192,0,0,1,67.043,11a2.835,2.835,0,0,1,2.826,1.784.1.1,0,0,1-.07.132l-.56.165a.093.093,0,0,1-.122-.052,2.1,2.1,0,0,0-2.064-1.269c-1.567,0-2.434,1.147-2.434,2.766s.875,2.764,2.434,2.764a2.176,2.176,0,0,0,2.2-1.539.091.091,0,0,1,.122-.07l.56.167a.084.084,0,0,1,.062.1,2.912,2.912,0,0,1-2.968,2.1c-1.932,0-3.219-1.372-3.219-3.524" transform="translate(60.226 10.382)" fill="#1a1311"/>
    <path id="パス_11555" data-name="パス 11555" d="M68.586,17.857a.093.093,0,0,1-.107-.1V11.164c0-.062.035-.1.107-.1h4.086a.093.093,0,0,1,.1.1V11.7a.1.1,0,0,1-.1.107H69.26v2.177h3.112a.1.1,0,0,1,.1.107v.523a.1.1,0,0,1-.1.1H69.26v2.414h3.526a.091.091,0,0,1,.088.1v.533c0,.07-.035.1-.088.1Z" transform="translate(64.629 10.445)" fill="#1a1311"/>
    <path id="パス_11556" data-name="パス 11556" d="M76.677,17.857a.093.093,0,0,1-.105-.1V11.8H74.34c-.06,0-.087-.045-.087-.107v-.533c0-.062.027-.1.087-.1h5.24a.087.087,0,0,1,.089.1V11.7a.1.1,0,0,1-.089.107h-2.23v5.948a.093.093,0,0,1-.1.1Z" transform="translate(70.078 10.445)" fill="#1a1311"/>
    <path id="パス_11557" data-name="パス 11557" d="M78.54,17.857a.093.093,0,0,1-.1-.1V11.164c0-.062.035-.1.1-.1h.569c.07,0,.1.035.1.1V13.99h3.771V11.164a.088.088,0,0,1,.1-.1h.579a.088.088,0,0,1,.1.1v6.587c0,.07-.035.1-.1.1h-.579c-.06,0-.1-.035-.1-.1V14.725H79.214v3.026a.093.093,0,0,1-.1.1Z" transform="translate(74.025 10.445)" fill="#1a1311"/>
    <path id="パス_11558" data-name="パス 11558" d="M82.615,17.857c-.07,0-.1-.043-.07-.115l2.686-6.6a.122.122,0,0,1,.122-.08H85.9a.107.107,0,0,1,.115.08l2.7,6.6c.027.072-.008.115-.078.115h-.667a.11.11,0,0,1-.111-.07l-.64-1.627h-3.2l-.638,1.627a.132.132,0,0,1-.122.07Zm4.331-2.424-1.337-3.4-1.322,3.4Z" transform="translate(77.89 10.445)" fill="#1a1311"/>
    <path id="パス_11559" data-name="パス 11559" d="M89.224,17.857a.093.093,0,0,1-.1-.1V11.8H86.888c-.06,0-.088-.045-.088-.107v-.533c0-.062.027-.1.088-.1h5.24a.087.087,0,0,1,.089.1V11.7a.1.1,0,0,1-.089.107H89.9v5.948a.093.093,0,0,1-.1.1Z" transform="translate(81.919 10.445)" fill="#1a1311"/>
    <path id="パス_11560" data-name="パス 11560" d="M2.48,28.857a.107.107,0,0,1-.115-.07L.005,22.18a.083.083,0,0,1,.086-.113H.756a.105.105,0,0,1,.115.08L2.725,27.6l1.74-5.45a.1.1,0,0,1,.107-.087h.507a.1.1,0,0,1,.1.087l1.74,5.45,1.864-5.458a.1.1,0,0,1,.107-.08h.647a.082.082,0,0,1,.087.113L7.265,28.787a.1.1,0,0,1-.1.07H6.618a.1.1,0,0,1-.1-.087l-1.7-5.318L3.127,28.769a.112.112,0,0,1-.115.087Z" transform="translate(0.001 20.826)" fill="#1a1311"/>
    <path id="パス_11561" data-name="パス 11561" d="M6.416,28.857a.093.093,0,0,1-.1-.1V22.164c0-.062.035-.1.1-.1h.57c.07,0,.1.035.1.1v6.587a.093.093,0,0,1-.1.1Z" transform="translate(5.956 20.826)" fill="#1a1311"/>
    <path id="パス_11562" data-name="パス 11562" d="M8.482,28.857a.093.093,0,0,1-.1-.1V22.164c0-.062.035-.1.1-.1h.57c.07,0,.1.035.1.1v5.948H12.71a.092.092,0,0,1,.1.1v.542c0,.07-.035.1-.1.1Z" transform="translate(7.906 20.826)" fill="#1a1311"/>
    <path id="パス_11563" data-name="パス 11563" d="M12.149,28.857a.093.093,0,0,1-.1-.1V22.164c0-.062.035-.1.1-.1h.57c.07,0,.1.035.1.1v5.948h3.553a.092.092,0,0,1,.1.1v.542c0,.07-.035.1-.1.1Z" transform="translate(11.367 20.826)" fill="#1a1311"/>
    <path id="パス_11564" data-name="パス 11564" d="M17.922,25.526a3.3,3.3,0,1,1,6.587,0,3.3,3.3,0,1,1-6.587,0m5.792,0a2.507,2.507,0,1,0-4.988,0,2.507,2.507,0,1,0,4.988,0" transform="translate(16.914 20.763)" fill="#1a1311"/>
    <path id="パス_11565" data-name="パス 11565" d="M22.926,28.857c-.07,0-.1-.033-.1-.1V22.164a.09.09,0,0,1,.1-.1H24.9c1.742,0,2.548.847,2.548,2.249,0,1.419-.8,2.249-2.548,2.249H23.6v2.187a.092.092,0,0,1-.1.1Zm.674-6.063v3.044h1.252c1.225,0,1.784-.505,1.784-1.539,0-.987-.56-1.5-1.784-1.5Z" transform="translate(21.54 20.826)" fill="#1a1311"/>
    <path id="パス_11566" data-name="パス 11566" d="M26.761,28.857a.093.093,0,0,1-.1-.1V22.164c0-.062.035-.1.1-.1h4.088a.093.093,0,0,1,.1.1V22.7a.1.1,0,0,1-.1.107H27.435v2.177h3.114a.1.1,0,0,1,.1.107v.523a.1.1,0,0,1-.1.1H27.435v2.414h3.526a.091.091,0,0,1,.087.1v.533c0,.07-.035.1-.087.1Z" transform="translate(25.157 20.826)" fill="#1a1311"/>
    <path id="パス_11567" data-name="パス 11567" d="M30.443,28.857a.093.093,0,0,1-.1-.1V22.164c0-.062.035-.1.1-.1h.62a.123.123,0,0,1,.115.07L34.846,27.6V22.164c0-.062.033-.1.1-.1H35.5a.091.091,0,0,1,.1.1v6.587a.094.094,0,0,1-.1.1h-.622a.15.15,0,0,1-.121-.06L31.09,23.3v5.45c0,.07-.035.1-.1.1Z" transform="translate(28.632 20.826)" fill="#1a1311"/>
    <path id="パス_11568" data-name="パス 11568" d="M39.223,28.857a.093.093,0,0,1-.1-.1V22.8H36.886c-.06,0-.087-.045-.087-.107v-.533c0-.062.027-.1.087-.1h5.24a.087.087,0,0,1,.089.1V22.7a.1.1,0,0,1-.089.107H39.9v5.948a.093.093,0,0,1-.1.1Z" transform="translate(34.73 20.826)" fill="#1a1311"/>
    <path id="パス_11569" data-name="パス 11569" d="M41.087,28.857a.094.094,0,0,1-.107-.1V22.164c0-.062.037-.1.107-.1h.568c.07,0,.107.035.107.1V24.99H45.53V22.164a.088.088,0,0,1,.1-.1H46.2a.087.087,0,0,1,.1.1v6.587c0,.07-.033.1-.1.1h-.579c-.058,0-.1-.035-.1-.1V25.725H41.761v3.026a.094.094,0,0,1-.107.1Z" transform="translate(38.676 20.826)" fill="#1a1311"/>
    <path id="パス_11570" data-name="パス 11570" d="M45.486,28.857a.093.093,0,0,1-.1-.1V22.164c0-.062.035-.1.1-.1h4.088a.093.093,0,0,1,.1.1V22.7a.1.1,0,0,1-.1.107H46.16v2.177h3.114a.1.1,0,0,1,.1.107v.523a.1.1,0,0,1-.1.1H46.16v2.414h3.526a.091.091,0,0,1,.087.1v.533c0,.07-.035.1-.087.1Z" transform="translate(42.829 20.826)" fill="#1a1311"/>
    <path id="パス_11571" data-name="パス 11571" d="M51.53,28.857a.091.091,0,0,1-.1-.1V22.164a.091.091,0,0,1,.1-.1h2.022a3.077,3.077,0,0,1,3.419,3.4,3.079,3.079,0,0,1-3.419,3.394ZM52.2,22.8v5.318h1.258a2.409,2.409,0,0,0,2.706-2.659A2.4,2.4,0,0,0,53.462,22.8Z" transform="translate(48.534 20.826)" fill="#1a1311"/>
    <path id="パス_11572" data-name="パス 11572" d="M55.642,25.526a3.3,3.3,0,1,1,6.587,0,3.3,3.3,0,1,1-6.587,0m5.792,0a2.507,2.507,0,1,0-4.988,0,2.507,2.507,0,1,0,4.988,0" transform="translate(52.513 20.763)" fill="#1a1311"/>
    <path id="パス_11573" data-name="パス 11573" d="M60.389,25.526a3.3,3.3,0,1,1,6.587,0,3.3,3.3,0,1,1-6.587,0m5.792,0a2.507,2.507,0,1,0-4.988,0,2.507,2.507,0,1,0,4.988,0" transform="translate(56.993 20.763)" fill="#1a1311"/>
    <path id="パス_11574" data-name="パス 11574" d="M65.393,28.857c-.07,0-.1-.033-.1-.1V22.164a.09.09,0,0,1,.1-.1h1.969c1.786,0,2.548.832,2.548,2.224a2,2,0,0,1-1.217,1.994l1.417,2.451c.035.07.008.121-.07.121h-.667a.116.116,0,0,1-.105-.06l-1.328-2.319a3.008,3.008,0,0,1-.579.045H66.067v2.229a.092.092,0,0,1-.1.1Zm.674-6.063v3h1.252c1.25,0,1.784-.517,1.784-1.5s-.535-1.5-1.784-1.5Z" transform="translate(61.619 20.826)" fill="#1a1311"/>
    <path id="パス_11575" data-name="パス 11575" d="M73.779,28.857a.093.093,0,0,1-.105-.1V22.8H71.442c-.06,0-.087-.045-.087-.107v-.533c0-.062.027-.1.087-.1h5.24a.087.087,0,0,1,.089.1V22.7a.1.1,0,0,1-.089.107h-2.23v5.948a.093.093,0,0,1-.1.1Z" transform="translate(67.343 20.826)" fill="#1a1311"/>
    <path id="パス_11576" data-name="パス 11576" d="M75.384,25.526a3.3,3.3,0,1,1,6.587,0,3.3,3.3,0,1,1-6.587,0m5.792,0a2.507,2.507,0,1,0-4.988,0,2.507,2.507,0,1,0,4.988,0" transform="translate(71.145 20.763)" fill="#1a1311"/>
    <path id="パス_11577" data-name="パス 11577" d="M82.753,28.857a.093.093,0,0,1-.107-.1V22.164c0-.062.035-.1.107-.1h.62a.1.1,0,0,1,.107.07l2.669,4.49,2.642-4.49a.117.117,0,0,1,.115-.07H89.5c.07,0,.1.035.1.1v6.587a.091.091,0,0,1-.1.1h-.55a.094.094,0,0,1-.1-.1V23.4L86.427,27.5a.114.114,0,0,1-.1.06h-.393a.112.112,0,0,1-.105-.06L83.4,23.4v5.355c0,.07-.035.1-.1.1Z" transform="translate(77.999 20.826)" fill="#1a1311"/>
    <path id="パス_11578" data-name="パス 11578" d="M90.2,28.857c-.062,0-.1-.035-.1-.1V26.188l-2.5-4c-.043-.06-.019-.122.06-.122h.665a.109.109,0,0,1,.115.07L90.5,25.5l2.049-3.359c.017-.051.052-.07.115-.07h.647a.078.078,0,0,1,.07.122l-2.5,3.981v2.581a.1.1,0,0,1-.1.1Z" transform="translate(82.657 20.826)" fill="#1a1311"/>
    <path id="パス_11579" data-name="パス 11579" d="M94.393,28.857a.093.093,0,0,1-.105-.1V22.164c0-.062.035-.1.105-.1h3.956c.07,0,.105.035.105.1V22.7a.1.1,0,0,1-.105.107H95.067v2.334h2.887a.089.089,0,0,1,.1.1v.533a.1.1,0,0,1-.1.1H95.067v2.879a.093.093,0,0,1-.1.1Z" transform="translate(88.986 20.826)" fill="#1a1311"/>
    <path id="パス_11580" data-name="パス 11580" d="M97.8,26.094V22.165a.089.089,0,0,1,.1-.1h.577a.087.087,0,0,1,.1.1v3.814c0,1.594.814,2.249,1.849,2.249,1.013,0,1.845-.655,1.845-2.249V22.165c0-.062.035-.1.105-.1h.569c.07,0,.1.035.1.1v3.928a2.547,2.547,0,0,1-2.622,2.894c-1.287,0-2.618-.743-2.618-2.894" transform="translate(92.298 20.827)" fill="#1a1311"/>
    <path id="パス_11581" data-name="パス 11581" d="M104.272,28.857a.093.093,0,0,1-.1-.1V22.8h-2.232c-.06,0-.087-.045-.087-.107v-.533c0-.062.027-.1.087-.1h5.24a.087.087,0,0,1,.089.1V22.7a.1.1,0,0,1-.089.107h-2.23v5.948a.093.093,0,0,1-.1.1Z" transform="translate(96.121 20.826)" fill="#1a1311"/>
    <path id="パス_11582" data-name="パス 11582" d="M105.988,26.094V22.165a.089.089,0,0,1,.1-.1h.577a.087.087,0,0,1,.1.1v3.814c0,1.594.814,2.249,1.848,2.249,1.013,0,1.845-.655,1.845-2.249V22.165c0-.062.035-.1.107-.1h.568c.07,0,.1.035.1.1v3.928a2.547,2.547,0,0,1-2.622,2.894c-1.287,0-2.618-.743-2.618-2.894" transform="translate(100.029 20.827)" fill="#1a1311"/>
    <path id="パス_11583" data-name="パス 11583" d="M110.412,28.857c-.07,0-.1-.033-.1-.1V22.164a.09.09,0,0,1,.1-.1h1.969c1.786,0,2.548.832,2.548,2.224a2,2,0,0,1-1.217,1.994l1.417,2.451c.035.07.008.121-.07.121h-.667a.116.116,0,0,1-.1-.06l-1.328-2.319a3.009,3.009,0,0,1-.579.045h-1.295v2.229a.092.092,0,0,1-.1.1Zm.674-6.063v3h1.252c1.25,0,1.784-.517,1.784-1.5s-.535-1.5-1.784-1.5Z" transform="translate(104.106 20.826)" fill="#1a1311"/>
    <path id="パス_11584" data-name="パス 11584" d="M114.386,28.857a.093.093,0,0,1-.105-.1V22.164c0-.062.035-.1.105-.1h4.088a.093.093,0,0,1,.1.1V22.7a.1.1,0,0,1-.1.107H115.06v2.177h3.114a.1.1,0,0,1,.1.107v.523a.1.1,0,0,1-.1.1H115.06v2.414h3.526a.091.091,0,0,1,.087.1v.533c0,.07-.035.1-.087.1Z" transform="translate(107.855 20.826)" fill="#1a1311"/>
    <path id="パス_11585" data-name="パス 11585" d="M117.81,25.592a.538.538,0,1,1,.542.533.527.527,0,0,1-.542-.533" transform="translate(111.186 23.656)" fill="#1a1311"/>
  </g>
</svg>
