<svg id="footer_logo" xmlns="http://www.w3.org/2000/svg" xmlns:xlink="http://www.w3.org/1999/xlink" width="167.386" height="57.325" viewBox="0 0 167.386 57.325">
  <defs>
    <clipPath id="clip-path">
      <rect id="長方形_54" data-name="長方形 54" width="167.386" height="29.335"/>
    </clipPath>
  </defs>
  <g id="グループ_5514" data-name="グループ 5514">
    <rect id="長方形_53" data-name="長方形 53" width="3.251" height="28.316" transform="translate(139.968 0.221)"/>
    <path id="パス_7" data-name="パス 7" d="M463.785,1.152V7H450.092V1.152h-3.251V29.468h3.251V10.244h13.693V29.468h3.251V1.152Z" transform="translate(-361.209 -0.931)"/>
    <path id="パス_8" data-name="パス 8" d="M0,1.07V4.321H6.072V29.4H9.318V4.321h6.166V1.07Z" transform="translate(0 -0.865)"/>
    <g id="グループ_10" data-name="グループ 10">
      <g id="グループ_9" data-name="グループ 9" clip-path="url(#clip-path)">
        <path id="パス_9" data-name="パス 9" d="M283.057,1.069H273.051v.909h-.063V29.5h3.251V12.73h6.818c4.286,0,7.8-2.626,7.8-5.83s-3.514-5.83-7.8-5.83m.988,8.409h-7.869V4.383h7.869c1.912,0,3.466,1.145,3.466,2.547s-1.555,2.547-3.466,2.547" transform="translate(-220.673 -0.864)"/>
        <path id="パス_10" data-name="パス 10" d="M108.1,0a14.668,14.668,0,1,0,14.665,14.67A14.67,14.67,0,0,0,108.1,0m0,26.263A11.595,11.595,0,1,1,119.692,14.67,11.595,11.595,0,0,1,108.1,26.263" transform="translate(-75.529)"/>
        <path id="パス_11" data-name="パス 11" d="M598.376,29.354,585.282,1.069h-.494l-1.155,2.416-.005-.005-12.38,25.874h3.6L584.988,8.171l9.807,21.183Z" transform="translate(-461.775 -0.864)"/>
        <path id="パス_12" data-name="パス 12" d="M796.75,29.354,783.687,12.73h4.948c4.291,0,7.8-2.626,7.8-5.83s-3.509-5.83-7.8-5.83H778.629v.909h-.063V29.5h3.251V15.609l10.8,13.746Zm-15-24.97h7.868c1.907,0,3.467,1.145,3.467,2.548s-1.56,2.547-3.467,2.547h-7.868Z" transform="translate(-629.364 -0.865)"/>
      </g>
    </g>
  </g>
  <path id="パス_12951" data-name="パス 12951" d="M-36.406-2.822h-1.553V0h-1.47V-7.2h3.53a3.289,3.289,0,0,1,1.165.186,1.819,1.819,0,0,1,.691.5,2.228,2.228,0,0,1,.371.605,1.973,1.973,0,0,1,.137.757,2.156,2.156,0,0,1-.259,1.008,1.446,1.446,0,0,1-.854.7,1.344,1.344,0,0,1,.706.569,2.368,2.368,0,0,1,.208,1.125v.483a3.7,3.7,0,0,0,.039.669.6.6,0,0,0,.273.41V0h-1.655q-.068-.239-.1-.386a3.544,3.544,0,0,1-.063-.62l-.01-.669a1.307,1.307,0,0,0-.251-.918A1.334,1.334,0,0,0-36.406-2.822Zm.913-1.309a.8.8,0,0,0,.449-.811.9.9,0,0,0-.435-.879,1.642,1.642,0,0,0-.732-.127h-1.748v1.934h1.7A1.9,1.9,0,0,0-35.493-4.131Zm9.262.986h-3.5v1.851h3.984V0H-31.2V-7.2h5.278v1.274h-3.809v1.528h3.5Zm7.738,2.607A2.934,2.934,0,0,1-20.553.2a3.1,3.1,0,0,1-2.441-1,3.987,3.987,0,0,1-.889-2.744,3.953,3.953,0,0,1,1.011-2.905,3.012,3.012,0,0,1,2.236-.889A3.024,3.024,0,0,1-17.98-6.143a2.579,2.579,0,0,1,.5,1.343h-1.5a2.031,2.031,0,0,0-.376-.781,1.529,1.529,0,0,0-1.216-.469,1.507,1.507,0,0,0-1.294.662,3.181,3.181,0,0,0-.474,1.873,2.792,2.792,0,0,0,.5,1.814,1.582,1.582,0,0,0,1.272.6,1.455,1.455,0,0,0,1.206-.518,2.248,2.248,0,0,0,.381-.835H-17.5A3.237,3.237,0,0,1-18.493-.537Zm6.2-2.285h-1.553V0h-1.47V-7.2h3.53a3.289,3.289,0,0,1,1.165.186,1.819,1.819,0,0,1,.691.5,2.228,2.228,0,0,1,.371.605,1.973,1.973,0,0,1,.137.757A2.156,2.156,0,0,1-9.68-4.138a1.446,1.446,0,0,1-.854.7,1.344,1.344,0,0,1,.706.569,2.368,2.368,0,0,1,.208,1.125v.483a3.7,3.7,0,0,0,.039.669.6.6,0,0,0,.273.41V0h-1.655q-.068-.239-.1-.386a3.544,3.544,0,0,1-.063-.62l-.01-.669a1.307,1.307,0,0,0-.251-.918A1.334,1.334,0,0,0-12.292-2.822Zm.913-1.309a.8.8,0,0,0,.449-.811.9.9,0,0,0-.435-.879,1.642,1.642,0,0,0-.732-.127h-1.748v1.934h1.7A1.9,1.9,0,0,0-11.379-4.131Zm8.51,1.357V-7.2h1.528v4.424A3.706,3.706,0,0,1-1.7-.986,2.654,2.654,0,0,1-4.232.186,2.666,2.666,0,0,1-6.771-.986a3.706,3.706,0,0,1-.356-1.787V-7.2H-5.6v4.424a2.5,2.5,0,0,0,.176,1.084,1.166,1.166,0,0,0,1.191.605,1.162,1.162,0,0,0,1.187-.605A2.5,2.5,0,0,0-2.87-2.773ZM.977-7.2H2.471V0H.977Zm9.125,0v1.274H7.949V0H6.435V-5.923H4.272V-7.2Zm8.27,6.157a2.648,2.648,0,0,0,.864-.117.835.835,0,0,0,.63-.835.616.616,0,0,0-.312-.552,3.36,3.36,0,0,0-.981-.337l-.762-.171A4.813,4.813,0,0,1,16.257-3.6a1.755,1.755,0,0,1-.728-1.558,2.08,2.08,0,0,1,.7-1.606,2.973,2.973,0,0,1,2.065-.64,3.14,3.14,0,0,1,1.941.6,2.153,2.153,0,0,1,.842,1.75H19.636a1.032,1.032,0,0,0-.566-.923,1.9,1.9,0,0,0-.874-.181,1.632,1.632,0,0,0-.928.234.746.746,0,0,0-.347.654.619.619,0,0,0,.342.576,4.184,4.184,0,0,0,.938.3l1.24.3a3.206,3.206,0,0,1,1.23.522,1.76,1.76,0,0,1,.645,1.47,2.074,2.074,0,0,1-.754,1.638A3.161,3.161,0,0,1,18.43.186a3.457,3.457,0,0,1-2.212-.642,2.134,2.134,0,0,1-.806-1.765h1.436a1.478,1.478,0,0,0,.269.737A1.545,1.545,0,0,0,18.372-1.04ZM23.312-7.2h1.494V0H23.312Zm9.125,0v1.274H30.284V0H28.77V-5.923H26.607V-7.2Zm6.889,4.053h-3.5v1.851h3.984V0H34.36V-7.2h5.278v1.274H35.83v1.528h3.5Z" transform="translate(66.703 57.125)"/>
</svg>
