<svg height="57.325" viewBox="0 0 167.386 57.325" width="167.386" xmlns="http://www.w3.org/2000/svg" xmlns:xlink="http://www.w3.org/1999/xlink"><clipPath id="a"><path d="m0 0h167.386v29.335h-167.386z"/></clipPath><path d="m139.968.221h3.251v28.316h-3.251z"/><path d="m463.785 1.152v5.848h-13.693v-5.848h-3.251v28.316h3.251v-19.224h13.693v19.224h3.251v-28.316z" transform="translate(-361.209 -.931)"/><path d="m0 1.07v3.251h6.072v25.079h3.246v-25.079h6.166v-3.251z" transform="translate(0 -.865)"/><g clip-path="url(#a)"><path d="m283.057 1.069h-10.006v.909h-.063v27.522h3.251v-16.77h6.818c4.286 0 7.8-2.626 7.8-5.83s-3.514-5.83-7.8-5.83m.988 8.409h-7.869v-5.096h7.869c1.912 0 3.466 1.145 3.466 2.547s-1.555 2.547-3.466 2.547" transform="translate(-220.673 -.864)"/><path d="m108.1 0a14.668 14.668 0 1 0 14.665 14.67 14.67 14.67 0 0 0 -14.665-14.67m0 26.263a11.595 11.595 0 1 1 11.592-11.593 11.595 11.595 0 0 1 -11.592 11.593" transform="translate(-75.529)"/><path d="m598.376 29.354-13.094-28.285h-.494l-1.155 2.416-.005-.005-12.38 25.874h3.6l10.14-21.183 9.807 21.183z" transform="translate(-461.775 -.864)"/><path d="m796.75 29.354-13.063-16.624h4.948c4.291 0 7.8-2.626 7.8-5.83s-3.509-5.83-7.8-5.83h-10.006v.909h-.063v27.521h3.251v-13.891l10.8 13.746zm-15-24.97h7.868c1.907 0 3.467 1.145 3.467 2.548s-1.56 2.547-3.467 2.547h-7.868z" transform="translate(-629.364 -.865)"/></g><path d="m-36.406-2.822h-1.553v2.822h-1.47v-7.2h3.53a3.289 3.289 0 0 1 1.165.186 1.819 1.819 0 0 1 .691.5 2.228 2.228 0 0 1 .371.605 1.973 1.973 0 0 1 .137.757 2.156 2.156 0 0 1 -.259 1.008 1.446 1.446 0 0 1 -.854.7 1.344 1.344 0 0 1 .706.569 2.368 2.368 0 0 1 .208 1.125v.483a3.7 3.7 0 0 0 .039.669.6.6 0 0 0 .273.41v.188h-1.655q-.068-.239-.1-.386a3.544 3.544 0 0 1 -.063-.62l-.01-.669a1.307 1.307 0 0 0 -.251-.918 1.334 1.334 0 0 0 -.905-.229zm.913-1.309a.8.8 0 0 0 .449-.811.9.9 0 0 0 -.435-.879 1.642 1.642 0 0 0 -.732-.127h-1.748v1.934h1.7a1.9 1.9 0 0 0 .766-.117zm9.262.986h-3.5v1.851h3.984v1.294h-5.453v-7.2h5.278v1.274h-3.809v1.528h3.5zm7.738 2.607a2.934 2.934 0 0 1 -2.06.738 3.1 3.1 0 0 1 -2.441-1 3.987 3.987 0 0 1 -.889-2.744 3.953 3.953 0 0 1 1.011-2.905 3.012 3.012 0 0 1 2.236-.889 3.024 3.024 0 0 1 2.656 1.195 2.579 2.579 0 0 1 .5 1.343h-1.5a2.031 2.031 0 0 0 -.376-.781 1.529 1.529 0 0 0 -1.216-.469 1.507 1.507 0 0 0 -1.294.662 3.181 3.181 0 0 0 -.474 1.873 2.792 2.792 0 0 0 .5 1.814 1.582 1.582 0 0 0 1.272.6 1.455 1.455 0 0 0 1.206-.518 2.248 2.248 0 0 0 .381-.835h1.481a3.237 3.237 0 0 1 -.993 1.917zm6.2-2.285h-1.553v2.823h-1.47v-7.2h3.53a3.289 3.289 0 0 1 1.165.186 1.819 1.819 0 0 1 .691.5 2.228 2.228 0 0 1 .371.605 1.973 1.973 0 0 1 .137.757 2.156 2.156 0 0 1 -.258 1.014 1.446 1.446 0 0 1 -.854.7 1.344 1.344 0 0 1 .706.569 2.368 2.368 0 0 1 .208 1.125v.483a3.7 3.7 0 0 0 .039.669.6.6 0 0 0 .273.41v.182h-1.655q-.068-.239-.1-.386a3.544 3.544 0 0 1 -.063-.62l-.01-.669a1.307 1.307 0 0 0 -.251-.918 1.334 1.334 0 0 0 -.905-.229zm.913-1.309a.8.8 0 0 0 .449-.811.9.9 0 0 0 -.435-.879 1.642 1.642 0 0 0 -.732-.127h-1.748v1.934h1.7a1.9 1.9 0 0 0 .767-.116zm8.51 1.357v-4.425h1.528v4.424a3.706 3.706 0 0 1 -.358 1.79 2.654 2.654 0 0 1 -2.532 1.172 2.666 2.666 0 0 1 -2.539-1.172 3.706 3.706 0 0 1 -.356-1.787v-4.427h1.527v4.424a2.5 2.5 0 0 0 .176 1.084 1.166 1.166 0 0 0 1.191.605 1.162 1.162 0 0 0 1.187-.605 2.5 2.5 0 0 0 .176-1.081zm3.847-4.425h1.494v7.2h-1.494zm9.125 0v1.274h-2.153v5.926h-1.514v-5.923h-2.163v-1.277zm8.27 6.157a2.648 2.648 0 0 0 .864-.117.835.835 0 0 0 .63-.835.616.616 0 0 0 -.312-.552 3.36 3.36 0 0 0 -.981-.337l-.762-.171a4.813 4.813 0 0 1 -1.554-.545 1.755 1.755 0 0 1 -.728-1.558 2.08 2.08 0 0 1 .7-1.606 2.973 2.973 0 0 1 2.065-.64 3.14 3.14 0 0 1 1.941.6 2.153 2.153 0 0 1 .842 1.75h-1.441a1.032 1.032 0 0 0 -.566-.923 1.9 1.9 0 0 0 -.874-.181 1.632 1.632 0 0 0 -.928.234.746.746 0 0 0 -.347.654.619.619 0 0 0 .342.576 4.184 4.184 0 0 0 .938.3l1.24.3a3.206 3.206 0 0 1 1.23.522 1.76 1.76 0 0 1 .645 1.47 2.074 2.074 0 0 1 -.754 1.638 3.161 3.161 0 0 1 -2.132.65 3.457 3.457 0 0 1 -2.212-.642 2.134 2.134 0 0 1 -.806-1.765h1.436a1.478 1.478 0 0 0 .269.737 1.545 1.545 0 0 0 1.255.444zm4.94-6.157h1.494v7.2h-1.494zm9.125 0v1.274h-2.153v5.926h-1.514v-5.923h-2.163v-1.277zm6.889 4.053h-3.5v1.851h3.984v1.296h-5.45v-7.2h5.278v1.274h-3.808v1.528h3.5z" transform="translate(66.703 57.125)"/></svg>