<svg id="グループ_2641" data-name="グループ 2641" xmlns="http://www.w3.org/2000/svg" xmlns:xlink="http://www.w3.org/1999/xlink" width="182.531" height="16.543" viewBox="0 0 182.531 16.543">
  <defs>
    <clipPath id="clip-path">
      <rect id="長方形_54" data-name="長方形 54" width="94.392" height="16.543"/>
    </clipPath>
  </defs>
  <g id="グループ_2634" data-name="グループ 2634">
    <rect id="長方形_53" data-name="長方形 53" width="1.833" height="15.968" transform="translate(78.93 0.124)"/>
    <path id="パス_7" data-name="パス 7" d="M456.4,1.152v3.3h-7.722v-3.3h-1.833V17.12h1.833V6.279H456.4V17.12h1.833V1.152Z" transform="translate(-398.552 -1.027)"/>
    <path id="パス_8" data-name="パス 8" d="M0,1.07V2.9H3.424V17.046h1.83V2.9H8.732V1.07Z" transform="translate(0 -0.954)"/>
    <g id="グループ_10" data-name="グループ 10">
      <g id="グループ_9" data-name="グループ 9" clip-path="url(#clip-path)">
        <path id="パス_9" data-name="パス 9" d="M278.666,1.069h-5.642v.512h-.036V17.1h1.833V7.645h3.845c2.417,0,4.4-1.481,4.4-3.288s-1.982-3.288-4.4-3.288m.557,4.742h-4.437V2.938h4.437c1.078,0,1.955.646,1.955,1.437s-.877,1.437-1.955,1.437" transform="translate(-243.487 -0.953)"/>
        <path id="パス_10" data-name="パス 10" d="M101.7,0a8.271,8.271,0,1,0,8.27,8.273A8.272,8.272,0,0,0,101.7,0m0,14.81a6.538,6.538,0,1,1,6.537-6.537A6.538,6.538,0,0,1,101.7,14.81" transform="translate(-83.338)"/>
        <path id="パス_11" data-name="パス 11" d="M586.546,17.019l-7.384-15.95h-.279l-.651,1.363,0,0-6.982,14.591h2.032L579,5.074l5.53,11.946Z" transform="translate(-509.514 -0.954)"/>
        <path id="パス_12" data-name="パス 12" d="M788.82,17.02l-7.366-9.375h2.79c2.42,0,4.4-1.481,4.4-3.288s-1.979-3.288-4.4-3.288H778.6v.512h-.035V17.1H780.4V9.269l6.089,7.751ZM780.364,2.939H784.8c1.075,0,1.955.646,1.955,1.437s-.88,1.436-1.955,1.436h-4.437Z" transform="translate(-694.429 -0.954)"/>
      </g>
    </g>
  </g>
  <path id="パス_12950" data-name="パス 12950" d="M-32.765-2.54h-1.4V0h-1.323V-6.478h3.177a2.96,2.96,0,0,1,1.048.167,1.637,1.637,0,0,1,.622.453,2.006,2.006,0,0,1,.334.545,1.776,1.776,0,0,1,.123.681,1.941,1.941,0,0,1-.233.907,1.3,1.3,0,0,1-.769.631,1.209,1.209,0,0,1,.635.512,2.131,2.131,0,0,1,.187,1.013v.435a3.328,3.328,0,0,0,.035.6.541.541,0,0,0,.246.369V0h-1.49q-.062-.215-.088-.347a3.19,3.19,0,0,1-.057-.558l-.009-.6a1.176,1.176,0,0,0-.226-.826A1.2,1.2,0,0,0-32.765-2.54Zm.822-1.178a.722.722,0,0,0,.4-.729.805.805,0,0,0-.391-.791,1.478,1.478,0,0,0-.659-.114h-1.573v1.74h1.534A1.709,1.709,0,0,0-31.943-3.718Zm8.336.888h-3.146v1.666h3.586V0h-4.909V-6.478h4.75v1.147h-3.428v1.375h3.146Zm6.964,2.347A2.64,2.64,0,0,1-18.5.18a2.794,2.794,0,0,1-2.2-.9,3.588,3.588,0,0,1-.8-2.47,3.557,3.557,0,0,1,.91-2.615,2.711,2.711,0,0,1,2.013-.8,2.722,2.722,0,0,1,2.391,1.072,2.321,2.321,0,0,1,.448,1.208h-1.354a1.828,1.828,0,0,0-.338-.7,1.376,1.376,0,0,0-1.094-.422,1.356,1.356,0,0,0-1.165.6,2.862,2.862,0,0,0-.426,1.685,2.512,2.512,0,0,0,.45,1.633,1.423,1.423,0,0,0,1.145.543,1.309,1.309,0,0,0,1.085-.466,2.023,2.023,0,0,0,.343-.751h1.34A2.913,2.913,0,0,1-16.643-.483Zm5.58-2.057h-1.4V0h-1.323V-6.478h3.177a2.96,2.96,0,0,1,1.048.167,1.637,1.637,0,0,1,.622.453,2.006,2.006,0,0,1,.334.545,1.776,1.776,0,0,1,.123.681,1.941,1.941,0,0,1-.233.907,1.3,1.3,0,0,1-.769.631,1.209,1.209,0,0,1,.635.512,2.131,2.131,0,0,1,.187,1.013v.435a3.328,3.328,0,0,0,.035.6.541.541,0,0,0,.246.369V0h-1.49q-.062-.215-.088-.347a3.19,3.19,0,0,1-.057-.558l-.009-.6a1.176,1.176,0,0,0-.226-.826A1.2,1.2,0,0,0-11.063-2.54Zm.822-1.178a.722.722,0,0,0,.4-.729.805.805,0,0,0-.391-.791,1.478,1.478,0,0,0-.659-.114h-1.573v1.74h1.534A1.709,1.709,0,0,0-10.241-3.718ZM-2.583-2.5V-6.478h1.375V-2.5A3.335,3.335,0,0,1-1.528-.888,2.389,2.389,0,0,1-3.809.167,2.4,2.4,0,0,1-6.094-.888,3.335,3.335,0,0,1-6.415-2.5V-6.478h1.375V-2.5a2.248,2.248,0,0,0,.158.976,1.05,1.05,0,0,0,1.072.545,1.046,1.046,0,0,0,1.068-.545A2.248,2.248,0,0,0-2.583-2.5ZM.879-6.478H2.224V0H.879Zm8.213,0v1.147H7.154V0H5.792V-5.331H3.845V-6.478ZM16.534-.936a2.384,2.384,0,0,0,.778-.105.752.752,0,0,0,.567-.751.554.554,0,0,0-.281-.5,3.024,3.024,0,0,0-.883-.3l-.686-.154a4.332,4.332,0,0,1-1.4-.5,1.579,1.579,0,0,1-.655-1.4,1.872,1.872,0,0,1,.633-1.446,2.676,2.676,0,0,1,1.859-.576,2.826,2.826,0,0,1,1.747.543,1.938,1.938,0,0,1,.758,1.575h-1.3a.929.929,0,0,0-.51-.831,1.71,1.71,0,0,0-.787-.163,1.469,1.469,0,0,0-.835.211.672.672,0,0,0-.312.589.557.557,0,0,0,.308.519,3.766,3.766,0,0,0,.844.268l1.116.268a2.886,2.886,0,0,1,1.107.47,1.584,1.584,0,0,1,.58,1.323A1.867,1.867,0,0,1,18.505-.42a2.845,2.845,0,0,1-1.918.587A3.111,3.111,0,0,1,14.6-.411,1.92,1.92,0,0,1,13.871-2h1.292a1.33,1.33,0,0,0,.242.664A1.391,1.391,0,0,0,16.534-.936Zm4.446-5.542h1.345V0H20.981Zm8.213,0v1.147H27.255V0H25.893V-5.331H23.946V-6.478Zm6.2,3.647H32.247v1.666h3.586V0H30.924V-6.478h4.75v1.147H32.247v1.375h3.146Z" transform="translate(146.699 11.268)"/>
</svg>
