<svg height="19.749" viewBox="0 0 19.749 19.749" width="19.749" xmlns="http://www.w3.org/2000/svg"><path d="m1060.161-60.41c2.636 0 2.949.01 3.99.058a5.456 5.456 0 0 1 1.834.34 3.055 3.055 0 0 1 1.135.738 3.061 3.061 0 0 1 .739 1.135 5.466 5.466 0 0 1 .34 1.834c.048 1.041.058 1.353.058 3.99s-.01 2.949-.058 3.99a5.461 5.461 0 0 1 -.34 1.833 3.061 3.061 0 0 1 -.739 1.136 3.057 3.057 0 0 1 -1.135.739 5.474 5.474 0 0 1 -1.834.34c-1.041.047-1.353.057-3.99.057s-2.949-.01-3.99-.057a5.468 5.468 0 0 1 -1.833-.34 3.06 3.06 0 0 1 -1.135-.739 3.057 3.057 0 0 1 -.739-1.136 5.465 5.465 0 0 1 -.34-1.833c-.047-1.041-.057-1.354-.057-3.99s.01-2.949.057-3.99a5.47 5.47 0 0 1 .34-1.834 3.057 3.057 0 0 1 .739-1.135 3.058 3.058 0 0 1 1.135-.738 5.45 5.45 0 0 1 1.833-.34c1.041-.048 1.354-.058 3.99-.058m0-1.779c-2.682 0-3.018.011-4.071.059a7.243 7.243 0 0 0 -2.4.459 4.844 4.844 0 0 0 -1.749 1.139 4.832 4.832 0 0 0 -1.139 1.749 7.247 7.247 0 0 0 -.459 2.4c-.048 1.053-.06 1.39-.06 4.072s.011 3.018.06 4.071a7.243 7.243 0 0 0 .459 2.4 4.832 4.832 0 0 0 1.139 1.749 4.827 4.827 0 0 0 1.749 1.139 7.242 7.242 0 0 0 2.4.459c1.053.048 1.39.06 4.071.06s3.018-.011 4.072-.06a7.249 7.249 0 0 0 2.4-.459 4.833 4.833 0 0 0 1.749-1.139 4.853 4.853 0 0 0 1.139-1.749 7.253 7.253 0 0 0 .459-2.4c.048-1.053.059-1.39.059-4.071s-.011-3.019-.059-4.072a7.257 7.257 0 0 0 -.459-2.4 4.853 4.853 0 0 0 -1.139-1.749 4.851 4.851 0 0 0 -1.749-1.139 7.249 7.249 0 0 0 -2.4-.459c-1.053-.048-1.389-.059-4.072-.059z" transform="translate(-1050.286 62.189)"/><path d="m1062.6-54.947a5.071 5.071 0 0 0 -5.071 5.071 5.071 5.071 0 0 0 5.071 5.071 5.07 5.07 0 0 0 5.071-5.071 5.071 5.071 0 0 0 -5.071-5.071zm0 8.362a3.291 3.291 0 0 1 -3.292-3.291 3.292 3.292 0 0 1 3.292-3.292 3.292 3.292 0 0 1 3.292 3.292 3.291 3.291 0 0 1 -3.292 3.291z" transform="translate(-1052.725 59.75)"/><ellipse cx="15.146" cy="4.603" rx="1.185" ry="1.185"/></svg>