<svg xmlns="http://www.w3.org/2000/svg" width="20.503" height="19.504" viewBox="0 0 20.503 19.504">
  <g id="line-icon" transform="translate(0 0)">
    <path id="LINE" d="M18.306,13.415a7.383,7.383,0,0,0,2.2-5.11C20.5,3.726,15.9,0,10.252,0S0,3.726,0,8.305c0,4.105,3.647,7.544,8.574,8.194.333.072.788.22.9.5a2.094,2.094,0,0,1,.033.925s-.12.722-.146.876c-.044.259-.206,1.012.888.552a33.088,33.088,0,0,0,8.054-5.942h0" transform="translate(0 0)"/>
    <path id="パス_279" data-name="パス 279" d="M187.893,1540.806h-2.037a.538.538,0,0,1-.538-.537V1536.2a.537.537,0,0,1,1.075,0v3.53h1.5a.537.537,0,1,1,0,1.074Zm2.107-.537a.537.537,0,0,1-1.074,0V1536.2a.537.537,0,0,1,1.074,0Zm4.9,0a.539.539,0,0,1-.538.537.541.541,0,0,1-.43-.215l-2.088-2.838v2.516a.538.538,0,0,1-1.075,0V1536.2a.536.536,0,0,1,.367-.509.528.528,0,0,1,.171-.028.538.538,0,0,1,.429.215l2.088,2.838V1536.2a.537.537,0,0,1,1.075,0Zm3.3-2.57a.537.537,0,1,1,0,1.073h-1.5v.96h1.5a.537.537,0,1,1,0,1.074h-2.037a.538.538,0,0,1-.538-.537v-2.032h0V1536.2a.538.538,0,0,1,.538-.537H198.2a.537.537,0,1,1,0,1.073h-1.5v.96Z" transform="translate(-181.655 -1529.774)" fill="#f5f0ea"/>
  </g>
</svg>
