<svg xmlns="http://www.w3.org/2000/svg" xmlns:xlink="http://www.w3.org/1999/xlink" width="181.362" height="65.085" viewBox="0 0 181.362 65.085">
  <defs>
    <clipPath id="clip-path">
      <rect id="長方形_54" data-name="長方形 54" width="181.362" height="31.785"/>
    </clipPath>
  </defs>
  <g id="グループ_5621" data-name="グループ 5621" transform="translate(-105.818 -104.244)">
    <g id="グループ_535" data-name="グループ 535" transform="translate(105.818 104.244)">
      <rect id="長方形_53" data-name="長方形 53" width="3.523" height="30.68" transform="translate(151.654 0.239)"/>
      <path id="パス_7" data-name="パス 7" d="M465.2,1.152V7.486H450.363V1.152h-3.523v30.68h3.523V11H465.2V31.832h3.523V1.152Z" transform="translate(-354.06 -0.913)"/>
      <path id="パス_8" data-name="パス 8" d="M0,1.07V4.592H6.579V31.767H10.1V4.592h6.681V1.07Z" transform="translate(0 -0.848)"/>
      <g id="グループ_10" data-name="グループ 10">
        <g id="グループ_9" data-name="グループ 9" clip-path="url(#clip-path)">
          <path id="パス_9" data-name="パス 9" d="M283.9,1.069H273.057v.985h-.069V31.869h3.523V13.7H283.9c4.644,0,8.451-2.845,8.451-6.317s-3.807-6.317-8.451-6.317m1.07,9.111h-8.526V4.66h8.526c2.071,0,3.756,1.241,3.756,2.76s-1.685,2.76-3.756,2.76" transform="translate(-216.306 -0.847)"/>
          <path id="パス_10" data-name="パス 10" d="M109.324,0a15.892,15.892,0,1,0,15.889,15.9A15.894,15.894,0,0,0,109.324,0m0,28.455a12.563,12.563,0,1,1,12.56-12.56,12.563,12.563,0,0,1-12.56,12.56" transform="translate(-74.034)"/>
          <path id="パス_11" data-name="パス 11" d="M600.642,31.715,586.454,1.069h-.535l-1.252,2.618-.006-.006L571.247,31.715h3.9L586.135,8.764,596.76,31.715Z" transform="translate(-452.635 -0.847)"/>
          <path id="パス_12" data-name="パス 12" d="M798.268,31.716,784.115,13.7h5.361c4.65,0,8.451-2.845,8.451-6.317s-3.8-6.317-8.451-6.317H778.634v.984h-.068V31.87h3.523V16.823l11.7,14.893ZM782.021,4.661h8.525c2.066,0,3.756,1.241,3.756,2.76s-1.691,2.76-3.756,2.76h-8.525Z" transform="translate(-616.907 -0.848)"/>
        </g>
      </g>
    </g>
    <path id="パス_12950" data-name="パス 12950" d="M-54.609-4.233h-2.329V0h-2.2V-10.8h5.3a4.933,4.933,0,0,1,1.747.278,2.729,2.729,0,0,1,1.036.754,3.343,3.343,0,0,1,.557.908A2.96,2.96,0,0,1-50.3-7.72a3.234,3.234,0,0,1-.388,1.512,2.169,2.169,0,0,1-1.282,1.051,2.016,2.016,0,0,1,1.058.853A3.552,3.552,0,0,1-50.6-2.615v.725a5.546,5.546,0,0,0,.059,1,.9.9,0,0,0,.41.615V0h-2.483q-.1-.359-.146-.579a5.316,5.316,0,0,1-.1-.93l-.015-1a1.96,1.96,0,0,0-.377-1.377A2,2,0,0,0-54.609-4.233Zm1.37-1.963a1.2,1.2,0,0,0,.674-1.216,1.342,1.342,0,0,0-.652-1.318,2.464,2.464,0,0,0-1.1-.19h-2.622v2.9h2.556A2.849,2.849,0,0,0-53.239-6.2Zm13.893,1.479h-5.244v2.776h5.977V0H-46.8V-10.8h7.917v1.912h-5.713v2.292h5.244ZM-27.739-.806A4.4,4.4,0,0,1-30.83.3a4.657,4.657,0,0,1-3.662-1.494A5.98,5.98,0,0,1-35.825-5.31a5.929,5.929,0,0,1,1.516-4.358A4.518,4.518,0,0,1-30.954-11,4.536,4.536,0,0,1-26.97-9.214,3.869,3.869,0,0,1-26.223-7.2h-2.256a3.047,3.047,0,0,0-.564-1.172,2.294,2.294,0,0,0-1.824-.7,2.261,2.261,0,0,0-1.941.992,4.771,4.771,0,0,0-.71,2.809,4.187,4.187,0,0,0,.751,2.721,2.372,2.372,0,0,0,1.908.9,2.182,2.182,0,0,0,1.809-.776,3.372,3.372,0,0,0,.571-1.252h2.234A4.855,4.855,0,0,1-27.739-.806Zm9.3-3.428h-2.329V0h-2.2V-10.8h5.3a4.933,4.933,0,0,1,1.747.278,2.729,2.729,0,0,1,1.036.754,3.343,3.343,0,0,1,.557.908,2.96,2.96,0,0,1,.205,1.135,3.234,3.234,0,0,1-.388,1.512A2.169,2.169,0,0,1-15.8-5.156a2.016,2.016,0,0,1,1.058.853,3.552,3.552,0,0,1,.311,1.688v.725a5.546,5.546,0,0,0,.059,1,.9.9,0,0,0,.41.615V0h-2.483q-.1-.359-.146-.579a5.316,5.316,0,0,1-.1-.93l-.015-1a1.96,1.96,0,0,0-.377-1.377A2,2,0,0,0-18.439-4.233Zm1.37-1.963A1.2,1.2,0,0,0-16.4-7.412a1.342,1.342,0,0,0-.652-1.318,2.464,2.464,0,0,0-1.1-.19h-2.622v2.9h2.556A2.849,2.849,0,0,0-17.069-6.2ZM-4.3-4.16V-10.8h2.292V-4.16a5.558,5.558,0,0,1-.535,2.681q-1,1.758-3.8,1.758t-3.809-1.758a5.558,5.558,0,0,1-.535-2.681V-10.8H-8.4V-4.16a3.747,3.747,0,0,0,.264,1.626,1.75,1.75,0,0,0,1.787.908,1.743,1.743,0,0,0,1.78-.908A3.747,3.747,0,0,0-4.3-4.16ZM1.466-10.8H3.707V0H1.466Zm13.688,0v1.912h-3.23V0H9.653V-8.884H6.408V-10.8Zm12.4,9.236a3.973,3.973,0,0,0,1.3-.176A1.253,1.253,0,0,0,29.8-2.988a.924.924,0,0,0-.469-.828,5.041,5.041,0,0,0-1.472-.505l-1.143-.256a7.22,7.22,0,0,1-2.329-.828,2.632,2.632,0,0,1-1.091-2.336,3.12,3.12,0,0,1,1.055-2.41,4.459,4.459,0,0,1,3.1-.959,4.71,4.71,0,0,1,2.911.9,3.23,3.23,0,0,1,1.263,2.626H29.454a1.549,1.549,0,0,0-.85-1.384,2.849,2.849,0,0,0-1.311-.271,2.448,2.448,0,0,0-1.392.352,1.12,1.12,0,0,0-.52.981.929.929,0,0,0,.513.864,6.276,6.276,0,0,0,1.406.447l1.86.447a4.81,4.81,0,0,1,1.846.784,2.64,2.64,0,0,1,.967,2.2A3.111,3.111,0,0,1,30.842-.7a4.741,4.741,0,0,1-3.2.978,5.186,5.186,0,0,1-3.318-.963,3.2,3.2,0,0,1-1.208-2.648h2.153a2.217,2.217,0,0,0,.4,1.106A2.318,2.318,0,0,0,27.557-1.56ZM34.968-10.8h2.241V0H34.968Zm13.688,0v1.912h-3.23V0H43.155V-8.884H39.91V-10.8ZM58.989-4.717H53.744v2.776h5.977V0H51.54V-10.8h7.917v1.912H53.744v2.292h5.244Z" transform="translate(196.5 169.029)"/>
  </g>
</svg>
