<svg height="120.953" viewBox="0 0 195 120.953" width="195" xmlns="http://www.w3.org/2000/svg" xmlns:xlink="http://www.w3.org/1999/xlink"><clipPath id="a"><path d="m0 0h195v120.953h-195z"/></clipPath><g clip-path="url(#a)"><path d="m12.9 2.645a30.844 30.844 0 0 0 4.113 13c.484.766 3.689 5.958 8.059 7.093.085.03.284.085.284.2 0 .142-.083.142-.993.342a5.7 5.7 0 0 0 -1.959.849c-.537.4-.622.484-.707.484-.115 0-3.719-2.243-6.47-8.259a30.667 30.667 0 0 1 -2.727-10.986c-.027-.312-.027-.34-.142-.34-.168 0-.168.113-.284 1.135-.085.909-.823 7.522-3.632 12.145a15.679 15.679 0 0 1 -8.257 6.754c-.087 0-.172-.028-.172-.144 0-.083.144-.2.369-.339a21.039 21.039 0 0 0 6.726-7.293c3.235-6.158 3.235-14.272 3.235-14.586a7.763 7.763 0 0 0 -.114-1.728 4.09 4.09 0 0 1 -.113-.572.243.243 0 0 1 .227-.227c.17 0 1.392.4 1.645.454 1.363.369 1.931.539 1.931 1.049 0 .314-.229.4-.482.456-.227.028-.369.055-.454.17a.538.538 0 0 0 -.085.34" transform="translate(.01 .135)"/><path d="m29.072 6.187c.879 0 .879-.34.879-1.76a25.177 25.177 0 0 0 -.17-3.319c-.028-.142-.226-.768-.226-.908s.113-.2.312-.2 3.065.284 3.065.993c0 .17-.6.711-.681.853a16.926 16.926 0 0 0 -.257 3.264c0 .737.03 1.078.909 1.078h3.661c1.3 0 1.447 0 1.815-.482.851-1.165.936-1.278 1.191-1.278a9.547 9.547 0 0 1 2.583 2.157c0 .369-.652.369-1.505.369h-7.773c-.312 0-.711 0-.851.482-.057.227-.057 4.653-.057 5.476 0 .879.057 1.22.936 1.22h2.808c1.335 0 1.477 0 1.817-.482.879-1.163.964-1.276 1.22-1.276a9.633 9.633 0 0 1 2.583 2.156c0 .369-.652.369-1.532.369h-6.867c-.823 0-.908.284-.908.966 0 .849.028 6.951.055 7.093.115.425.456.482.909.482h5.192c1.3 0 1.447 0 1.815-.482.853-1.163.936-1.3 1.193-1.3a9.625 9.625 0 0 1 2.581 2.156c0 .369-.652.369-1.5.369h-18.845c-2.5 0-3.32.058-3.574.085-.115 0-.511.059-.626.059-.085 0-.142-.059-.227-.17l-.567-.652c-.112-.142-.112-.142-.112-.2s.027-.057.112-.057c.172 0 1.051.085 1.25.085 1.39.057 2.555.113 3.888.113h5.419c.511 0 .936 0 .936-1.021v-6.846c0-.342-.17-.683-.823-.683h-3.318c-2.5 0-3.32.057-3.577.057a4.671 4.671 0 0 1 -.6.085c-.112 0-.17-.085-.255-.2l-.567-.652c-.085-.115-.113-.142-.113-.172 0-.055.028-.085.113-.085.2 0 1.049.085 1.248.115 1.39.057 2.555.083 3.889.083h3.148c.851 0 .851-.425.851-.879v-5.558a.71.71 0 0 0 -.823-.737h-4.677c-.879 0-.936.083-1.647 1.276-1.56 2.611-3.489 4.939-3.943 4.939-.115 0-.142-.087-.142-.172 0-.055.452-.908.709-1.361 3.122-5.761 3.659-9.42 3.744-9.989.058-.537.115-.594.172-.594s2.78 1.106 2.78 1.588c0 .227-.908.851-1.021 1.021a10.8 10.8 0 0 0 -.909 2.156c0 .371.342.371.711.371z" transform="translate(14.156 -.001)"/><path d="m36.782 9.041a.25.25 0 0 1 .257-.225c.083 0 1.558.4 1.872.4a48 48 0 0 0 4.767-.851c.482-.342.511-3.207.511-3.349a3.58 3.58 0 0 0 -.71-2.416c-.425-.51-.479-.567-.479-.65 0-.2.34-.229.454-.229 1.9 0 3.008 1.078 3.008 1.815 0 .03-1.078 3.661-1.078 4.2 0 .172.112.257.31.257.142 0 1.448-.142 1.675-.142 2.127 0 3.774 1.021 3.774 3.631 0 2.243-.8 7.123-2.439 9.108a4.408 4.408 0 0 1 -2.895 1.732c-1.051 0-1.335-.994-1.673-1.959-.059-.2-.37-.851-.37-.936a.134.134 0 0 1 .142-.142 5.174 5.174 0 0 1 .709.2 7.059 7.059 0 0 0 1.447.2c.823 0 1.874-.4 2.7-3.462a22.442 22.442 0 0 0 .879-4.937c0-1.985-1.135-2.127-1.957-2.127a6.182 6.182 0 0 0 -2.725.681c-.113.142-.142.255-.425 1.22-1.135 3.859-3.886 10.838-6.185 10.838a.833.833 0 0 1 -.909-.906c0-.6.2-.824 1.9-2.7.766-.851 1.959-2.157 3.491-6.414a7.625 7.625 0 0 0 .4-1.333c0-.085-.028-.227-.2-.227-.624 0-3.264 1.135-3.831 1.135-1.108 0-2.413-1.787-2.413-2.413m19.693 6.017a14.189 14.189 0 0 1 -1.929-.851c-.2-.057-.909-.085-.909-.2 0-.17.936-.652 1.108-.794 1.049-.794 1.163-.879 1.163-1.647a3.65 3.65 0 0 0 -2.3-3.264c-.227-.113-.681-.31-.681-.425 0-.168.113-.168.2-.168 3.632 0 4.937 3.574 4.967 5.022 0 .34-.427 2.326-1.618 2.326m1.3-9.505c0 .482-.34 1.106-.823 1.106-.4 0-.624-.17-1.505-1.22a7.555 7.555 0 0 0 -2.015-1.672c-.144-.087-.427-.314-.427-.425 0-.085.227-.257.484-.257 3.632 0 4.283 2.127 4.283 2.469m2.271-2.384a.78.78 0 0 1 -.709.824c-.626 0-.938-.369-1.505-1.021a7.807 7.807 0 0 0 -2.524-1.505c-.284-.085-.37-.2-.37-.284 0-.227.682-.4 1.023-.4 3.519 0 4.086 1.844 4.086 2.383" transform="translate(28.422 .606)"/><path d="m58.256 5.621c1.617.964 1.787 1.051 1.787 1.248s-.823.626-.936.768c-.227.227-1.049 1.276-1.22 1.475a11.511 11.511 0 0 1 -3.661 2.98 5.617 5.617 0 0 1 -.908.369c-.115 0-.03-.142.028-.17a18.532 18.532 0 0 0 3.716-5.563c.085-.227.314-1.39.4-1.447.112-.055.369.087.794.34m15.182-2.155c1.163 0 1.5 0 1.815-.482.707-1.163.794-1.278 1.078-1.278.769-.001 2.669 1.958 2.669 2.13 0 .369-.6.369-1.5.369h-6.447c-.794 0-.909.369-.909.879 0 .707.115 4.623.115 5.5a2.474 2.474 0 0 1 -.994 2.271 2.7 2.7 0 0 1 -1.447.6c-.454 0-.482-.142-.737-.908a2.355 2.355 0 0 0 -1.135-1.247 3.283 3.283 0 0 1 -.626-.34c0-.057.144-.057.2-.057.284 0 1.643.028 1.9 0 .823-.142.823-.34.823-2.269 0-.909 0-2.81-.028-3.662-.028-.764-.539-.764-.879-.764h-2.016c-.821 0-.821.142-1.021 1.36-.709 4.341-2.5 6.414-4.625 7.72a11.145 11.145 0 0 1 -4.682 1.532c-.314 0 .113-.2.4-.34 2.468-1.191 4.426-2.129 5.533-4.455a13.652 13.652 0 0 0 1.275-5.056c0-.681-.369-.764-.853-.764h-2.921c-2.1 0-2.952.027-3.576.083-.113 0-.511.058-.6.058-.113 0-.17-.087-.255-.172l-.569-.652c-.057-.085-.112-.142-.112-.2 0-.028.028-.057.112-.057.2 0 1.051.085 1.248.085 1.59.085 3.152.113 3.889.113h5.221c.879 0 .994-.227.994-1.418a3.708 3.708 0 0 0 -.2-1.333 4.5 4.5 0 0 1 -.2-.567c0-.115.142-.115.227-.115.142 0 2.157.34 2.583.4.142.027.511.085.511.369 0 .168-.028.2-.4.48-.227.172-.227.652-.227 1.108 0 .879.142 1.078.851 1.078zm-4.57 11.634c.624 0 .766-.03.938-.172.2-.168 1.133-1.333 1.447-1.333.142 0 2.328 1.191 2.328 1.789 0 .312-.369.454-.6.511-.624.14-.681.14-.993.567a25.574 25.574 0 0 1 -2.781 3.12c-.454.456-.681.654-.681.824 0 .482 3.065 1.617 7.52 1.617.454 0 2.98-.2 3.177-.142a2.733 2.733 0 0 1 -.4.511 5.966 5.966 0 0 0 -1.323 1.843c-.142.456-.314.711-.6.711a22.529 22.529 0 0 1 -9-2.865c-.622-.369-.707-.4-.879-.4-.2 0-.369.113-.849.425-3.916 2.7-10.1 3.235-11.89 3.235-.085 0-.342 0-.342-.113a.411.411 0 0 1 .314-.17 44.315 44.315 0 0 0 4.824-1.248c4.568-1.477 6.412-3.122 6.412-3.492a.884.884 0 0 0 -.312-.537 15.592 15.592 0 0 1 -1.957-2.723c-.085-.172-.2-.314-.4-.314a17.277 17.277 0 0 0 -1.73 1.3 14.461 14.461 0 0 1 -6.47 2.384c-.028 0-.142 0-.142-.115a9.14 9.14 0 0 1 1.333-.566 12.923 12.923 0 0 0 6.588-5.947c.112-.229.539-1.448.681-1.448a5.326 5.326 0 0 1 1.106.482c.6.255 1.42.652 1.42.936 0 .257-.2.369-.454.541-.115.055-.569.312-.569.566 0 .229.255.229.454.229zm-4.368.766c-1.08 0-1.136.2-1.136.4 0 .539 2.411 3.15 3.148 3.15.6 0 2.7-2.81 2.7-3.207 0-.34-.312-.34-.482-.34zm7.574-9.846c2.071 0 5.816 2.411 5.816 4.455 0 .993-.6 1.645-1.135 1.645-.482 0-.567-.17-1.333-1.845a11.083 11.083 0 0 0 -3.32-4c-.085-.028-.227-.113-.2-.17 0-.057.113-.085.17-.085" transform="translate(41.157 .024)"/><path d="m79.339 7.18c.737.452.737.908.737 1.106a3.085 3.085 0 0 1 -.4 1.361 1.6 1.6 0 0 0 -.2.541.13.13 0 0 0 .113.142 5.88 5.88 0 0 0 .824-.425 11.784 11.784 0 0 1 5.737-1.648c4.425 0 6.44 2.952 6.44 5.958 0 6.811-9.08 9.023-9.732 9.023-.059 0-.113 0-.113-.055 0-.087 1.787-1.078 2.1-1.3 1.416-.966 5.533-4.088 5.533-8.316a4.1 4.1 0 0 0 -4.285-4.4 11.462 11.462 0 0 0 -7.437 2.921c-.369.425-.537.908-.537 2.838 0 .622.027 4.228.142 5.731.027.227.142 1.163.142 1.333a1.731 1.731 0 0 1 -1.248 1.647c-.794 0-.879-1.021-.995-2.753-.057-.6-.227-3.29-.906-3.29-.144 0-.514.707-.739 1.163-.425.823-1.023 1.985-2.044 1.985-.339 0-.681-.227-.681-.794 0-.484.142-.737.853-1.931a21.8 21.8 0 0 0 1.418-2.751 4.974 4.974 0 0 0 -1.106-2.186c-.909-1.135-.994-1.248-.994-1.759 0-.964.768-1.08 1.93-1.25.48-.083.652-.113 2.553-1.872a9.131 9.131 0 0 0 .737-.681 9.332 9.332 0 0 0 .257-2.411c0-2.526-.652-3.462-1.136-4-.482-.567-.537-.626-.537-.739 0-.227.679-.369.964-.369.764 0 2.695 1.163 2.695 2.1 0 .427-.369 2.214-.425 2.583-.057.454-.142 1.333-.142 1.645 0 .541.028.567.482.853m-3.519 3.377c-.255.4-.565.936-1.22.991-.908.058-1.191.087-1.191.456 0 .4 1.021 2.212 1.331 2.212.172 0 .257-.142.569-.6 1.76-2.583 1.76-2.638 1.76-3.661 0-.227 0-.369-.115-.4-.168-.027-.652.17-1.135.995m-.085 5.9c0 .369.567 1.106.823 1.106.34 0 .34-1.532.34-2.838 0-.112-.057-.168-.142-.168a4.347 4.347 0 0 0 -1.021 1.9" transform="translate(55.475 -.001)"/><path d="m101.709 16.05a4.492 4.492 0 0 0 -4.8-4.315c-3.744 0-6.155 3.888-6.667 4.767-.567.964-.851 1.505-1.619 1.505a.781.781 0 0 1 -.821-.794c0-.711.225-1.335 2.241-3.689a93.8 93.8 0 0 0 6.417-8.543c.938-1.333 1.333-1.927 1.333-2.239 0-.2-.2-.4-.537-.4-1.049 0-2.725 1.42-3.207 1.817-1.136.936-1.532 1.021-2.016 1.021-1.333 0-2.212-1.817-2.212-1.959 0-.085.085-.085.681-.085a13.706 13.706 0 0 0 4.4-1.021c1.76-.766 1.959-.851 2.583-.851 1.135 0 2.978.709 2.978 1.957 0 .824-.652 1.278-2.016 2.214a17.316 17.316 0 0 0 -4.538 5.816c0 .085.085.2.17.2.17-.055.539-.2.709-.255a6.874 6.874 0 0 1 2.5-.454 6.126 6.126 0 0 1 6.385 5.9c0 3.6-3.49 6.128-7.093 6.128-2.81 0-4.825-1.5-4.825-2.923a2.734 2.734 0 0 1 2.81-2.3 4.182 4.182 0 0 1 3.233 1.817c.4.511.569.766.966.766.964 0 2.95-1.73 2.95-4.084m-7.296 2.554a1.159 1.159 0 0 0 -1.191.994c0 .737 1.22 1.331 2.439 1.331a.471.471 0 0 0 .484-.511 1.933 1.933 0 0 0 -1.732-1.814" transform="translate(67.851 .977)"/><path d="m107.544 13.826a3.149 3.149 0 1 1 -6.3-.027 3.149 3.149 0 0 1 6.3.027m-5.5-.027a2.382 2.382 0 0 0 2.384 2.384 2.344 2.344 0 0 0 2.354-2.328 2.38 2.38 0 0 0 -2.413-2.384 2.3 2.3 0 0 0 -2.329 2.329" transform="translate(78.236 8.249)"/><path d="m12.54 30.444c0 .425-.17.737-1.078 1.331a79.6 79.6 0 0 0 -6.556 5.675 21.776 21.776 0 0 0 -2.638 3.065c0 .113.113.172.255.172a37.849 37.849 0 0 0 5.05-1.7c3.037-1.165 4.568-1.73 5.733-1.73.622 0 2.638.369 2.638 1.39 0 .709-1.08.909-1.475.909-.172 0-.909-.06-1.051-.06-2.269 0-7.69 1.108-7.69 5.169 0 2.663 1.789 3.092 5.079 3.856 1.42.342 1.7 1.193 1.7 1.45 0 .594-.879.906-1.872.906-.2 0-6.043-.34-6.043-5.137a6.98 6.98 0 0 1 1.248-3.943 10.789 10.789 0 0 0 .679-.881c0-.027-.027-.083-.112-.083a9.4 9.4 0 0 0 -2.127 1.135c-1.533 1.108-1.931 1.392-2.81 1.392-1.158-.006-1.47-1.397-1.47-1.653 0-.541.254-.8 1.076-1.533.257-.2 5.222-6.073 6.272-7.121.879-.878 2.611-2.668 2.611-3.32a.48.48 0 0 0 -.484-.482 3.315 3.315 0 0 0 -1.815 1.021c-.768.8-1.078 1.135-2.127 1.135-1.533-.001-1.988-2.407-1.988-2.495s.028-.229.2-.229c.085 0 1.193.2 1.39.2a3.444 3.444 0 0 0 .995-.14c2.78-.709 3.092-.8 3.774-.8a2.572 2.572 0 0 1 2.638 2.5" transform="translate(0 21.592)"/><path d="m23.827 30.874c0 .454-.172.624-1.562 2.156-2.354 2.583-3.035 3.405-3.744 4.74a7.143 7.143 0 0 0 -.567 1.191c0 .083.027.113.113.113.312-.229.849-.541 1.106-.709a6.214 6.214 0 0 1 3.632-1.25c3.491 0 3.689 3.774 3.689 4.909 0 .425-.172 2.3-.172 2.7a1.889 1.889 0 0 0 2.072 2.071c1.56 0 3.035-1.163 4.4-2.583.113-.112.482-.679.567-.679.057 0 .085.057.085.142a6.384 6.384 0 0 1 -1.333 2.638 7.787 7.787 0 0 1 -5.364 2.78 2.7 2.7 0 0 1 -2.524-2.978c0-.652.454-3.632.454-4.228 0-1.59-.567-3.831-2.666-3.831-.484 0-5.249.541-6.272 7.8-.057.342-.17 1.844-.255 2.127-.057.2-.227.938-.936.938-.342 0-1.333-.284-1.333-2.129 0-.823.085-.993.794-2.64.227-.511 1.135-2.751 1.333-3.177a57.131 57.131 0 0 1 4.228-7.208c.142-.255 1.335-2.524 1.56-3.035a2.935 2.935 0 0 0 .255-1.136c0-.168-.2-1.191-.2-1.3 0-.085.057-.17.2-.17.966 0 2.441 1.9 2.441 2.753" transform="translate(10.212 21.729)"/><path d="m34.028 30.183a2.311 2.311 0 0 0 -.4-1.248 5.579 5.579 0 0 1 -.539-.794c0-.342.6-.6 1.163-.6a2.3 2.3 0 0 1 2.048 1.252c.142.2.425.31 1.278.537.539.142 1.617.456 1.617 1.248 0 1.08-1.588 1.59-3.886 2.273-.257.085-.284.168-.541 1.163-.34 1.418-2.78 11.009-5.391 11.009-.768 0-.879-.511-.879-.794 0-.4.085-.539.936-1.759a25.416 25.416 0 0 0 3.916-9.25c0-.257-.2-.284-.624-.314-3.349-.282-3.349-2.269-3.349-2.3 0-.113.028-.34.2-.34.113 0 .2.028.766.369a4.209 4.209 0 0 0 2.184.6 3.538 3.538 0 0 0 1.25-.17 1.343 1.343 0 0 0 .255-.879m8.168 17.76a3.715 3.715 0 0 1 -4 3.093c-2.695 0-4.283-1.874-4.283-3.292 0-1.845 2.014-2.81 4.568-2.81.227 0 1.276.057 1.477.057.253 0 .4-.027.4-.31 0-.427-.112-2.328-.112-2.726 0-3.12.17-4.625 2.553-5.986 1.759-1.021 1.959-1.108 1.959-1.845a2.5 2.5 0 0 0 -.8-1.447c-.255-.227-.369-.339-.369-.454 0-.085.085-.142.2-.142a9.073 9.073 0 0 1 1.673.484 3.044 3.044 0 0 1 2.072 2.893 1.348 1.348 0 0 1 -1.338 1.474 1.961 1.961 0 0 1 -.652-.113c-1.078-.4-1.193-.454-1.532-.454a3.4 3.4 0 0 0 -2.072.853 3.2 3.2 0 0 0 -.681 2.354c0 .709.284 5.109 1.135 5.7.255.2 1.588.654 1.845.8.6.312 2.239 1.22 2.239 2.269 0 .482-.2.994-.764.994-.284 0-.454-.085-.879-.456-.768-.681-2.072-1.56-2.469-1.39-.113.057-.113.17-.17.454m-4.086-1.618c-.654 0-3.207 0-3.207 1.505 0 .681.853 1.532 2.553 1.532 2.753 0 3.152-2.157 2.98-2.609-.142-.427-1.673-.427-2.326-.427m-.766-16.229c0-.2-.994-.709-1.163-.709-.484 0-.682 1.163-.682 1.248a.318.318 0 0 0 .057.17c.085.085 1.789-.284 1.789-.709" transform="translate(22.019 21.284)"/><path d="m46.037 36.565c-.683.823-2.328 2.526-2.7 2.526a.159.159 0 0 1 -.14-.172 3.552 3.552 0 0 1 .48-.709c.8-1.078 4.428-6.47 5.194-9.988.284-1.307.284-1.333.454-1.333.057 0 1.617.823 1.7.849.794.425 1.163.6 1.163.853 0 .2-.085.227-.849.709a21.851 21.851 0 0 0 -2.867 4.37.708.708 0 0 0 .369.511c.823.626.908.681.908.853a6.746 6.746 0 0 1 -.482.879 6.054 6.054 0 0 0 -.2 2.241c0 1.844.087 10.9.087 12.939a1.362 1.362 0 0 1 -.255.994 1.928 1.928 0 0 1 -1.191.679c-.709 0-.709-.908-.709-1.078 0-.34.112-1.929.112-2.3.142-4.8.113-5.589.113-12.767 0-.626-.255-.794-.4-.794-.172 0-.37.227-.794.737m7.206 9.364c-.113-.142-.113-.142-.113-.2 0-.028.028-.058.083-.058.142 0 1.448.115 1.675.115 1.193.057 1.588.085 2.356.085.511 0 .879-.085.879-.909 0-1.276.028-6.866.028-8.029-.028-.312-.028-.511-.144-.511-.083 0-.142.057-.48.794-2.81 5.76-6.641 8.74-7.206 8.74a.128.128 0 0 1 -.115-.142c0-.085.284-.369.425-.512 3.519-3.6 6.244-10.269 6.244-11.094 0-.34-.314-.34-.484-.34h-1.409c-.654 0-2.384.028-3.152.085-.057 0-.339.057-.4.057-.115 0-.142-.057-.257-.2l-.539-.624c-.113-.144-.113-.17-.113-.2 0-.057.028-.057.085-.057.2 0 1.078.085 1.276.085 1.023.057 2.3.113 3.32.113h2.129c.482 0 .823-.17.823-.908 0-.881-.057-2.469-.113-3.32-.03-.255-.284-1.276-.284-1.5 0-.257.17-.342.425-.342.113 0 1.276.227 1.475.285.737.142 1.136.227 1.136.624 0 .227-.057.312-.425.651-.361.372-.361 2.841-.361 3.664 0 .567.2.851.821.851h2.923c1.3 0 1.447 0 1.815-.482.768-.995.853-1.106 1.08-1.106a5.949 5.949 0 0 1 2.3 1.929c0 .4-.6.4-1.533.4h-6.246c-.284 0-.626 0-.626.4 0 .511 2.952 7.094 8.6 9.762.112.055.622.227.707.282a.248.248 0 0 1 .115.2c0 .172-.879.284-1.051.342a3.923 3.923 0 0 0 -1.163.679.876.876 0 0 1 -.511.257c-.312 0-3.377-2.64-5.5-6.868a32.956 32.956 0 0 1 -1.477-3.434c-.027-.083-.085-.31-.17-.31-.142 0-.142.679-.142.879 0 1.22.059 6.611.059 7.717 0 1.9 0 2.1 1.189 2.1a1.115 1.115 0 0 0 .964-.484c.683-.991.768-1.106.994-1.106a5.817 5.817 0 0 1 2.127 1.931c0 .4-.539.4-1.418.4h-3.01c-.737 0-.823.454-.823.823v.794c0 .511.115 2.781.115 3.235a1.355 1.355 0 0 1 -1.339 1.211c-.681 0-.851-.369-.851-.824 0-.681.2-3.774.2-4.426 0-.823-.539-.823-1.135-.823-.567 0-1.562 0-2.5.085-.085 0-.454.057-.539.057-.113 0-.142-.057-.227-.17z" transform="translate(33.381 20.777)"/><path d="m63.931 47.174c0 1.533-.853 2.613-1.59 2.613a.863.863 0 0 1 -.823-.966 2.171 2.171 0 0 1 .482-1.249 7.46 7.46 0 0 0 .994-3.233c.027-.285.057-.427.142-.427a6.134 6.134 0 0 1 .511 1.333 7.219 7.219 0 0 1 .284 1.929m2.212-5.3a.941.941 0 0 0 -.853.31 1.3 1.3 0 0 1 -1.133.628.685.685 0 0 1 -.737-.739c0-.085.057-.652.085-.963.112-1.477.142-4.77.142-5.68a51.5 51.5 0 0 0 -.2-5.533c-.027-.168-.142-.906-.142-1.078a.312.312 0 0 1 .342-.339c.253 0 .34.027 1.163.511a2.541 2.541 0 0 0 1.475.4h3.235c1.248 0 1.39 0 1.673-.452.285-.512.427-.711.766-.711a2.8 2.8 0 0 1 1.817 1.532c0 .4-.539.4-1.5.4h-1.65c-.936 0-.993.253-.993 1.785 0 .824 0 1.418.652 1.418.425 0 .567-.055.851-.509.142-.229.369-.541.652-.541.369 0 1.56 1.049 1.56 1.418 0 .4-.565.4-1.5.4h-1.335c-.879 0-.879.257-.879 1.533 0 1.135 0 1.418.652 1.418a.627.627 0 0 0 .652-.369c.227-.424.4-.681.683-.681.369 0 1.587 1.049 1.587 1.45 0 .369-.565.369-1.532.369h-.993c-.567 0-1.049.027-1.049.877 0 2.354 0 2.413.993 2.413h.626a.988.988 0 0 0 .934-.4c.257-.314.34-.427.541-.427.085 0 1.929.851 1.929 1.333a.591.591 0 0 1 -.255.454c-.34.316-.34.316-.4.567-.083.486-.339 2.81-.424 3.32-.2 1.392-.908 6.157-3.6 6.157a.683.683 0 0 1 -.539-.254 4.138 4.138 0 0 0 -1.108-1.333c-.31-.2-.964-.654-1.418-.993 0-.057.059-.087.113-.087a7.049 7.049 0 0 1 .768.2 7.639 7.639 0 0 0 1.475.112c1.106 0 1.3-.2 1.617-.853a25.586 25.586 0 0 0 1.361-6.355c0-.709-.537-.709-.794-.709zm.652 5.419c0 .991-.48 1.477-.964 1.477-.511 0-.624-.456-.624-1.051a11.75 11.75 0 0 0 -.34-3.037c-.028-.113-.255-.707-.255-.766s0-.144.083-.144c.115 0 .4.344.881.909 1.078 1.276 1.22 1.874 1.22 2.611m.257-13.9c.906 0 .906-.285.906-1.759 0-1.165 0-1.475-.906-1.475h-.909c-.936 0-.936.284-.936 1.759 0 1.135 0 1.475.936 1.475zm0 3.717c.906 0 .906-.255.906-1.361 0-1.392 0-1.62-.906-1.62h-.938c-.908 0-.908.284-.908 1.363 0 1.39 0 1.619.908 1.619zm-.853.739c-.737 0-.909.252-.909 1.1 0 1.957 0 2.186.938 2.186h.824c.906 0 .906-.4.906-1.448 0-1.473 0-1.842-.906-1.842zm2.127 9.752c-.4 0-.425-.117-.6-1.138a5.912 5.912 0 0 0 -.737-2.267c-.027-.06-.284-.571-.284-.6 0-.087.028-.117.057-.117.312 0 2.384 1.138 2.384 2.925 0 .879-.482 1.193-.824 1.193m3.093-2.528c0 .369-.057.994-.624.994-.425 0-.425-.028-.936-1.533a4.317 4.317 0 0 0 -.6-1.22c-.028-.057-.227-.2-.227-.257s.085-.055.113-.055a2.155 2.155 0 0 1 .964.284c1.191.652 1.3 1.276 1.3 1.787m10.472-1.787c-.17 0-.454 0-.454.314 0 .9 2.354 5.105 6.582 6.353.113.028.6.17.6.229 0 .083-.03.083-.369.14a4.126 4.126 0 0 0 -1.762.993c-.112.085-.4.737-.594.737a11.691 11.691 0 0 1 -4.939-7.376c-.057-.282-.142-.683-.2-.683a.119.119 0 0 0 -.112.117 10.286 10.286 0 0 1 -4.653 7.064 13.583 13.583 0 0 1 -3.379 1.418c-.168 0-.2-.112-.2-.172 0-.112.112-.167.255-.227a11.793 11.793 0 0 0 4.311-3.345 10.414 10.414 0 0 0 2.1-5.082c0-.48-.284-.48-.482-.48h-1.09c-.622 0-.737.172-.879.6a1.281 1.281 0 0 1 -1.218.881c-.569 0-.626-.425-.626-.711 0-.113.057-.4.085-.654a17.986 17.986 0 0 0 .113-2.212 19.21 19.21 0 0 0 -.113-2.581 7.1 7.1 0 0 1 -.2-.737c0-.144.113-.144.2-.144a6.041 6.041 0 0 1 1.193.369 2.724 2.724 0 0 0 1.475.429h.936c.823 0 .823-.569.823-1.081 0-2.1-.17-2.182-.794-2.182-.342 0-2.044.14-2.328.14-.085 0-.142-.055-.253-.2l-.541-.622a.479.479 0 0 1 -.112-.2.089.089 0 0 1 .083-.085c.113 0 1.135.112 1.363.112 1.587.089 2.156.089 2.95.089h.567c.711 0 .964 0 1.191-.23.142-.142.824-1.163 1.08-1.163a3.282 3.282 0 0 1 1.645 1.73c0 .429-.511.429-1.5.429h-.624c-.881 0-.881.424-.881 1.5 0 1.276 0 1.76.881 1.76h1.106a.988.988 0 0 0 .853-.344c.4-.48.452-.539.622-.539.2 0 1.789.966 1.789 1.392 0 .229-.057.255-.4.512a.781.781 0 0 0 -.284.737c0 .509.284 2.95.284 3.517 0 .652-1.021.824-1.416.824-.456 0-.484-.172-.6-.711a.682.682 0 0 0 -.8-.624zm5.674-8.654a2.644 2.644 0 0 0 -1.106.766c-.142.229-.17.255-.2.255-.342 0-2.384-1.5-4.682-5.249-.115-.168-.879-1.418-.936-1.475-.03-.059-.144-.083-.227-.083s-.172 0-.285.167c-1.573 1.992-5.886 6.022-6.909 6.022-.027 0-.055 0-.055-.055s1.049-1.252 1.135-1.335a19.877 19.877 0 0 0 3.973-5.816c.227-.711.255-.824.567-.824.085 0 2.127.709 2.127 1.049 0 .427-.027.512 1.023 1.647 1.447 1.617 3.973 3.8 6.13 4.4.369.085.424.115.369.2a7.983 7.983 0 0 1 -.909.34m-9.052 7.915c.766 0 .851-.17.851-2.3 0-.824-.284-.991-.851-.991h-1.05c-.853 0-.879.45-.879 1.076 0 1.987 0 2.212.906 2.212zm4.682 0c.879 0 .879-.594.879-.908 0-2.157 0-2.381-.964-2.381h-1.135c-.285 0-.8 0-.853.707-.028.484-.112 1.448-.112 1.9s.168.679.794.679z" transform="translate(47.537 20.863)"/><path d="m80.575 41.3c0-.849.794-1.759 2.725-4a13.07 13.07 0 0 0 2.411-4.226c0-.17-.2-.2-.31-.2-.285 0-1.448.227-1.7.227a3.01 3.01 0 0 1 -2.524-2.5c0-.085 0-.2.17-.2a6.646 6.646 0 0 1 1.078.539 4.5 4.5 0 0 0 1.874.512c2.326 0 2.326-.768 2.326-1.335a2.281 2.281 0 0 0 -.229-.993c-.085-.142-.681-.652-.681-.824 0-.227.737-.454 1.25-.454.681 0 1.39.257 1.447.879.03.369.142.427 1.278.512.2 0 1.275.142 1.275.737 0 .936-2.071 1.73-3.375 2.241-.425.172-.454.227-1.078 1.675a21.994 21.994 0 0 1 -1.533 3.063c-.142.257-.2.34-.2.456a.1.1 0 0 0 .115.112 5.746 5.746 0 0 0 .879-.31 2.612 2.612 0 0 1 1.106-.227 2.558 2.558 0 0 1 2.411 1.73c.2.482.227.539.284.539a13.319 13.319 0 0 0 1.163-1.532c.938-1.306 2.783-3.888 5.251-3.888a2.676 2.676 0 0 1 2.666 2.524c0 1.335-2.241 2.271-4 3.037-.709.312-3.916 1.588-4.426 1.9-.454.284-.48.6-.48 1.193 0 .255.055 1.448.055 1.7 0 .454 0 2.072-1.049 2.072-.766 0-.879-.936-.879-1.447 0-.285.085-1.647.085-1.675 0-.113 0-.34-.2-.34-.232.003-2.76 1.764-2.76 3.381 0 1.959 2.838 1.959 3.661 1.959a8.8 8.8 0 0 0 1.817-.17c.4-.057 2.212-.511 2.581-.511.6 0 1.39.284 1.39.964 0 1.76-4.4 1.872-5.079 1.872-3.6 0-5.5-1.475-5.5-3.716 0-1.817 1.08-2.725 3.746-4.88a1.21 1.21 0 0 0 .425-.995c0-1.276-.227-2.865-1.363-2.865-1.076 0-2.751 1.3-3.489 3.007-.312.711-.624 1.392-1.533 1.392-.537 0-1.078-.17-1.078-.938m7.236-10.725c.057 0 1.42-.369 1.42-.681 0-.369-.711-.427-.966-.427-.4 0-.511.8-.511.909s0 .2.057.2m2.583 9.193c0 .057.028.142.112.142s5.676-2.269 5.676-4.143a.873.873 0 0 0 -.993-.851c-2.356 0-4.8 4.4-4.8 4.852" transform="translate(62.262 21.518)"/><path d="m4.375 57.863a12.942 12.942 0 0 1 -.539 1.588 68.234 68.234 0 0 0 -1.193 10.1c0 2.867.541 5.419 4.343 5.419a13.983 13.983 0 0 0 5.958-1.47c.425-.2 2.583-1.392 2.695-1.392a.134.134 0 0 1 .144.142c0 .314-4.2 4.882-9.534 4.882-3.69-.001-5.449-2.132-5.449-7.832a64.94 64.94 0 0 1 .654-7.889c.112-.936.369-3.264.369-4.058a3.539 3.539 0 0 0 -.257-1.39c-.028-.085-.312-.737-.312-.766 0-.2.227-.284.4-.284 1.475 0 2.723 2.3 2.723 2.95" transform="translate(.617 42.432)"/><path d="m14.039 59.535c1.22 0 1.647-.112 5.534-1.218 2.524-.711 8.993-2.556 10.9-2.556.991 0 2.269.4 2.269 1.363a1.127 1.127 0 0 1 -1.142 1.05c-.369 0-1.985-.312-2.326-.312-3.6 0-7.633 3.32-7.633 10.642 0 4.765 1.789 5.079 3.462 5.079.425 0 2.469-.172 2.7-.172.879 0 1.416.369 1.416 1.051 0 1.5-3.118 1.5-3.29 1.5-5.816 0-5.816-4.738-5.816-6.072 0-1.248.027-7.265 4.143-10.925a5.055 5.055 0 0 0 .679-.6c0-.055-.112-.055-.168-.055-1.617 0-7.518 2.523-8.428 3.033a2.051 2.051 0 0 1 -.995.369c-1.416 0-2.75-1.9-2.411-2.3.113-.144.966.112 1.106.112" transform="translate(9.953 43.087)"/><path d="m38.884 57.091c-.369 0-1.56 1.021-2.012 1.418-.369.34-1.448 1.3-2.186 1.3-1.051 0-1.845-2.014-1.845-2.1 0-.17.057-.284.227-.284s.824.113.966.113c.908 0 1.248-.057 2.95-1.136a4.873 4.873 0 0 1 2.725-.936c1.872 0 2.3 1.278 2.3 1.7 0 .6-.255.936-1.732 2.3a25.756 25.756 0 0 0 -4.177 5.769c0 .142.2.17.284.17.369 0 1.959-.028 2.3 0a22.946 22.946 0 0 1 5.361 1.135 1.142 1.142 0 0 0 .456.113c.369 0 .539-2.328.539-2.611 0-.227-.17-1.475-.17-1.588 0-.17.2-.17.312-.17.085 0 2.553.454 2.553 1.562a6.234 6.234 0 0 1 -.622 1.106c0 .057-.4 2.326-.4 2.411 0 .369.17.454.652.709 1.106.6 3.689 1.929 3.689 3.405a1.1 1.1 0 0 1 -1.049 1.078c-.567 0-.879-.227-2.865-1.929-.059-.028-.881-.737-1.165-.737-.227 0-.312.2-.4.339a12.263 12.263 0 0 1 -5.563 5.251 10.476 10.476 0 0 1 -3.065 1.135c-.028 0-.227 0-.227-.085a4.433 4.433 0 0 1 .539-.4c2.81-1.929 4.2-3.063 5.846-5.62a5.245 5.245 0 0 0 .851-1.617c0-.253 0-.4-1.56-1.163a12.3 12.3 0 0 0 -5.222-1.278c-1.759 0-1.815.115-2.3 1.136-2.439 5.194-2.921 6.244-4.71 6.244-1.447 0-1.87-1.56-1.87-2.271 0-2.411 2.523-4.568 5.5-5.62a1.016 1.016 0 0 0 .709-.565c.654-1.051 4.2-6.414 4.343-6.669a4.056 4.056 0 0 0 .369-1.276.365.365 0 0 0 -.342-.34m-9.494 13.678c0 .482.229.823.739.823 1.56 0 3.405-4.171 3.405-4.285 0-.085-.03-.142-.115-.142-1.021 0-4.029 1.93-4.029 3.6" transform="translate(21.87 42.865)"/><path d="m52.547 54.946c-.028-.085-.2-.369-.2-.425 0-.2.539-.2.709-.2.766 0 2.3.711 2.3 1.307a8.036 8.036 0 0 1 -.709 1.5 6.636 6.636 0 0 0 -.424 1.844c0 .057 0 .172.112.172a3.393 3.393 0 0 0 .794-.257 3.46 3.46 0 0 1 1.021-.227c.285 0 .823.085.823.539 0 1.051-1.929 1.618-2.723 1.874-.227.057-.284.085-.312.511-.028.085-.142 1.588-.142 2.753 0 .652 0 .823.369.823.312 0 2.354-.567 2.354-1.477 0-.083-.112-.425-.112-.511s.085-.083.142-.083c.142 0 .737.142.879.142 1.163.083 1.9.142 1.9.764 0 .995-3.148 2.3-4.453 2.725-.881.312-.966.342-.966.624 0 .541.314 3.8.34 4.088.115.936.115 1.048.711 1.275 2.212.909 4.028 2.414 4.028 3.748a1.1 1.1 0 0 1 -.964 1.189c-.4 0-.511-.142-1.532-1.36a5.07 5.07 0 0 0 -1.992-1.533c-.17 0-.227.142-.369.454a5.5 5.5 0 0 1 -4.824 2.867 3.291 3.291 0 0 1 -3.632-3.065c0-1.7 1.732-3.007 5.107-3.007.257 0 1.3.085 1.505.085.31 0 .31-.085.31-1.051 0-.567-.027-2.469-.055-3.233 0-.257 0-.425-.284-.425-.4 0-2.1.142-2.469.142a5.792 5.792 0 0 1 -3.916-1.165 3.187 3.187 0 0 1 -.823-1.3c0-.057 0-.113.085-.113a6.989 6.989 0 0 1 1.078.4 11.053 11.053 0 0 0 3.434.511c.681 0 2.581 0 2.781-.539.027-.085.254-3.8.254-3.831 0-.142-.14-.142-.6-.17-2.012-.142-3.8-1.59-3.8-2.7 0-.057.027-.2.112-.2.03 0 .711.4.8.456a5.019 5.019 0 0 0 2.751.764c.6 0 .879-.142.938-.425a19.846 19.846 0 0 0 .17-2.5 5.435 5.435 0 0 0 -.511-1.759m-2.866 18.3c-.057 0-3.037 0-3.037 1.617 0 1.08 1.477 1.42 2.271 1.42a4.682 4.682 0 0 0 2.808-1.051c.511-.454.768-1.136.654-1.39-.2-.484-2.186-.6-2.7-.6" transform="translate(34.815 41.974)"/><path d="m74.4 59.044c-.2 1.9-.227 2.1-.227 2.269 0 .142.227.142.312.142.113 0 1.108-.112 1.335-.112.622-.057.879-.085.879-.4 0-.168-.057-.227-.567-.707a.237.237 0 0 1 -.115-.172c0-.112.172-.112.229-.112a15.344 15.344 0 0 1 2.042.511c1.787.511 2.212.964 2.212 1.532 0 .737-.821.936-1.39.936s-3.037-.312-3.547-.312c-1.645 0-1.673.057-1.844 1.532-.539 4.2-2.072 5.646-3.093 5.646-.964 0-1.078-.31-1.333-1.133a10.059 10.059 0 0 0 -.541-1.25 3.507 3.507 0 0 1 -.369-.6c0-.057.087-.057.144-.057.312 0 1.588.511 1.845.511a1.021 1.021 0 0 0 .963-.737 12.532 12.532 0 0 0 .823-3.235c0-.227 0-.369-.425-.369-.6 0-5.729 1.135-6.1 1.76a2.276 2.276 0 0 0 -.255 1.163c-.027.936-.085 3.517-.085 3.6 0 2.666.511 4 4.483 4a12.817 12.817 0 0 0 2.5-.229 8.957 8.957 0 0 1 1.361-.2 1.477 1.477 0 0 1 1.533 1.22c0 1.333-2.583 1.333-3.237 1.333-8.116 0-8.116-2.269-8.116-7.662 0-2.383 0-2.666-.511-2.666-.48 0-2.439.879-2.865.879-.626 0-2.921-.541-2.921-2.1 0-.369.112-.4.369-.4.284 0 1.475.113 1.73.113a13.374 13.374 0 0 0 3.6-.4c.454-.142.484-.4.484-1.448a6.914 6.914 0 0 0 -.454-2.978c-.087-.229-.652-1.221-.652-1.335 0-.255.48-.4.823-.4.679 0 2.441.794 2.441 1.787a6.009 6.009 0 0 1 -.142.879 15.5 15.5 0 0 0 -.144 2.186c0 .6 0 .823.369.823.2 0 3.774-.794 4.512-.909 1.76-.284 1.959-.31 2.071-.906.087-.569.142-1.93.142-2.3a4.2 4.2 0 0 0 -.339-1.937 11.42 11.42 0 0 1 -.541-1.048c0-.285.484-.312.626-.312a2.3 2.3 0 0 1 2.411 1.985c0 .057-.4 1.361-.425 1.617" transform="translate(44.447 42.841)"/><path d="m85.268 57.874c0 .454-.172.624-1.562 2.156-2.354 2.583-3.035 3.405-3.744 4.74a7.142 7.142 0 0 0 -.567 1.191c0 .083.027.113.113.113.312-.229.849-.541 1.106-.709a6.214 6.214 0 0 1 3.632-1.25c3.491 0 3.689 3.774 3.689 4.909 0 .425-.172 2.3-.172 2.7a1.889 1.889 0 0 0 2.072 2.071c1.56 0 3.037-1.163 4.4-2.583.113-.112.482-.679.567-.679.057 0 .085.057.085.142a6.384 6.384 0 0 1 -1.333 2.638 7.787 7.787 0 0 1 -5.364 2.78 2.7 2.7 0 0 1 -2.524-2.978c0-.652.454-3.632.454-4.228 0-1.59-.567-3.831-2.666-3.831-.484 0-5.249.541-6.272 7.8-.057.342-.17 1.844-.255 2.127-.057.2-.227.938-.936.938-.342 0-1.333-.284-1.333-2.129 0-.823.085-.993.794-2.64.227-.511 1.135-2.751 1.333-3.177a57.131 57.131 0 0 1 4.228-7.208c.142-.255 1.335-2.524 1.56-3.035a2.935 2.935 0 0 0 .255-1.136c0-.168-.2-1.191-.2-1.3 0-.085.057-.17.2-.17.964 0 2.441 1.9 2.441 2.753" transform="translate(57.689 42.593)"/><path d="m89.9 62.442a.252.252 0 0 1 .257-.229c.085 0 1.56.4 1.87.4a46.864 46.864 0 0 0 4.773-.853c.482-.34.511-3.205.511-3.349a3.583 3.583 0 0 0 -.711-2.411c-.425-.511-.48-.567-.48-.652 0-.2.339-.227.454-.227 1.9 0 3.007 1.078 3.007 1.815 0 .059-1.078 3.661-1.078 4.2 0 .168.113.254.314.254.142 0 1.447-.142 1.673-.142 2.127 0 3.774 1.021 3.774 3.632 0 2.242-.794 7.121-2.441 9.108a4.4 4.4 0 0 1 -2.895 1.73c-1.078 0-1.361-1.049-1.673-1.957-.057-.142-.369-.879-.369-.938a.133.133 0 0 1 .142-.14 5.173 5.173 0 0 1 .709.2 9.005 9.005 0 0 0 1.448.2c.821 0 1.872-.4 2.695-3.462a22.567 22.567 0 0 0 .879-4.937c0-1.987-1.135-2.129-1.957-2.129a6.183 6.183 0 0 0 -2.723.681c-.115.142-.144.257-.427 1.221-1.135 3.857-3.888 10.838-6.185 10.838a.835.835 0 0 1 -.909-.908c0-.6.2-.823 1.9-2.695.766-.853 1.957-2.157 3.489-6.414a7.492 7.492 0 0 0 .4-1.333.2.2 0 0 0 -.2-.227c-.626 0-3.264 1.135-3.833 1.135-1.106 0-2.411-1.789-2.411-2.411m19.807 5.9c-.284 0-1.588-.768-1.93-.851-.142-.058-.908-.115-.908-.2 0-.168.938-.652 1.106-.794 1.049-.794 1.165-.879 1.165-1.645a3.653 3.653 0 0 0 -2.3-3.264c-.227-.113-.681-.31-.681-.425 0-.17.113-.17.2-.17 3.632 0 4.965 3.576 4.965 5.024 0 .339-.425 2.326-1.617 2.326" transform="translate(69.47 42.593)"/><path d="m112.745 67.826a3.149 3.149 0 1 1 -6.3-.028 3.149 3.149 0 0 1 6.3.028m-5.5-.028a2.382 2.382 0 0 0 2.384 2.384 2.342 2.342 0 0 0 2.352-2.328 2.377 2.377 0 0 0 -2.413-2.383 2.293 2.293 0 0 0 -2.324 2.326" transform="translate(82.255 49.976)"/></g></svg>