<svg id="グループ_2982" data-name="グループ 2982" xmlns="http://www.w3.org/2000/svg" xmlns:xlink="http://www.w3.org/1999/xlink" width="277.709" height="120.461" viewBox="0 0 277.709 120.461">
  <defs>
    <clipPath id="clip-path">
      <rect id="長方形_2479" data-name="長方形 2479" width="277.709" height="120.461" fill="none"/>
    </clipPath>
  </defs>
  <g id="グループ_2981" data-name="グループ 2981" clip-path="url(#clip-path)">
    <path id="パス_10899" data-name="パス 10899" d="M11.266,19.151c4.186-1.175,7.955-3.647,7.955-7.441,0-2.423-1.787-3.867-4.21-3.867-2.031-.024-4.014,1-6.511,3.28V12.4c0,1.737.024,3.255.049,4.381.024,1,.073,1.346.073,1.811,0,1.493-.514,2.473-1.126,2.5H7.448c-.392,0-.637-.245-.71-1.028a4.568,4.568,0,0,0-.49-1.64,13.422,13.422,0,0,0-1.3-2.056l.366-.294c.441.416.881.783,1.224,1.077.147.122.269.22.367.22.122,0,.147-.1.171-.588.049-1.542.049-3.035.049-4.553-1.273,1.763-2.521,3.549-3.794,5.458a1.164,1.164,0,0,1-1,.539H2.258c-.416,0-.734-.514-.734-1a1.631,1.631,0,0,1,.514-1.076c1.028-1.077,1.91-2.154,2.938-3.451a29.178,29.178,0,0,0,2.3-3.305c.024-.685.049-1.248.049-1.86-1.028.49-1.982.955-2.864,1.468a1.3,1.3,0,0,1-.637.295,2.427,2.427,0,0,1-1.3-.881,2.4,2.4,0,0,1-.637-1.469l.367-.171a1.72,1.72,0,0,0,1.224.808,4.518,4.518,0,0,0,1.3-.269A18.3,18.3,0,0,0,7.4,6.2c.024-1.052.049-2.129.049-3.5,0-.759-.147-1.053-.686-1.272a2.964,2.964,0,0,0-.906-.172H5.735L5.661.842A2.663,2.663,0,0,1,7.007.475a4.434,4.434,0,0,1,2.1.857c.367.245.588.514.588.782,0,.2-.1.318-.269.514a2.1,2.1,0,0,0-.391.979c-.1.637-.147,1.224-.2,1.885a.975.975,0,0,1,.514-.147c.245,0,.906.513.906.831,0,.171-.1.318-.294.612A18.9,18.9,0,0,0,8.55,9.067V9.6a11.5,11.5,0,0,1,6.584-2.717c3.7,0,6.119,2.1,6.119,5.14,0,5.116-5.286,7.074-9.839,7.686Z" transform="translate(-0.032 -0.01)" fill="#1a1311"/>
    <path id="パス_10900" data-name="パス 10900" d="M34.767,1.068A4.3,4.3,0,0,1,36.236.725a5.379,5.379,0,0,1,2.155.759c.612.342.782.685.782,1a.832.832,0,0,1-.293.637,3.152,3.152,0,0,0-.637.734c-.22.49-.392.881-.686,1.518a5.682,5.682,0,0,0,1.492-.759,1.089,1.089,0,0,1,.734-.22c.734,0,1.224.269,1.224.734s-.22.685-1.1,1c-.782.293-1.714.562-3.01.954-1.91,4.5-3.5,8.273-5.091,11.945a1.276,1.276,0,0,1-1.2.929.905.905,0,0,1-.807-.9,3.869,3.869,0,0,1,.538-1.42C32.05,14.432,33.616,11.1,35.183,7.5a14.5,14.5,0,0,1-2.643.27A3.133,3.133,0,0,1,29.725,5.89l.342-.319a3.1,3.1,0,0,0,2.2.807,15.106,15.106,0,0,0,3.525-.488A19.234,19.234,0,0,0,36.6,3.784a5.037,5.037,0,0,0,.245-1.176c0-.611-.734-.978-2.008-1.1Zm2.154,10.255A11.206,11.206,0,0,1,44.288,8.7a8.559,8.559,0,0,1,3.01.416.986.986,0,0,1,.734,1c0,.44-.318.685-.93.685-.416,0-1.248-.122-1.664-.122a4.577,4.577,0,0,0-1.91.465c-2.839,1.274-4.283,3.207-4.283,4.872,0,2.079,1.639,2.888,4.748,2.888a9.532,9.532,0,0,0,2.031-.122,3.273,3.273,0,0,1,.906-.172c1.322,0,1.787.442,1.787,1.077a.787.787,0,0,1-.539.784,9.683,9.683,0,0,1-3.01.317c-4.92,0-6.977-1.567-6.977-4.4,0-1.959,1.322-3.916,4.945-6.389a11.171,11.171,0,0,0-5.923,1.762Z" transform="translate(-0.615 -0.015)" fill="#1a1311"/>
    <path id="パス_10901" data-name="パス 10901" d="M75.9,14.813a13.564,13.564,0,0,1-10.476,5.459,4.529,4.529,0,0,1-3.232-1,3.864,3.864,0,0,1-.978-2.986c0-.783.1-2.448.171-5.043.1-2.5.2-4.822.2-7.075,0-1.15-.245-1.517-1.077-1.737a2.949,2.949,0,0,0-.857-.1l-.1-.367A2.274,2.274,0,0,1,61.018,1.4a3.9,3.9,0,0,1,2.056.857c.734.514.955.808.955,1.126a1.01,1.01,0,0,1-.294.686,1.831,1.831,0,0,0-.294,1.027c-.122,1.2-.245,2.522-.367,4.945-.073,1.861-.1,3.28-.1,4.43v1c.024,1.346.122,2.007.563,2.5a2.687,2.687,0,0,0,1.959.588,15.413,15.413,0,0,0,10.011-4.186Z" transform="translate(-1.231 -0.029)" fill="#1a1311"/>
    <path id="パス_10902" data-name="パス 10902" d="M97.22,19.141a9,9,0,0,0,1.665-.66,16.218,16.218,0,0,0-4.039-1.64c.024,2.594-1.321,3.794-4.112,3.794-2.374,0-4.21-.955-4.21-2.741,0-1.738,2.007-2.742,4.7-2.742.637,0,1.42.024,1.982.073-.122-3.4-.317-7.1-.464-10.476-.073-1.958-.343-2.179-1.175-2.472a1.639,1.639,0,0,0-.637-.1c-.122,0-.245.024-.392.024l-.073-.415a3.619,3.619,0,0,1,1.469-.539,5.234,5.234,0,0,1,2.423.93c.465.268.637.562.637.807a.816.816,0,0,1-.2.588c-.269.318-.318.514-.318,1.616V6.242c0,.172.049.221.22.221A16.635,16.635,0,0,0,97.881,5.9a2.8,2.8,0,0,0,.783-.318,2.475,2.475,0,0,1,1.3-.441c.906,0,1.468.294,1.468.906,0,.392-.195.734-1.028.929a25.519,25.519,0,0,1-4.307.71,4.806,4.806,0,0,1-1.616-.294c.122,2.888.269,5.85.367,7.98a16.317,16.317,0,0,1,6,2.2,2.186,2.186,0,0,1,1.15,1.688.661.661,0,0,1-.71.686,3.051,3.051,0,0,1-1.027-.269,4.931,4.931,0,0,0-1.64-.219c-.294,0-.71,0-1.347.048Zm-6.633-2.864c-1.909,0-3.108.563-3.108,1.493,0,.832.881,1.468,2.643,1.492a3.07,3.07,0,0,0,2.546-.831,2.889,2.889,0,0,0,.562-1.885,10.538,10.538,0,0,0-2.643-.269" transform="translate(-1.789 -0.026)" fill="#1a1311"/>
    <path id="パス_10903" data-name="パス 10903" d="M117.185,0A6.077,6.077,0,0,1,118.9,1.639a1.886,1.886,0,0,1,.415,1.151,6.846,6.846,0,0,1-.367,1.567,21.166,21.166,0,0,0-1.076,5.409v1.273h.122a37.908,37.908,0,0,1,2.447-6.021c.808-1.469,1.689-2.228,2.766-2.228,2.228,0,3.671,2.6,3.671,7.563,0,5.63-2.4,9.4-8.86,11.161l-.22-.539c5.727-2.5,7.245-6.413,7.245-11.7,0-3.525-.881-5.459-2.057-5.459-.856,0-1.395.734-1.884,1.762a29.289,29.289,0,0,0-2.008,5.606,7,7,0,0,0-.244,1.616c0,.587.122,1.151.122,1.615,0,.612-.245,1.028-.734,1.028a1,1,0,0,1-.808-.514c-.661-.93-.881-2.717-.881-4.553a32.205,32.205,0,0,1,.759-6.217A17.859,17.859,0,0,0,117.6,2.1a2.461,2.461,0,0,0-.22-.929,5.083,5.083,0,0,0-.49-.808Z" transform="translate(-2.41 0)" fill="#1a1311"/>
    <path id="パス_10904" data-name="パス 10904" d="M138.322,14.621a12.267,12.267,0,0,1,5.7,2.326,4.338,4.338,0,0,1,1.86,3.231c0,1.151-.563,1.762-1.42,1.762-.612,0-1.027-.514-1.346-1.468a9.264,9.264,0,0,0-4.92-5.41Z" transform="translate(-2.858 -0.302)" fill="#1a1311"/>
    <path id="パス_10905" data-name="パス 10905" d="M176.266,19.151c4.186-1.175,7.955-3.647,7.955-7.441,0-2.423-1.787-3.867-4.21-3.867-2.031-.024-4.014,1-6.511,3.28V12.4c0,1.737.025,3.255.049,4.381.024,1,.074,1.346.074,1.811,0,1.493-.514,2.473-1.126,2.5h-.049c-.392,0-.637-.245-.71-1.028a4.569,4.569,0,0,0-.49-1.64,13.414,13.414,0,0,0-1.3-2.056l.366-.294c.441.416.881.783,1.224,1.077.147.122.269.22.367.22.122,0,.147-.1.171-.588.049-1.542.049-3.035.049-4.553-1.273,1.763-2.521,3.549-3.794,5.458a1.164,1.164,0,0,1-1,.539h-.073c-.416,0-.735-.514-.735-1a1.631,1.631,0,0,1,.514-1.076c1.028-1.077,1.91-2.154,2.938-3.451a29.184,29.184,0,0,0,2.3-3.305c.024-.685.049-1.248.049-1.86-1.028.49-1.982.955-2.863,1.468a1.3,1.3,0,0,1-.637.295,2.427,2.427,0,0,1-1.3-.881,2.4,2.4,0,0,1-.637-1.469l.367-.171a1.72,1.72,0,0,0,1.224.808,4.518,4.518,0,0,0,1.3-.269,18.3,18.3,0,0,0,2.62-1.1c.024-1.052.049-2.129.049-3.5,0-.759-.147-1.053-.685-1.272a2.964,2.964,0,0,0-.906-.172h-.121l-.074-.415a2.663,2.663,0,0,1,1.347-.367,4.434,4.434,0,0,1,2.1.857c.367.245.588.514.588.782,0,.2-.1.318-.269.514a2.1,2.1,0,0,0-.391.979c-.1.637-.147,1.224-.2,1.885a.975.975,0,0,1,.514-.147c.245,0,.906.513.906.831,0,.171-.1.318-.294.612a18.9,18.9,0,0,0-1.419,2.277V9.6a11.505,11.505,0,0,1,6.584-2.717c3.7,0,6.119,2.1,6.119,5.14,0,5.116-5.286,7.074-9.839,7.686Z" transform="translate(-3.444 -0.01)" fill="#1a1311"/>
    <path id="パス_10906" data-name="パス 10906" d="M199.767,1.068a4.3,4.3,0,0,1,1.469-.343,5.379,5.379,0,0,1,2.155.759c.612.342.782.685.782,1a.832.832,0,0,1-.293.637,3.152,3.152,0,0,0-.637.734c-.22.49-.392.881-.686,1.518a5.683,5.683,0,0,0,1.492-.759,1.089,1.089,0,0,1,.734-.22c.735,0,1.224.269,1.224.734s-.22.685-1.1,1c-.782.293-1.714.562-3.01.954-1.91,4.5-3.5,8.273-5.092,11.945a1.276,1.276,0,0,1-1.2.929.905.905,0,0,1-.807-.9,3.868,3.868,0,0,1,.538-1.42c1.714-3.206,3.28-6.535,4.847-10.134a14.5,14.5,0,0,1-2.643.27,3.133,3.133,0,0,1-2.815-1.884l.342-.319a3.1,3.1,0,0,0,2.2.807,15.106,15.106,0,0,0,3.525-.488,19.228,19.228,0,0,0,.808-2.106,5.036,5.036,0,0,0,.245-1.176c0-.611-.734-.978-2.008-1.1Zm2.155,10.255a11.206,11.206,0,0,1,7.367-2.62,8.56,8.56,0,0,1,3.01.416.986.986,0,0,1,.734,1c0,.44-.318.685-.93.685-.416,0-1.248-.122-1.664-.122a4.577,4.577,0,0,0-1.91.465c-2.839,1.274-4.283,3.207-4.283,4.872,0,2.079,1.639,2.888,4.748,2.888a9.531,9.531,0,0,0,2.031-.122,3.274,3.274,0,0,1,.906-.172c1.322,0,1.787.442,1.787,1.077a.787.787,0,0,1-.539.784,9.683,9.683,0,0,1-3.01.317c-4.92,0-6.977-1.567-6.977-4.4,0-1.959,1.322-3.916,4.945-6.389a11.171,11.171,0,0,0-5.923,1.762Z" transform="translate(-4.027 -0.015)" fill="#1a1311"/>
    <path id="パス_10907" data-name="パス 10907" d="M240.9,14.813a13.564,13.564,0,0,1-10.476,5.459,4.529,4.529,0,0,1-3.232-1,3.864,3.864,0,0,1-.978-2.986c0-.783.1-2.448.171-5.043.1-2.5.2-4.822.2-7.075,0-1.15-.245-1.517-1.077-1.737a2.95,2.95,0,0,0-.857-.1l-.1-.367a2.274,2.274,0,0,1,1.469-.563,3.9,3.9,0,0,1,2.056.857c.734.514.955.808.955,1.126a1.01,1.01,0,0,1-.294.686,1.831,1.831,0,0,0-.294,1.027c-.122,1.2-.245,2.522-.367,4.945-.073,1.861-.1,3.28-.1,4.43v1c.025,1.346.122,2.007.563,2.5a2.687,2.687,0,0,0,1.959.588,15.413,15.413,0,0,0,10.011-4.186Z" transform="translate(-4.644 -0.029)" fill="#1a1311"/>
    <path id="パス_10908" data-name="パス 10908" d="M264.172,7.033a5.439,5.439,0,0,1,1.126-.1,2.781,2.781,0,0,1,1,.2,6.005,6.005,0,0,1,1.419.832,1.2,1.2,0,0,1,.539.906c0,.294-.245.49-.612.588a10.7,10.7,0,0,0-1.493.465c-2.056.954-3.622,1.688-5.9,2.864.025,1.517.049,2.692.049,3.549v.539a.976.976,0,0,1-.979.978c-.49,0-.734-.367-.734-.954v-.073c.026-1.077.074-2.106.074-3.256-2.594,1.567-3.476,2.4-3.476,3.795,0,1.2,1.126,1.884,3.281,1.884,1.076,0,2.178-.049,3.084-.122a6.661,6.661,0,0,0,1.566-.343,2.7,2.7,0,0,1,1.028-.147h.073c.979,0,1.64.49,1.665,1.077a.743.743,0,0,1-.637.857,28.715,28.715,0,0,1-4.5.318,20,20,0,0,1-2.913-.147c-2.571-.269-3.843-1.493-3.843-3.206,0-1.665,1.347-3.207,4.651-5.238a14.988,14.988,0,0,0-.074-1.934,1.062,1.062,0,0,0-1.1-1.027,4.266,4.266,0,0,0-2.962,1.59,24.842,24.842,0,0,0-1.811,2.13,1.212,1.212,0,0,1-.93.539.8.8,0,0,1-.784-.906c0-.416.171-.808.808-1.4a15.34,15.34,0,0,0,1.738-1.933,19.4,19.4,0,0,0,2.031-3.281,17.825,17.825,0,0,1-2.864.269A2.926,2.926,0,0,1,250,4.512l.366-.318a2.9,2.9,0,0,0,2.424.88,16.355,16.355,0,0,0,3.476-.464,9.212,9.212,0,0,0,.563-1.493,4.287,4.287,0,0,0,.2-1.027.735.735,0,0,0-.416-.661,2.547,2.547,0,0,0-1.175-.294l-.024-.367A2.828,2.828,0,0,1,256.682.4a3.705,3.705,0,0,1,1.909.686c.514.317.685.539.685.807a.67.67,0,0,1-.268.514,2.647,2.647,0,0,0-.442.539c-.195.343-.464.832-.709,1.3a8.454,8.454,0,0,0,2.472-.979,1.962,1.962,0,0,1,.979-.269c.612.024.955.294.955.686a.743.743,0,0,1-.441.759,9.341,9.341,0,0,1-1.493.539c-.93.294-1.763.489-3.231.856-.612,1.175-1.2,2.2-1.983,3.477a5.47,5.47,0,0,1,2.767-.857,2.033,2.033,0,0,1,2.056,1.664,4.856,4.856,0,0,1,.269,1.4c1.959-1.126,3.4-1.982,4.431-2.619.588-.367.783-.539.783-.734a.423.423,0,0,0-.245-.392,2.422,2.422,0,0,0-1.053-.318Z" transform="translate(-5.17 -0.008)" fill="#1a1311"/>
    <path id="パス_10909" data-name="パス 10909" d="M0,57.027A46.782,46.782,0,0,0,4.626,44.445c2.546.612,2.888.857,2.888,1.15,0,.319-.244.514-1.052.687A27.669,27.669,0,0,1,4.529,51c.879.2,1.124.367,1.124.563,0,.22-.147.392-.709.637v2.643c0,7.735.1,10.33.1,11.357,0,.442-.709.857-1.516.857-.367,0-.54-.171-.54-.465,0-.929.148-3.525.148-11.773v-1.37A35.121,35.121,0,0,1,.391,57.272Zm19.362-7.833a21.423,21.423,0,0,1,1.492-1.64c2.007,1.567,2.251,1.885,2.251,2.1,0,.172-.147.295-.392.295H8.542l-2.056.122v-1l2.056.122Zm-.931,10.084c.442-.955.612-1.053.882-1.053.317,0,.513.074,1.222.637.759.612.857.783.857,1.053s-.22.465-.881.759v.906c0,1.835.1,2.961.1,3.818,0,.514-.687.857-1.469.857-.343,0-.539-.172-.539-.49v-.808H10.354v.88c0,.564-.638.906-1.42.906-.416,0-.588-.147-.588-.441,0-.758.1-1.909.1-4.87,0-1.1-.025-2.032-.073-3.109a10.565,10.565,0,0,1,2.424.955Zm-1.1-6.8A19.008,19.008,0,0,1,18.7,51c1.859,1.4,2.154,1.738,2.154,1.959,0,.147-.147.269-.391.269H10.623l-2.056.122v-1l2.056.122Zm0,3.353c.417-.465.882-1,1.372-1.493,1.885,1.42,2.177,1.763,2.177,1.959,0,.171-.146.294-.391.294H10.623l-2.056.122v-1l2.056.122Zm.564-10.11c.391-.464.88-.954,1.37-1.492,1.909,1.445,2.179,1.762,2.179,1.982,0,.147-.148.269-.393.269h-10.4L8.592,46.6v-1l2.057.122Zm-7.221,14.32-.318.343V64.2H18.6V60.037Z" transform="translate(0 -0.915)" fill="#1a1311"/>
    <path id="パス_10910" data-name="パス 10910" d="M48.374,60.345A13.561,13.561,0,0,1,37.9,65.8a4.528,4.528,0,0,1-3.231-1,3.857,3.857,0,0,1-.979-2.986c0-.783.1-2.448.171-5.042.1-2.5.2-4.822.2-7.075,0-1.15-.245-1.517-1.077-1.737a2.919,2.919,0,0,0-.856-.1l-.1-.366a2.27,2.27,0,0,1,1.468-.563,3.9,3.9,0,0,1,2.057.857c.734.514.954.807.954,1.125a1.014,1.014,0,0,1-.293.686,1.832,1.832,0,0,0-.294,1.028c-.122,1.2-.245,2.521-.367,4.944-.073,1.861-.1,3.281-.1,4.43v1c.024,1.347.122,2.008.562,2.5a2.689,2.689,0,0,0,1.959.588,15.417,15.417,0,0,0,10.012-4.186ZM40.468,47.911a7.32,7.32,0,0,1,3.06,1.223,1.912,1.912,0,0,1,.807,1.444c0,.612-.342.954-.807.954-.49,0-.686-.366-1.1-1.076A6.483,6.483,0,0,0,40.321,48.3Zm2.252-1.787a7.3,7.3,0,0,1,3.108,1.053A1.722,1.722,0,0,1,46.71,48.6a.835.835,0,0,1-.808.93c-.294,0-.563-.147-.978-.881A6.143,6.143,0,0,0,42.6,46.516Z" transform="translate(-0.662 -0.954)" fill="#1a1311"/>
    <path id="パス_10911" data-name="パス 10911" d="M56.592,50.572c.832,1.053,1.2,1.125,1.737,1.125a17.22,17.22,0,0,0,2.644-.391c3.206-.686,6.8-1.493,10.476-2.4a5.753,5.753,0,0,0,1.3-.49,2.12,2.12,0,0,1,.955-.269,4.573,4.573,0,0,1,1.909.465,1,1,0,0,1,.612.955c0,.539-.269.71-1.125.71a12.911,12.911,0,0,0-5.287.808c-3.354,1.445-4.969,3.941-4.969,6.706,0,3.329,2.766,4.847,5.165,4.969a7.3,7.3,0,0,0,.929.049,2.819,2.819,0,0,0,.49-.024,2.7,2.7,0,0,1,.686-.073c1.028,0,1.885.71,1.885,1.395,0,.637-.294.881-1.347.906h-.22a13.21,13.21,0,0,1-5.091-.93,6.1,6.1,0,0,1-3.916-5.9c0-2.5,1.322-5.091,4.455-7.269-2.619.734-4.651,1.272-7.123,2.056a7.355,7.355,0,0,0-1.469.637,1.3,1.3,0,0,1-.661.2,1.633,1.633,0,0,1-.978-.441,3.413,3.413,0,0,1-1.445-2.1,2.593,2.593,0,0,1,.073-.661Z" transform="translate(-1.162 -0.996)" fill="#1a1311"/>
    <path id="パス_10912" data-name="パス 10912" d="M93.833,45.774a3.745,3.745,0,0,1,2.081.759A5.863,5.863,0,0,1,97.358,48a1.162,1.162,0,0,1,.171.611c0,.319-.147.49-.588.661a5.174,5.174,0,0,0-.979.588c-1,.857-1.786,1.567-2.766,2.423-1.053.956-1.885,1.689-2.669,2.375a1.3,1.3,0,0,0-.562.955c0,.392.269.734.857,1.223,1.444,1.2,2.888,2.375,4.112,3.549a17.961,17.961,0,0,1,2.839,3.33,1.9,1.9,0,0,1,.343,1.053,1.163,1.163,0,0,1-1.028,1.3c-.392,0-.661-.147-.979-.734a22.808,22.808,0,0,0-4.724-6.07c-.709-.637-1.37-1.2-2.031-1.763a2.148,2.148,0,0,1-.906-1.688,2.285,2.285,0,0,1,.783-1.689c1.786-1.86,3.574-3.671,4.945-5.286a2.523,2.523,0,0,0,.734-1.371c0-.318-.294-.808-1.249-1.273Z" transform="translate(-1.829 -0.947)" fill="#1a1311"/>
    <path id="パス_10913" data-name="パス 10913" d="M133.421,58.331c-.955,3.182-3.059,5.849-5.947,5.875a2.571,2.571,0,0,1-2.742-2.791c0-1.1.122-2.472.318-4.406.2-1.861.367-3.72.367-5.213,0-.759-.343-1.126-.857-1.126a2.774,2.774,0,0,0-1.665.906,65.6,65.6,0,0,0-5.58,5.752c0,1.224.049,2.424.049,3.476.025,1.053.049,1.934.073,2.522,0,.17.024.343.024.514a2.5,2.5,0,0,1-.343,1.492.96.96,0,0,1-.783.539c-.342,0-.563-.2-.661-.808a5.516,5.516,0,0,0-1.615-3.3l.318-.318c.441.367.9.783,1.3,1.053a.328.328,0,0,0,.171.073c.1,0,.148-.073.148-.2,0-1.175.024-2.644.048-3.941-.979,1.322-1.933,2.668-2.815,3.916-.539.71-.759.881-1.272.881a.864.864,0,0,1-.93-.808c0-.294.121-.514.489-.881a24.973,24.973,0,0,0,1.738-1.86,17.022,17.022,0,0,0,2.888-4.236c.049-.758.073-1.444.1-1.933a15.292,15.292,0,0,0-2.252,1.175,1.153,1.153,0,0,1-.612.245c-.269,0-.637-.2-1.174-.734a2.288,2.288,0,0,1-.637-1.493l.342-.122a1.274,1.274,0,0,0,1.126.734,10.69,10.69,0,0,0,3.255-1.151c.024-1.468.1-3.035.1-4.21,0-.637-.122-.978-.513-1.126a4.079,4.079,0,0,0-1.151-.195l-.1-.392a2.985,2.985,0,0,1,1.346-.441,3.948,3.948,0,0,1,2.008.832c.441.343.637.637.637.929a.769.769,0,0,1-.294.612,1.77,1.77,0,0,0-.441,1.126c-.073.539-.122,1.1-.2,2.227a.789.789,0,0,1,.416-.147.717.717,0,0,1,.22.05.881.881,0,0,1,.514.709,1.572,1.572,0,0,1-.294.71c-.416.808-.783,1.616-1.2,2.522l-.024.415a57.23,57.23,0,0,1,5.777-5.458,3.317,3.317,0,0,1,1.786-.71h.1a2.391,2.391,0,0,1,2.375,2.276c0,.416-.122.93-.22,1.738a71.272,71.272,0,0,0-.759,7.294c0,1.224.392,1.689,1.518,1.689,1.615,0,3.719-1.689,5.066-4.528Z" transform="translate(-2.296 -0.947)" fill="#1a1311"/>
    <path id="パス_10914" data-name="パス 10914" d="M146.148,55.872a8.491,8.491,0,0,1,4.7-1.371c3.378,0,5.777,2.057,5.777,5.189,0,3.4-3.232,5.924-7.661,5.948-2.791,0-4.774-1.077-4.774-2.913A2.308,2.308,0,0,1,146.76,60.6a4.219,4.219,0,0,1,3.671,2.2,2.727,2.727,0,0,1,.245.66,1.515,1.515,0,0,1,.024.318.68.68,0,0,1-.024.22c2.669-.734,3.99-2.521,3.99-4.7,0-2.1-1.518-3.818-4.333-3.818a8.026,8.026,0,0,0-5.213,2.277,12.43,12.43,0,0,0-1.763,2.007,1.278,1.278,0,0,1-1.053.563.863.863,0,0,1-.881-.881,1.417,1.417,0,0,1,.539-1.126c.392-.366.955-.9,1.444-1.395a108.454,108.454,0,0,0,7.1-8.567.391.391,0,0,0,.074-.2c0-.073-.049-.122-.147-.122a.431.431,0,0,0-.147.024,28.016,28.016,0,0,0-3.769,1.322c-.563.22-.808.343-.979.416a1.173,1.173,0,0,1-.636.22c-.612,0-1.445-1.151-1.542-1.91a3.613,3.613,0,0,1-.025-.49,2.654,2.654,0,0,1,.025-.441l.367-.1c.49.759.93,1.053,1.273,1.053a4.894,4.894,0,0,0,1.2-.171c1.371-.343,2.692-.709,4.234-1.223a1.193,1.193,0,0,1,.759-.319,4.128,4.128,0,0,1,1.518.661c.464.295.661.49.661.783,0,.22-.122.416-.514.661a5.487,5.487,0,0,0-1.249,1c-2.031,2.276-3.623,4.039-5.557,6.266Zm.367,5.606c-.808,0-1.347.392-1.347,1.125,0,.979,1.347,1.689,3.526,1.689.17,0,.367-.024.538-.024-.464-1.59-1.492-2.766-2.717-2.79" transform="translate(-2.925 -0.96)" fill="#1a1311"/>
    <path id="パス_10915" data-name="パス 10915" d="M165.25,65.955a19.975,19.975,0,0,0,6.242-6.143c2.423-3.72,3.427-8.126,3.573-14.662,2.815.343,3.232.563,3.232.906,0,.269-.2.514-1,.734a23.376,23.376,0,0,0,4.357,11.724,20.135,20.135,0,0,0,6.559,5.7l-.147.44a2.917,2.917,0,0,0-2.374,1.249,23.407,23.407,0,0,1-5.483-6.168,24.25,24.25,0,0,1-3.231-10.232,22.115,22.115,0,0,1-4.014,11.186,17.716,17.716,0,0,1-7.465,5.63Z" transform="translate(-3.417 -0.934)" fill="#1a1311"/>
    <path id="パス_10916" data-name="パス 10916" d="M198.652,61.952a5.488,5.488,0,0,0,2.2.955h.1c.809,0,1.175-.343,1.665-1.1a12.447,12.447,0,0,0,1.371-2.913,16.988,16.988,0,0,0,.808-4.552c0-1.175-.588-1.493-1.224-1.493a9.574,9.574,0,0,0-1.959.318c-2.154,4.577-4.186,8.445-5.7,11.088-.318.563-.661.759-1.028.759-.49,0-.783-.539-.783-1.028a1.7,1.7,0,0,1,.416-1.052,68.367,68.367,0,0,0,5.361-9.351c-1.053.269-1.934.514-2.814.832-.27.122-.465.244-.612.317a1.024,1.024,0,0,1-.49.122c-.392,0-1.028-.562-1.542-1.444a1.692,1.692,0,0,1-.22-.93,2.832,2.832,0,0,1,.024-.416l.318-.024c.416.734.783.93,1.347.93a13.4,13.4,0,0,0,1.395-.122c1.077-.171,2.179-.367,3.207-.563.514-1.2.831-2.056,1.1-2.864a4.011,4.011,0,0,0,.22-.93.869.869,0,0,0-.44-.734A3.05,3.05,0,0,0,200,47.412l-.025-.392a3.194,3.194,0,0,1,1.248-.293,4.385,4.385,0,0,1,2.4.9c.416.318.563.563.563.832a.734.734,0,0,1-.367.612,2.635,2.635,0,0,0-.661.906c-.343.686-.588,1.223-.955,2.031a12.024,12.024,0,0,1,1.591-.147c1.419,0,2.4,1.053,2.4,2.962A16.446,16.446,0,0,1,204.6,61.9c-1.076,2.178-2.423,3.157-4.062,3.157a.789.789,0,0,1-.857-.832,1.625,1.625,0,0,0-.318-.759,8.305,8.305,0,0,0-1-1.2Zm10.011-2.35c1.371-.441,2.3-.808,3.06-1.125.269-.122.441-.294.441-.465a1.219,1.219,0,0,0-.269-.759,10.3,10.3,0,0,0-4.284-3.671l.22-.514a10.825,10.825,0,0,1,4.9,2.717,5.814,5.814,0,0,1,2.031,3.623c0,.808-.318,1.126-.734,1.126a1.451,1.451,0,0,1-.9-.49,1.872,1.872,0,0,0-1.175-.367h-.122a20.084,20.084,0,0,0-3.06.441Zm-.317-12.165A7.322,7.322,0,0,1,211.4,48.66a1.913,1.913,0,0,1,.808,1.444c0,.611-.343.954-.808.954-.49,0-.686-.367-1.1-1.076a6.5,6.5,0,0,0-2.1-2.154ZM210.6,45.65a7.3,7.3,0,0,1,3.108,1.053,1.722,1.722,0,0,1,.881,1.419.835.835,0,0,1-.807.93c-.295,0-.564-.147-.979-.881a6.145,6.145,0,0,0-2.326-2.13Z" transform="translate(-4.014 -0.944)" fill="#1a1311"/>
    <path id="パス_10917" data-name="パス 10917" d="M235.832,58.71a17.337,17.337,0,0,0,2.521-.441.561.561,0,0,0,.49-.612c-.049-1.762-2.2-4.259-4.259-4.259-1.223,0-2.349,1.028-3.427,2.546a25.323,25.323,0,0,0-2.79,5.042,1.862,1.862,0,0,0-.171.759,2.207,2.207,0,0,0,.1.465,2.064,2.064,0,0,1,.147.734.757.757,0,0,1-.759.734h-.049a3.181,3.181,0,0,1-2.2-1.3c-1.664-1.958-2.4-4.6-2.374-8.714a21.649,21.649,0,0,0-.122-3.182,2.908,2.908,0,0,0-.808-1.444l.269-.317a6.714,6.714,0,0,1,1.028.611,6.944,6.944,0,0,1,1.224,1.3,1.9,1.9,0,0,1,.392.93,12.772,12.772,0,0,1-.221,1.371,13.621,13.621,0,0,0-.219,2.521V55.8a6.874,6.874,0,0,0,1.321,4.381.629.629,0,0,0,.465.245c.2,0,.367-.1.637-.49a30.634,30.634,0,0,1,4.724-6.242,4.466,4.466,0,0,1,3.108-1.2,6.776,6.776,0,0,1,6.34,6.463c0,1.126-.392,1.689-1,1.689a1.1,1.1,0,0,1-.881-.563,1.738,1.738,0,0,0-1.077-.637,15.8,15.8,0,0,0-2.4-.245Z" transform="translate(-4.593 -1.008)" fill="#1a1311"/>
    <path id="パス_10918" data-name="パス 10918" d="M256.148,55.872a8.49,8.49,0,0,1,4.7-1.371c3.378,0,5.777,2.057,5.777,5.189,0,3.4-3.232,5.924-7.661,5.948-2.791,0-4.774-1.077-4.774-2.913A2.308,2.308,0,0,1,256.76,60.6a4.22,4.22,0,0,1,3.672,2.2,2.732,2.732,0,0,1,.245.66,1.513,1.513,0,0,1,.024.318.679.679,0,0,1-.024.22c2.669-.734,3.99-2.521,3.99-4.7,0-2.1-1.518-3.818-4.333-3.818a8.026,8.026,0,0,0-5.213,2.277,12.434,12.434,0,0,0-1.763,2.007,1.278,1.278,0,0,1-1.053.563.863.863,0,0,1-.881-.881,1.416,1.416,0,0,1,.539-1.126c.392-.366.955-.9,1.444-1.395a108.437,108.437,0,0,0,7.1-8.567.39.39,0,0,0,.073-.2c0-.073-.049-.122-.147-.122a.432.432,0,0,0-.147.024,28.017,28.017,0,0,0-3.769,1.322c-.563.22-.808.343-.979.416a1.173,1.173,0,0,1-.636.22c-.612,0-1.445-1.151-1.542-1.91a3.616,3.616,0,0,1-.025-.49,2.655,2.655,0,0,1,.025-.441l.367-.1c.49.759.93,1.053,1.273,1.053a4.894,4.894,0,0,0,1.2-.171c1.371-.343,2.692-.709,4.235-1.223a1.192,1.192,0,0,1,.759-.319,4.129,4.129,0,0,1,1.518.661c.464.295.661.49.661.783,0,.22-.122.416-.514.661a5.487,5.487,0,0,0-1.249,1c-2.031,2.276-3.623,4.039-5.557,6.266Zm.367,5.606c-.808,0-1.347.392-1.347,1.125,0,.979,1.347,1.689,3.526,1.689.17,0,.367-.024.538-.024-.464-1.59-1.492-2.766-2.717-2.79" transform="translate(-5.199 -0.96)" fill="#1a1311"/>
    <path id="パス_10919" data-name="パス 10919" d="M283.416,62.866a3.72,3.72,0,1,1-3.72-3.72,3.75,3.75,0,0,1,3.72,3.72m-6.462,0a2.742,2.742,0,0,0,5.483,0,2.742,2.742,0,0,0-5.483,0" transform="translate(-5.707 -1.223)" fill="#1a1311"/>
    <path id="パス_10920" data-name="パス 10920" d="M37.416,111.819a.062.062,0,0,1-.071-.071v-3.994h-1.5c-.041,0-.059-.029-.059-.071v-.357c0-.041.018-.065.059-.065h3.518a.057.057,0,0,1,.059.065v.357c0,.041-.024.071-.059.071h-1.5v3.994a.062.062,0,0,1-.07.071Z" transform="translate(-0.74 -2.218)" fill="#1a1311"/>
    <path id="パス_10921" data-name="パス 10921" d="M41.553,111.819a.062.062,0,0,1-.071-.071v-4.422c0-.041.023-.065.071-.065h.382c.047,0,.07.024.07.065v1.9h2.531v-1.9a.059.059,0,0,1,.065-.065h.388a.059.059,0,0,1,.065.065v4.422c0,.047-.023.071-.065.071H44.6c-.041,0-.065-.024-.065-.071v-2.032H42v2.032a.062.062,0,0,1-.07.071Z" transform="translate(-0.858 -2.218)" fill="#1a1311"/>
    <path id="パス_10922" data-name="パス 10922" d="M47.541,111.819a.062.062,0,0,1-.07-.071v-4.422c0-.041.023-.065.07-.065h2.742a.064.064,0,0,1,.071.065v.357a.069.069,0,0,1-.071.071h-2.29v1.462h2.091a.064.064,0,0,1,.065.071v.352a.065.065,0,0,1-.065.065H47.993v1.621h2.366a.06.06,0,0,1,.059.065v.358c0,.047-.023.071-.059.071Z" transform="translate(-0.982 -2.218)" fill="#1a1311"/>
    <path id="パス_10923" data-name="パス 10923" d="M52.569,111.819a.062.062,0,0,1-.071-.071v-4.423c0-.041.024-.065.071-.065H53.89c1.2,0,1.709.558,1.709,1.491a1.338,1.338,0,0,1-.816,1.34l.952,1.644c.023.047,0,.082-.048.082h-.446a.074.074,0,0,1-.07-.041l-.893-1.556a2,2,0,0,1-.388.029h-.869v1.5a.062.062,0,0,1-.071.071Zm.452-4.07v2.014h.839c.84,0,1.2-.347,1.2-1.011s-.358-1-1.2-1Z" transform="translate(-1.086 -2.218)" fill="#1a1311"/>
    <path id="パス_10924" data-name="パス 10924" d="M57.987,111.819a.062.062,0,0,1-.071-.071v-4.422c0-.041.024-.065.071-.065h2.742a.064.064,0,0,1,.071.065v.357a.069.069,0,0,1-.071.071h-2.29v1.462H60.53a.064.064,0,0,1,.065.071v.352a.065.065,0,0,1-.065.065H58.439v1.621h2.366a.06.06,0,0,1,.059.065v.358c0,.047-.023.071-.059.071Z" transform="translate(-1.198 -2.218)" fill="#1a1311"/>
    <path id="パス_10925" data-name="パス 10925" d="M65.865,111.819c-.047,0-.071-.029-.047-.076l1.8-4.428a.079.079,0,0,1,.081-.053h.364a.07.07,0,0,1,.076.053l1.815,4.428c.018.047-.006.076-.053.076H69.46a.074.074,0,0,1-.076-.047l-.429-1.092H66.8l-.429,1.092a.089.089,0,0,1-.082.047Zm2.908-1.627-.9-2.285-.887,2.285Z" transform="translate(-1.361 -2.218)" fill="#1a1311"/>
    <path id="パス_10926" data-name="パス 10926" d="M72.05,111.819a.062.062,0,0,1-.07-.071v-4.423c0-.041.023-.065.07-.065h1.321c1.2,0,1.709.558,1.709,1.491a1.338,1.338,0,0,1-.816,1.34l.952,1.644c.022.047,0,.082-.048.082h-.446a.074.074,0,0,1-.071-.041l-.893-1.556a2,2,0,0,1-.388.029H72.5v1.5a.062.062,0,0,1-.071.071Zm.452-4.07v2.014h.839c.84,0,1.2-.347,1.2-1.011s-.358-1-1.2-1Z" transform="translate(-1.489 -2.218)" fill="#1a1311"/>
    <path id="パス_10927" data-name="パス 10927" d="M77.468,111.819a.062.062,0,0,1-.07-.071v-4.422c0-.041.023-.065.07-.065h2.742a.064.064,0,0,1,.071.065v.357a.069.069,0,0,1-.071.071h-2.29v1.462h2.091a.064.064,0,0,1,.065.071v.352a.065.065,0,0,1-.065.065H77.921v1.621h2.366a.06.06,0,0,1,.059.065v.358c0,.047-.023.071-.059.071Z" transform="translate(-1.601 -2.218)" fill="#1a1311"/>
    <path id="パス_10928" data-name="パス 10928" d="M85.767,111.819a.062.062,0,0,1-.071-.071v-4.423c0-.041.023-.065.071-.065h1.321c1.169,0,1.708.57,1.708,1.509s-.534,1.509-1.708,1.509h-.87v1.469a.062.062,0,0,1-.07.071Zm.451-4.07v2.044h.84c.822,0,1.2-.341,1.2-1.034,0-.663-.377-1.01-1.2-1.01Z" transform="translate(-1.772 -2.218)" fill="#1a1311"/>
    <path id="パス_10929" data-name="パス 10929" d="M91,111.819a.062.062,0,0,1-.071-.071v-4.422c0-.041.024-.065.071-.065H93.74a.064.064,0,0,1,.071.065v.357a.069.069,0,0,1-.071.071H91.45v1.462h2.091a.064.064,0,0,1,.065.071v.352a.065.065,0,0,1-.065.065H91.45v1.621h2.366a.061.061,0,0,1,.06.065v.358c0,.047-.024.071-.06.071Z" transform="translate(-1.88 -2.218)" fill="#1a1311"/>
    <path id="パス_10930" data-name="パス 10930" d="M95.751,109.539a2.216,2.216,0,1,1,2.214,2.367,2.174,2.174,0,0,1-2.214-2.367m3.888,0a1.683,1.683,0,1,0-1.674,1.856,1.664,1.664,0,0,0,1.674-1.856" transform="translate(-1.98 -2.216)" fill="#1a1311"/>
    <path id="パス_10931" data-name="パス 10931" d="M102.477,111.819a.062.062,0,0,1-.071-.071v-4.423c0-.041.023-.065.071-.065h1.32c1.17,0,1.71.57,1.71,1.509s-.535,1.509-1.71,1.509h-.869v1.469a.062.062,0,0,1-.07.071Zm.451-4.07v2.044h.84c.822,0,1.2-.341,1.2-1.034,0-.663-.377-1.01-1.2-1.01Z" transform="translate(-2.118 -2.218)" fill="#1a1311"/>
    <path id="パス_10932" data-name="パス 10932" d="M107.709,111.819a.062.062,0,0,1-.071-.071v-4.422c0-.041.023-.065.071-.065h.382c.047,0,.07.024.07.065v3.993h2.383a.062.062,0,0,1,.066.065v.364c0,.047-.023.071-.066.071Z" transform="translate(-2.226 -2.218)" fill="#1a1311"/>
    <path id="パス_10933" data-name="パス 10933" d="M112.719,111.819a.062.062,0,0,1-.071-.071v-4.422c0-.041.023-.065.071-.065h2.742a.064.064,0,0,1,.071.065v.357a.069.069,0,0,1-.071.071h-2.29v1.462h2.091a.064.064,0,0,1,.065.071v.352a.065.065,0,0,1-.065.065h-2.091v1.621h2.366a.06.06,0,0,1,.059.065v.358c0,.047-.023.071-.059.071Z" transform="translate(-2.33 -2.218)" fill="#1a1311"/>
    <path id="パス_10934" data-name="パス 10934" d="M122.2,111.819c-.041,0-.071-.018-.076-.047l-1.586-4.434a.056.056,0,0,1,.059-.075h.447a.068.068,0,0,1,.075.052l1.246,3.666,1.168-3.659a.061.061,0,0,1,.07-.059h.341c.035,0,.059.011.071.059l1.168,3.659,1.252-3.666a.063.063,0,0,1,.071-.052h.434a.054.054,0,0,1,.059.075l-1.585,4.434a.066.066,0,0,1-.071.047h-.364a.068.068,0,0,1-.07-.059l-1.14-3.571-1.133,3.571a.075.075,0,0,1-.076.059Z" transform="translate(-2.493 -2.218)" fill="#1a1311"/>
    <path id="パス_10935" data-name="パス 10935" d="M129.141,111.819a.062.062,0,0,1-.071-.071v-4.422c0-.041.024-.065.071-.065h.382c.047,0,.071.024.071.065v1.9h2.531v-1.9a.059.059,0,0,1,.065-.065h.388a.059.059,0,0,1,.065.065v4.422c0,.047-.024.071-.065.071h-.388c-.041,0-.065-.024-.065-.071v-2.032h-2.531v2.032a.062.062,0,0,1-.071.071Z" transform="translate(-2.669 -2.218)" fill="#1a1311"/>
    <path id="パス_10936" data-name="パス 10936" d="M134.853,109.539a2.216,2.216,0,1,1,2.214,2.367,2.174,2.174,0,0,1-2.214-2.367m3.888,0a1.683,1.683,0,1,0-1.674,1.856,1.664,1.664,0,0,0,1.674-1.856" transform="translate(-2.789 -2.216)" fill="#1a1311"/>
    <path id="パス_10937" data-name="パス 10937" d="M144.848,111.82a.062.062,0,0,1-.071-.071v-4.423c0-.041.023-.065.071-.065h1.48c1.04,0,1.5.505,1.5,1.158a1,1,0,0,1-.686,1.016,1.066,1.066,0,0,1,.9,1.11c0,.752-.482,1.275-1.638,1.275Zm.452-4.07v1.474h1.033c.676,0,.97-.275.97-.74s-.329-.734-1-.734Zm0,1.956v1.621h1.11c.752,0,1.1-.294,1.1-.817s-.353-.8-1.1-.8Z" transform="translate(-2.994 -2.218)" fill="#1a1311"/>
    <path id="パス_10938" data-name="パス 10938" d="M150.3,111.819a.062.062,0,0,1-.07-.071v-4.422c0-.041.023-.065.07-.065h2.742a.064.064,0,0,1,.071.065v.357a.069.069,0,0,1-.071.071h-2.29v1.462h2.091a.064.064,0,0,1,.065.071v.352a.065.065,0,0,1-.065.065h-2.091v1.621h2.366a.06.06,0,0,1,.059.065v.358c0,.047-.023.071-.059.071Z" transform="translate(-3.107 -2.218)" fill="#1a1311"/>
    <path id="パス_10939" data-name="パス 10939" d="M155.33,111.819a.062.062,0,0,1-.071-.071v-4.422c0-.041.023-.065.071-.065h.382c.048,0,.072.024.072.065v3.993h2.383a.062.062,0,0,1,.066.065v.364c0,.047-.024.071-.066.071Z" transform="translate(-3.211 -2.218)" fill="#1a1311"/>
    <path id="パス_10940" data-name="パス 10940" d="M160.34,111.819a.062.062,0,0,1-.071-.071v-4.422c0-.041.024-.065.071-.065h.382c.047,0,.07.024.07.065v4.422a.062.062,0,0,1-.07.071Z" transform="translate(-3.314 -2.218)" fill="#1a1311"/>
    <path id="パス_10941" data-name="パス 10941" d="M163.214,111.819a.062.062,0,0,1-.071-.071v-4.422c0-.041.024-.065.071-.065h2.742a.064.064,0,0,1,.072.065v.357a.069.069,0,0,1-.072.071h-2.29v1.462h2.091a.064.064,0,0,1,.065.071v.352a.065.065,0,0,1-.065.065h-2.091v1.621h2.366a.06.06,0,0,1,.059.065v.358c0,.047-.023.071-.059.071Z" transform="translate(-3.374 -2.218)" fill="#1a1311"/>
    <path id="パス_10942" data-name="パス 10942" d="M169.638,111.819a.079.079,0,0,1-.082-.047l-1.779-4.434c-.024-.047,0-.075.047-.075h.441a.075.075,0,0,1,.082.052l1.48,3.841,1.48-3.841a.069.069,0,0,1,.076-.052h.435c.041,0,.065.028.047.075l-1.785,4.434a.076.076,0,0,1-.076.047Z" transform="translate(-3.469 -2.218)" fill="#1a1311"/>
    <path id="パス_10943" data-name="パス 10943" d="M173.96,111.819a.062.062,0,0,1-.071-.071v-4.422c0-.041.024-.065.071-.065H176.7a.064.064,0,0,1,.071.065v.357a.069.069,0,0,1-.071.071h-2.29v1.462H176.5a.064.064,0,0,1,.065.071v.352a.065.065,0,0,1-.065.065h-2.091v1.621h2.366a.06.06,0,0,1,.059.065v.358c0,.047-.022.071-.059.071Z" transform="translate(-3.596 -2.218)" fill="#1a1311"/>
    <path id="パス_10944" data-name="パス 10944" d="M182.258,111.819a.062.062,0,0,1-.071-.071v-4.422c0-.041.024-.065.071-.065h.382c.047,0,.071.024.071.065v4.422a.062.062,0,0,1-.071.071Z" transform="translate(-3.768 -2.218)" fill="#1a1311"/>
    <path id="パス_10945" data-name="パス 10945" d="M185.132,111.819a.062.062,0,0,1-.07-.071v-4.422c0-.041.023-.065.07-.065h.417a.079.079,0,0,1,.076.047l2.461,3.671v-3.653c0-.041.024-.065.07-.065h.37a.062.062,0,0,1,.065.065v4.422a.063.063,0,0,1-.065.071h-.416a.1.1,0,0,1-.082-.041l-2.461-3.688v3.659c0,.047-.024.071-.065.071Z" transform="translate(-3.827 -2.218)" fill="#1a1311"/>
    <path id="パス_10946" data-name="パス 10946" d="M194.348,111.819a.062.062,0,0,1-.071-.071v-4.422c0-.041.023-.065.071-.065h.417a.064.064,0,0,1,.071.047l1.791,3.012,1.774-3.012a.074.074,0,0,1,.076-.047h.4c.046,0,.07.024.07.065v4.422a.062.062,0,0,1-.07.071h-.37a.063.063,0,0,1-.065-.071v-3.594l-1.627,2.754a.073.073,0,0,1-.07.041h-.264a.073.073,0,0,1-.07-.041l-1.627-2.754v3.594c0,.047-.024.071-.065.071Z" transform="translate(-4.018 -2.218)" fill="#1a1311"/>
    <path id="パス_10947" data-name="パス 10947" d="M201.458,111.819a.062.062,0,0,1-.071-.071v-4.422c0-.041.024-.065.071-.065H204.2a.064.064,0,0,1,.071.065v.357a.069.069,0,0,1-.071.071h-2.29v1.462H204a.064.064,0,0,1,.065.071v.352a.065.065,0,0,1-.065.065H201.91v1.621h2.366a.06.06,0,0,1,.059.065v.358c0,.047-.023.071-.059.071Z" transform="translate(-4.165 -2.218)" fill="#1a1311"/>
    <path id="パス_10948" data-name="パス 10948" d="M209.756,111.819a.062.062,0,0,1-.071-.071v-4.422c0-.041.024-.065.071-.065h.417a.064.064,0,0,1,.071.047l1.791,3.012,1.774-3.012a.074.074,0,0,1,.076-.047h.4c.046,0,.069.024.069.065v4.422a.062.062,0,0,1-.069.071h-.37a.063.063,0,0,1-.065-.071v-3.594l-1.627,2.754a.073.073,0,0,1-.071.041h-.264a.073.073,0,0,1-.071-.041l-1.627-2.754v3.594c0,.047-.024.071-.065.071Z" transform="translate(-4.336 -2.218)" fill="#1a1311"/>
    <path id="パス_10949" data-name="パス 10949" d="M216.59,109.539a2.217,2.217,0,1,1,2.215,2.367,2.175,2.175,0,0,1-2.215-2.367m3.889,0a1.683,1.683,0,1,0-1.674,1.856,1.664,1.664,0,0,0,1.674-1.856" transform="translate(-4.479 -2.216)" fill="#1a1311"/>
    <path id="パス_10950" data-name="パス 10950" d="M223.314,111.819a.062.062,0,0,1-.07-.071v-4.423c0-.041.023-.065.07-.065h1.321c1.2,0,1.709.558,1.709,1.491a1.338,1.338,0,0,1-.816,1.34l.952,1.644c.023.047,0,.082-.048.082h-.446a.074.074,0,0,1-.07-.041l-.893-1.556a2,2,0,0,1-.388.029h-.869v1.5a.062.062,0,0,1-.07.071Zm.452-4.07v2.014h.839c.84,0,1.2-.347,1.2-1.011s-.358-1-1.2-1Z" transform="translate(-4.617 -2.218)" fill="#1a1311"/>
    <path id="パス_10951" data-name="パス 10951" d="M228.733,111.819a.062.062,0,0,1-.07-.071v-4.422c0-.041.023-.065.07-.065h2.742a.064.064,0,0,1,.072.065v.357a.069.069,0,0,1-.072.071h-2.29v1.462h2.091a.064.064,0,0,1,.065.071v.352a.065.065,0,0,1-.065.065h-2.091v1.621h2.366a.06.06,0,0,1,.059.065v.358c0,.047-.023.071-.059.071Z" transform="translate(-4.729 -2.218)" fill="#1a1311"/>
    <path id="パス_10952" data-name="パス 10952" d="M77.519,122.819a.062.062,0,0,1-.07-.071v-3.994h-1.5c-.041,0-.059-.029-.059-.07v-.357c0-.041.018-.065.059-.065h3.518a.057.057,0,0,1,.059.065v.357c0,.041-.023.07-.059.07h-1.5v3.994a.062.062,0,0,1-.07.071Z" transform="translate(-1.569 -2.446)" fill="#1a1311"/>
    <path id="パス_10953" data-name="パス 10953" d="M81.656,122.819a.062.062,0,0,1-.07-.071v-4.422c0-.041.024-.065.07-.065h.382c.047,0,.071.024.071.065v1.9h2.531v-1.9a.059.059,0,0,1,.065-.065h.388a.059.059,0,0,1,.065.065v4.422c0,.047-.024.071-.065.071H84.7c-.041,0-.065-.023-.065-.071v-2.032H82.109v2.032a.062.062,0,0,1-.071.071Z" transform="translate(-1.687 -2.446)" fill="#1a1311"/>
    <path id="パス_10954" data-name="パス 10954" d="M87.224,122.819c-.047,0-.071-.029-.047-.076l1.8-4.427a.079.079,0,0,1,.081-.053h.364a.07.07,0,0,1,.076.053l1.815,4.427c.018.047-.006.076-.053.076h-.446a.074.074,0,0,1-.076-.047l-.429-1.092h-2.15l-.429,1.092a.089.089,0,0,1-.082.047Zm2.908-1.627-.9-2.285-.887,2.285Z" transform="translate(-1.803 -2.446)" fill="#1a1311"/>
    <path id="パス_10955" data-name="パス 10955" d="M93.411,122.819a.062.062,0,0,1-.07-.071v-4.422c0-.041.024-.065.07-.065h.417a.079.079,0,0,1,.076.047l2.461,3.671v-3.653c0-.041.024-.065.07-.065h.37a.062.062,0,0,1,.065.065v4.422a.063.063,0,0,1-.065.071h-.416a.1.1,0,0,1-.082-.041l-2.461-3.688v3.659c0,.047-.024.071-.065.071Z" transform="translate(-1.93 -2.446)" fill="#1a1311"/>
    <path id="パス_10956" data-name="パス 10956" d="M102.625,122.819a.062.062,0,0,1-.07-.071v-4.422c0-.041.024-.065.07-.065h.382c.047,0,.07.024.07.065v4.422a.062.062,0,0,1-.07.071Z" transform="translate(-2.121 -2.446)" fill="#1a1311"/>
    <path id="パス_10957" data-name="パス 10957" d="M108.77,122.82a.062.062,0,0,1-.071-.071v-4.423c0-.041.023-.065.071-.065h1.48c1.04,0,1.5.505,1.5,1.158a1,1,0,0,1-.687,1.016,1.066,1.066,0,0,1,.9,1.11c0,.752-.482,1.275-1.638,1.275Zm.452-4.07v1.474h1.033c.676,0,.97-.275.97-.74s-.329-.733-1-.733Zm0,1.956v1.621h1.11c.752,0,1.1-.294,1.1-.817s-.353-.8-1.1-.8Z" transform="translate(-2.248 -2.446)" fill="#1a1311"/>
    <path id="パス_10958" data-name="パス 10958" d="M114.224,122.819a.062.062,0,0,1-.071-.071v-4.422c0-.041.024-.065.071-.065h2.742a.064.064,0,0,1,.072.065v.357a.069.069,0,0,1-.072.07h-2.29v1.462h2.091a.064.064,0,0,1,.065.071v.352a.065.065,0,0,1-.065.065h-2.091v1.621h2.366a.06.06,0,0,1,.059.065v.358c0,.047-.023.071-.059.071Z" transform="translate(-2.361 -2.446)" fill="#1a1311"/>
    <path id="パス_10959" data-name="パス 10959" d="M119.252,122.819a.062.062,0,0,1-.071-.071v-4.422c0-.041.024-.065.071-.065h.382c.047,0,.071.024.071.065v3.993h2.384a.062.062,0,0,1,.065.065v.364c0,.047-.024.071-.065.071Z" transform="translate(-2.465 -2.446)" fill="#1a1311"/>
    <path id="パス_10960" data-name="パス 10960" d="M124.262,122.819a.062.062,0,0,1-.071-.071v-4.422c0-.041.023-.065.071-.065h.382c.047,0,.071.024.071.065v4.422a.062.062,0,0,1-.071.071Z" transform="translate(-2.568 -2.446)" fill="#1a1311"/>
    <path id="パス_10961" data-name="パス 10961" d="M127.136,122.819a.062.062,0,0,1-.071-.071v-4.422c0-.041.024-.065.071-.065h2.742a.064.064,0,0,1,.072.065v.357a.069.069,0,0,1-.072.07h-2.29v1.462h2.091a.064.064,0,0,1,.065.071v.352a.065.065,0,0,1-.065.065h-2.091v1.621h2.366a.06.06,0,0,1,.059.065v.358c0,.047-.022.071-.059.071Z" transform="translate(-2.628 -2.446)" fill="#1a1311"/>
    <path id="パス_10962" data-name="パス 10962" d="M133.559,122.819a.079.079,0,0,1-.082-.047l-1.779-4.434c-.023-.047,0-.075.047-.075h.441a.076.076,0,0,1,.082.052l1.48,3.841,1.48-3.841a.069.069,0,0,1,.076-.052h.435c.041,0,.065.028.047.075L134,122.772a.076.076,0,0,1-.076.047Z" transform="translate(-2.723 -2.446)" fill="#1a1311"/>
    <path id="パス_10963" data-name="パス 10963" d="M137.882,122.819a.062.062,0,0,1-.071-.071v-4.422c0-.041.024-.065.071-.065h2.742a.064.064,0,0,1,.071.065v.357a.069.069,0,0,1-.071.07h-2.29v1.462h2.091a.064.064,0,0,1,.065.071v.352a.065.065,0,0,1-.065.065h-2.091v1.621H140.7a.06.06,0,0,1,.059.065v.358c0,.047-.023.071-.059.071Z" transform="translate(-2.85 -2.446)" fill="#1a1311"/>
    <path id="パス_10964" data-name="パス 10964" d="M146.18,122.819a.062.062,0,0,1-.071-.071v-4.422c0-.041.024-.065.071-.065h.382c.047,0,.071.024.071.065v4.422a.062.062,0,0,1-.071.071Z" transform="translate(-3.022 -2.446)" fill="#1a1311"/>
    <path id="パス_10965" data-name="パス 10965" d="M149.054,122.819a.062.062,0,0,1-.071-.071v-4.422c0-.041.024-.065.071-.065h.417a.079.079,0,0,1,.076.047l2.461,3.671v-3.653c0-.041.024-.065.07-.065h.37a.062.062,0,0,1,.065.065v4.422a.063.063,0,0,1-.065.071h-.416a.1.1,0,0,1-.082-.041l-2.461-3.688v3.659c0,.047-.023.071-.065.071Z" transform="translate(-3.081 -2.446)" fill="#1a1311"/>
    <path id="パス_10966" data-name="パス 10966" d="M158.27,122.819a.062.062,0,0,1-.071-.071v-4.422c0-.041.023-.065.071-.065h.417a.064.064,0,0,1,.07.047l1.791,3.012,1.774-3.012a.074.074,0,0,1,.076-.047h.4c.046,0,.07.024.07.065v4.422a.062.062,0,0,1-.07.071h-.37a.063.063,0,0,1-.065-.071v-3.594l-1.627,2.754a.073.073,0,0,1-.071.041H160.4a.073.073,0,0,1-.07-.041l-1.627-2.754v3.594c0,.047-.024.071-.065.071Z" transform="translate(-3.272 -2.446)" fill="#1a1311"/>
    <path id="パス_10967" data-name="パス 10967" d="M166.657,122.819c-.041,0-.065-.023-.065-.071v-1.721l-1.68-2.683c-.029-.041-.012-.082.041-.082h.447a.069.069,0,0,1,.075.047l1.381,2.254,1.374-2.254c.012-.036.035-.047.076-.047h.435a.052.052,0,0,1,.047.082l-1.68,2.672v1.732a.063.063,0,0,1-.064.071Z" transform="translate(-3.41 -2.446)" fill="#1a1311"/>
    <path id="パス_10968" data-name="パス 10968" d="M170.5,121.707a.059.059,0,0,1,.047-.082l.369-.094c.036-.012.066,0,.082.047a1.056,1.056,0,0,0,1.116.817c.587,0,.979-.259.979-.734s-.351-.71-.932-.911l-.347-.118c-.757-.258-1.2-.657-1.2-1.262a1.289,1.289,0,0,1,1.433-1.2,1.423,1.423,0,0,1,1.492,1.092c.012.047,0,.076-.041.082l-.394.1a.056.056,0,0,1-.076-.041.929.929,0,0,0-.981-.722c-.528,0-.9.275-.9.675,0,.364.3.623.933.828l.306.1c.84.276,1.239.651,1.239,1.374s-.622,1.245-1.515,1.245a1.558,1.558,0,0,1-1.615-1.2" transform="translate(-3.526 -2.444)" fill="#1a1311"/>
    <path id="パス_10969" data-name="パス 10969" d="M175.812,122.819a.062.062,0,0,1-.07-.071v-4.422c0-.041.024-.065.07-.065h2.743a.065.065,0,0,1,.072.065v.357a.069.069,0,0,1-.072.07h-2.29v1.462h2.09a.064.064,0,0,1,.065.071v.352a.065.065,0,0,1-.065.065h-2.09v1.621h2.366a.06.06,0,0,1,.059.065v.358c0,.047-.023.071-.059.071Z" transform="translate(-3.634 -2.446)" fill="#1a1311"/>
    <path id="パス_10970" data-name="パス 10970" d="M180.841,122.819a.062.062,0,0,1-.071-.071v-4.422c0-.041.024-.065.071-.065h.382c.047,0,.07.024.07.065v3.993h2.384a.062.062,0,0,1,.065.065v.364c0,.047-.023.071-.065.071Z" transform="translate(-3.738 -2.446)" fill="#1a1311"/>
    <path id="パス_10971" data-name="パス 10971" d="M185.85,122.819a.062.062,0,0,1-.07-.071v-4.422c0-.041.023-.065.07-.065h2.655c.046,0,.07.024.07.065v.357a.065.065,0,0,1-.07.07h-2.2v1.569h1.938a.059.059,0,0,1,.065.065v.357a.063.063,0,0,1-.065.07H186.3v1.932a.062.062,0,0,1-.071.071Z" transform="translate(-3.842 -2.446)" fill="#1a1311"/>
    <path id="パス_10972" data-name="パス 10972" d="M190.43,122.608a.361.361,0,1,1,.364.358.354.354,0,0,1-.364-.358" transform="translate(-3.938 -2.528)" fill="#1a1311"/>
  </g>
</svg>
