<svg xmlns="http://www.w3.org/2000/svg" width="25.703" height="17.993" viewBox="0 0 25.703 17.993">
  <g id="youtube-icon" transform="translate(0 0)">
    <path id="パス_270" data-name="パス 270" d="M1014.947-58.165a3.22,3.22,0,0,0-2.273-2.272c-2-.537-10.042-.537-10.042-.537s-8.037,0-10.042.537a3.22,3.22,0,0,0-2.273,2.272,33.48,33.48,0,0,0-.537,6.187,33.48,33.48,0,0,0,.537,6.187,3.22,3.22,0,0,0,2.273,2.272c2,.537,10.042.537,10.042.537s8.038,0,10.042-.537a3.22,3.22,0,0,0,2.273-2.272,33.48,33.48,0,0,0,.537-6.187A33.48,33.48,0,0,0,1014.947-58.165Z" transform="translate(-989.78 60.975)"/>
    <path id="パス_271" data-name="パス 271" d="M1005.281-45.513l6.678-3.855-6.678-3.856Z" transform="translate(-995 58.365)" fill="#f5f0ea"/>
  </g>
</svg>
