<svg height="17.993" viewBox="0 0 25.703 17.993" width="25.703" xmlns="http://www.w3.org/2000/svg"><path d="m1014.947-58.165a3.22 3.22 0 0 0 -2.273-2.272c-2-.537-10.042-.537-10.042-.537s-8.037 0-10.042.537a3.22 3.22 0 0 0 -2.273 2.272 33.48 33.48 0 0 0 -.537 6.187 33.48 33.48 0 0 0 .537 6.187 3.22 3.22 0 0 0 2.273 2.272c2 .537 10.042.537 10.042.537s8.038 0 10.042-.537a3.22 3.22 0 0 0 2.273-2.272 33.48 33.48 0 0 0 .537-6.187 33.48 33.48 0 0 0 -.537-6.187z" transform="translate(-989.78 60.975)"/><path d="m1005.281-45.513 6.678-3.855-6.678-3.856z" fill="#f5f0ea" transform="translate(-995 58.365)"/></svg>