<svg xmlns="http://www.w3.org/2000/svg" xmlns:xlink="http://www.w3.org/1999/xlink" width="1020" height="178.76" viewBox="0 0 1020 178.76">
  <defs>
    <clipPath id="clip-path">
      <rect id="長方形_54" data-name="長方形 54" width="1020" height="178.76" fill="#767676"/>
    </clipPath>
  </defs>
  <g id="グループ_64" data-name="グループ 64" transform="translate(-293.361 -928.232)">
    <g id="グループ_23" data-name="グループ 23" transform="translate(293.361 928.232)">
      <rect id="長方形_53" data-name="長方形 53" width="19.813" height="172.55" transform="translate(852.922 1.345)" fill="#767676"/>
      <path id="パス_7" data-name="パス 7" d="M550.1,1.152V36.776H466.653V1.152H446.84V173.7h19.812V56.556H550.1V173.7h19.813V1.152Z" transform="translate(74.97 0.193)" fill="#767676"/>
      <path id="パス_8" data-name="パス 8" d="M0,1.07V20.882H37V173.715H56.78V20.882H94.356V1.07Z" transform="translate(0 0.179)" fill="#767676"/>
      <g id="グループ_10" data-name="グループ 10">
        <g id="グループ_9" data-name="グループ 9" clip-path="url(#clip-path)">
          <path id="パス_9" data-name="パス 9" d="M334.347,1.069H273.374V6.607h-.386V174.291H292.8V72.125h41.546c26.118,0,47.53-16,47.53-35.527,0-19.557-21.412-35.528-47.53-35.528m6.017,51.243H292.416V21.266h47.948c11.65,0,21.123,6.977,21.123,15.523s-9.474,15.523-21.123,15.523" transform="translate(45.801 0.179)" fill="#767676"/>
          <path id="パス_10" data-name="パス 10" d="M182.8,0a89.38,89.38,0,1,0,89.364,89.4A89.392,89.392,0,0,0,182.8,0m0,160.036A70.655,70.655,0,1,1,253.439,89.4a70.655,70.655,0,0,1-70.64,70.639" transform="translate(15.676)" fill="#767676"/>
          <path id="パス_11" data-name="パス 11" d="M736.563,173.427,656.771,1.069h-3.01l-7.039,14.723-.032-.032L571.248,173.427H593.2L654.977,44.344l59.758,129.084Z" transform="translate(95.842 0.179)" fill="#767676"/>
          <path id="パス_12" data-name="パス 12" d="M889.372,173.427l-79.6-101.3h30.149c26.15,0,47.53-16,47.53-35.527,0-19.557-21.38-35.527-47.53-35.527H778.95V6.606h-.384V174.291h19.813V89.665l65.8,83.762ZM797.994,21.266h47.945c11.618,0,21.127,6.977,21.127,15.524s-9.509,15.522-21.127,15.522H797.994Z" transform="translate(130.626 0.18)" fill="#767676"/>
        </g>
      </g>
    </g>
  </g>
</svg>
