<svg height="11.34" viewBox="0 0 7.635 11.34" width="7.635" xmlns="http://www.w3.org/2000/svg" xmlns:xlink="http://www.w3.org/1999/xlink"><clipPath id="a"><path d="m0 0h7.635v11.34h-7.635z"/></clipPath><g clip-path="url(#a)"><path d="m3.817 0a3.817 3.817 0 0 0 -3.817 3.817c0 2.152 1.067 2.61 2.245 4.042a7.05 7.05 0 0 1 1.572 3.481 7.05 7.05 0 0 1 1.572-3.481c1.179-1.432 2.245-1.89 2.245-4.042a3.817 3.817 0 0 0 -3.817-3.817m0 5.137a1.319 1.319 0 1 1 1.32-1.32 1.319 1.319 0 0 1 -1.32 1.32"/></g></svg>