<svg id="グループ_2825" data-name="グループ 2825" xmlns="http://www.w3.org/2000/svg" xmlns:xlink="http://www.w3.org/1999/xlink" width="7.635" height="11.34" viewBox="0 0 7.635 11.34">
  <defs>
    <clipPath id="clip-path">
      <rect id="長方形_19" data-name="長方形 19" width="7.635" height="11.34" fill="none"/>
    </clipPath>
  </defs>
  <g id="グループ_337" data-name="グループ 337" clip-path="url(#clip-path)">
    <path id="パス_322" data-name="パス 322" d="M3.817,0A3.817,3.817,0,0,0,0,3.817c0,2.152,1.067,2.61,2.245,4.042A7.05,7.05,0,0,1,3.817,11.34,7.05,7.05,0,0,1,5.389,7.859c1.179-1.432,2.245-1.89,2.245-4.042A3.817,3.817,0,0,0,3.817,0m0,5.137A1.319,1.319,0,1,1,5.137,3.817,1.319,1.319,0,0,1,3.817,5.137"/>
  </g>
</svg>
